<ttFont>
    <TTGlyph name=".notdef" xMin="0" yMin="0" xMax="500" yMax="700">
      <contour>
        <pt x="0" y="700" on="1"/>
        <pt x="500" y="700" on="1"/>
        <pt x="500" y="0" on="1"/>
        <pt x="0" y="0" on="1"/>
      </contour>
      <contour>
        <pt x="50" y="650" on="1"/>
        <pt x="50" y="50" on="1"/>
        <pt x="450" y="50" on="1"/>
        <pt x="450" y="650" on="1"/>
      </contour>
      <contour>
        <pt x="229" y="278" on="1"/>
        <pt x="229" y="307" on="0"/>
        <pt x="256" y="345" on="0"/>
        <pt x="283" y="367" on="1"/>
        <pt x="311" y="390" on="0"/>
        <pt x="339" y="431" on="0"/>
        <pt x="339" y="465" on="1"/>
        <pt x="339" y="496" on="0"/>
        <pt x="301" y="552" on="0"/>
        <pt x="250" y="552" on="1"/>
        <pt x="192" y="552" on="0"/>
        <pt x="152" y="485" on="0"/>
        <pt x="152" y="452" on="1"/>
        <pt x="152" y="424" on="1"/>
        <pt x="103" y="424" on="1"/>
        <pt x="99" y="438" on="0"/>
        <pt x="99" y="455" on="1"/>
        <pt x="99" y="478" on="0"/>
        <pt x="120" y="544" on="0"/>
        <pt x="187" y="602" on="0"/>
        <pt x="250" y="602" on="1"/>
        <pt x="313" y="602" on="0"/>
        <pt x="376" y="546" on="0"/>
        <pt x="393" y="486" on="0"/>
        <pt x="393" y="467" on="1"/>
        <pt x="393" y="422" on="0"/>
        <pt x="356" y="364" on="0"/>
        <pt x="326" y="338" on="1"/>
        <pt x="304" y="320" on="0"/>
        <pt x="282" y="290" on="0"/>
        <pt x="282" y="268" on="1"/>
        <pt x="282" y="215" on="1"/>
        <pt x="229" y="215" on="1"/>
      </contour>
      <contour>
        <pt x="225" y="169" on="1"/>
        <pt x="285" y="169" on="1"/>
        <pt x="285" y="99" on="1"/>
        <pt x="225" y="99" on="1"/>
      </contour>
    </TTGlyph>
    <TTGlyph name="A" xMin="13" yMin="0" xMax="400" yMax="688">
      <contour>
        <pt x="279" y="179" on="1"/>
        <pt x="132" y="179" on="1"/>
        <pt x="98" y="0" on="1"/>
        <pt x="13" y="0" on="1"/>
        <pt x="146" y="688" on="1"/>
        <pt x="267" y="688" on="1"/>
        <pt x="400" y="0" on="1"/>
        <pt x="314" y="0" on="1"/>
      </contour>
      <contour>
        <pt x="203" y="587" on="1"/>
        <pt x="142" y="254" on="1"/>
        <pt x="269" y="254" on="1"/>
        <pt x="208" y="587" on="1"/>
      </contour>
    </TTGlyph>
    <TTGlyph name="A.ss01" xMin="48" yMin="0" xMax="377" yMax="696">
      <contour>
        <pt x="293" y="233" on="1"/>
        <pt x="133" y="233" on="1"/>
        <pt x="133" y="0" on="1"/>
        <pt x="48" y="0" on="1"/>
        <pt x="48" y="389" on="1"/>
        <pt x="48" y="523" on="0"/>
        <pt x="66" y="643" on="0"/>
        <pt x="135" y="696" on="0"/>
        <pt x="213" y="696" on="1"/>
        <pt x="291" y="696" on="0"/>
        <pt x="359" y="643" on="0"/>
        <pt x="377" y="523" on="0"/>
        <pt x="377" y="389" on="1"/>
        <pt x="377" y="0" on="1"/>
        <pt x="293" y="0" on="1"/>
      </contour>
      <contour>
        <pt x="293" y="518" on="0"/>
        <pt x="284" y="591" on="0"/>
        <pt x="252" y="619" on="0"/>
        <pt x="213" y="619" on="1"/>
        <pt x="174" y="619" on="0"/>
        <pt x="142" y="591" on="0"/>
        <pt x="133" y="518" on="0"/>
        <pt x="133" y="428" on="1"/>
        <pt x="133" y="311" on="1"/>
        <pt x="293" y="311" on="1"/>
        <pt x="293" y="428" on="1"/>
      </contour>
    </TTGlyph>
    <TTGlyph name="AE" xMin="-6" yMin="0" xMax="522" yMax="688">
      <contour>
        <pt x="273" y="179" on="1"/>
        <pt x="124" y="179" on="1"/>
        <pt x="78" y="0" on="1"/>
        <pt x="-6" y="0" on="1"/>
        <pt x="169" y="688" on="1"/>
        <pt x="522" y="688" on="1"/>
        <pt x="522" y="611" on="1"/>
        <pt x="303" y="611" on="1"/>
        <pt x="334" y="386" on="1"/>
        <pt x="500" y="386" on="1"/>
        <pt x="500" y="309" on="1"/>
        <pt x="342" y="309" on="1"/>
        <pt x="374" y="77" on="1"/>
        <pt x="522" y="77" on="1"/>
        <pt x="522" y="0" on="1"/>
        <pt x="296" y="0" on="1"/>
      </contour>
      <contour>
        <pt x="220" y="587" on="1"/>
        <pt x="137" y="254" on="1"/>
        <pt x="266" y="254" on="1"/>
        <pt x="226" y="587" on="1"/>
      </contour>
    </TTGlyph>
    <TTGlyph name="AEacute" xMin="-6" yMin="0" xMax="522" yMax="888">
      <component glyphName="AE" x="0" y="0" flags="0x0"/>
      <component glyphName="acutecomb.case" x="361" y="0" flags="0x0"/>
    </TTGlyph>
    <TTGlyph name="Aacute" xMin="13" yMin="0" xMax="400" yMax="892">
      <component glyphName="A" x="0" y="0" flags="0x0"/>
      <component glyphName="acute" x="170" y="149" flags="0x4"/>
    </TTGlyph>
    <TTGlyph name="Aacute.ss01" xMin="48" yMin="0" xMax="377" yMax="892">
      <component glyphName="A.ss01" x="0" y="0" flags="0x0"/>
      <component glyphName="acute" x="178" y="149" flags="0x4"/>
    </TTGlyph>
    <TTGlyph name="Abreve" xMin="13" yMin="0" xMax="400" yMax="888">
      <component glyphName="A" x="0" y="0" flags="0x0"/>
      <component glyphName="uni0306.case" x="313" y="0" flags="0x0"/>
    </TTGlyph>
    <TTGlyph name="Abreve.ss01" xMin="48" yMin="0" xMax="377" yMax="888">
      <component glyphName="A.ss01" x="0" y="0" flags="0x0"/>
      <component glyphName="uni0306.case" x="319" y="0" flags="0x0"/>
    </TTGlyph>
    <TTGlyph name="Acircumflex" xMin="13" yMin="0" xMax="400" yMax="882">
      <component glyphName="A" x="0" y="0" flags="0x0"/>
      <component glyphName="circumflex" x="96" y="139" flags="0x4"/>
    </TTGlyph>
    <TTGlyph name="Acircumflex.ss01" xMin="48" yMin="0" xMax="377" yMax="882">
      <component glyphName="A.ss01" x="0" y="0" flags="0x0"/>
      <component glyphName="circumflex" x="106" y="139" flags="0x4"/>
    </TTGlyph>
    <TTGlyph name="Adieresis" xMin="13" yMin="0" xMax="400" yMax="855">
      <component glyphName="A" x="0" y="0" flags="0x0"/>
      <component glyphName="dieresis" x="71" y="125" flags="0x4"/>
    </TTGlyph>
    <TTGlyph name="Adieresis.ss01" xMin="48" yMin="0" xMax="377" yMax="854">
      <component glyphName="A.ss01" x="0" y="0" flags="0x0"/>
      <component glyphName="dieresis" x="81" y="124" flags="0x4"/>
    </TTGlyph>
    <TTGlyph name="Agrave" xMin="13" yMin="0" xMax="400" yMax="892">
      <component glyphName="A" x="0" y="0" flags="0x0"/>
      <component glyphName="grave" x="126" y="149" flags="0x4"/>
    </TTGlyph>
    <TTGlyph name="Agrave.ss01" xMin="48" yMin="0" xMax="377" yMax="892">
      <component glyphName="A.ss01" x="0" y="0" flags="0x0"/>
      <component glyphName="grave" x="136" y="149" flags="0x4"/>
    </TTGlyph>
    <TTGlyph name="Amacron" xMin="13" yMin="0" xMax="400" yMax="888">
      <component glyphName="A" x="0" y="0" flags="0x0"/>
      <component glyphName="uni0304.case" x="345" y="0" flags="0x0"/>
    </TTGlyph>
    <TTGlyph name="Amacron.ss01" xMin="48" yMin="0" xMax="377" yMax="888">
      <component glyphName="A.ss01" x="0" y="0" flags="0x0"/>
      <component glyphName="uni0304.case" x="351" y="0" flags="0x0"/>
    </TTGlyph>
    <TTGlyph name="Aogonek" xMin="13" yMin="-196" xMax="400" yMax="688">
      <contour>
        <pt x="322" y="-145" on="0"/>
        <pt x="363" y="-145" on="1"/>
        <pt x="377" y="-144" on="1"/>
        <pt x="377" y="-193" on="1"/>
        <pt x="362" y="-196" on="0"/>
        <pt x="342" y="-196" on="1"/>
        <pt x="298" y="-196" on="0"/>
        <pt x="257" y="-152" on="0"/>
        <pt x="257" y="-116" on="1"/>
        <pt x="257" y="-88" on="0"/>
        <pt x="288" y="-23" on="0"/>
        <pt x="313" y="3" on="1"/>
        <pt x="279" y="179" on="1"/>
        <pt x="132" y="179" on="1"/>
        <pt x="98" y="0" on="1"/>
        <pt x="13" y="0" on="1"/>
        <pt x="146" y="688" on="1"/>
        <pt x="267" y="688" on="1"/>
        <pt x="400" y="0" on="1"/>
        <pt x="372" y="0" on="1"/>
        <pt x="353" y="-19" on="0"/>
        <pt x="322" y="-78" on="0"/>
        <pt x="322" y="-103" on="1"/>
      </contour>
      <contour>
        <pt x="269" y="254" on="1"/>
        <pt x="208" y="587" on="1"/>
        <pt x="203" y="587" on="1"/>
        <pt x="142" y="254" on="1"/>
      </contour>
    </TTGlyph>
    <TTGlyph name="Aogonek.ss01" xMin="48" yMin="-196" xMax="377" yMax="696">
      <contour>
        <pt x="352" y="0" on="1"/>
        <pt x="333" y="-20" on="0"/>
        <pt x="302" y="-78" on="0"/>
        <pt x="302" y="-103" on="1"/>
        <pt x="302" y="-145" on="0"/>
        <pt x="343" y="-145" on="1"/>
        <pt x="357" y="-144" on="1"/>
        <pt x="357" y="-193" on="1"/>
        <pt x="341" y="-196" on="0"/>
        <pt x="322" y="-196" on="1"/>
        <pt x="278" y="-196" on="0"/>
        <pt x="237" y="-152" on="0"/>
        <pt x="237" y="-116" on="1"/>
        <pt x="237" y="-88" on="0"/>
        <pt x="268" y="-23" on="0"/>
        <pt x="293" y="3" on="1"/>
        <pt x="293" y="233" on="1"/>
        <pt x="133" y="233" on="1"/>
        <pt x="133" y="0" on="1"/>
        <pt x="48" y="0" on="1"/>
        <pt x="48" y="389" on="1"/>
        <pt x="48" y="523" on="0"/>
        <pt x="66" y="643" on="0"/>
        <pt x="135" y="696" on="0"/>
        <pt x="213" y="696" on="1"/>
        <pt x="291" y="696" on="0"/>
        <pt x="359" y="643" on="0"/>
        <pt x="377" y="523" on="0"/>
        <pt x="377" y="389" on="1"/>
        <pt x="377" y="0" on="1"/>
      </contour>
      <contour>
        <pt x="293" y="311" on="1"/>
        <pt x="293" y="428" on="1"/>
        <pt x="293" y="518" on="0"/>
        <pt x="284" y="591" on="0"/>
        <pt x="252" y="619" on="0"/>
        <pt x="213" y="619" on="1"/>
        <pt x="174" y="619" on="0"/>
        <pt x="142" y="591" on="0"/>
        <pt x="133" y="518" on="0"/>
        <pt x="133" y="428" on="1"/>
        <pt x="133" y="311" on="1"/>
      </contour>
    </TTGlyph>
    <TTGlyph name="Aring" xMin="13" yMin="0" xMax="400" yMax="865">
      <contour>
        <pt x="400" y="0" on="1"/>
        <pt x="314" y="0" on="1"/>
        <pt x="279" y="179" on="1"/>
        <pt x="132" y="179" on="1"/>
        <pt x="98" y="0" on="1"/>
        <pt x="13" y="0" on="1"/>
        <pt x="145" y="683" on="1"/>
        <pt x="120" y="691" on="0"/>
        <pt x="107" y="727" on="0"/>
        <pt x="107" y="768" on="1"/>
        <pt x="107" y="807" on="0"/>
        <pt x="118" y="846" on="0"/>
        <pt x="160" y="865" on="0"/>
        <pt x="206" y="865" on="1"/>
        <pt x="252" y="865" on="0"/>
        <pt x="295" y="845" on="0"/>
        <pt x="307" y="807" on="0"/>
        <pt x="307" y="768" on="1"/>
        <pt x="307" y="729" on="0"/>
        <pt x="292" y="692" on="0"/>
        <pt x="269" y="684" on="1"/>
      </contour>
      <contour>
        <pt x="178" y="818" on="0"/>
        <pt x="164" y="799" on="0"/>
        <pt x="164" y="768" on="1"/>
        <pt x="164" y="737" on="0"/>
        <pt x="178" y="719" on="0"/>
        <pt x="206" y="719" on="1"/>
        <pt x="226" y="719" on="0"/>
        <pt x="244" y="727" on="0"/>
        <pt x="249" y="746" on="0"/>
        <pt x="249" y="768" on="1"/>
        <pt x="249" y="799" on="0"/>
        <pt x="235" y="818" on="0"/>
        <pt x="206" y="818" on="1"/>
      </contour>
      <contour>
        <pt x="269" y="254" on="1"/>
        <pt x="208" y="587" on="1"/>
        <pt x="203" y="587" on="1"/>
        <pt x="142" y="254" on="1"/>
      </contour>
    </TTGlyph>
    <TTGlyph name="Aring.ss01" xMin="48" yMin="0" xMax="377" yMax="928">
      <component glyphName="A.ss01" x="0" y="0" flags="0x0"/>
      <component glyphName="ring" x="116" y="120" flags="0x4"/>
    </TTGlyph>
    <TTGlyph name="Aringacute" xMin="13" yMin="0" xMax="400" yMax="1065">
      <component glyphName="Aring" x="0" y="0" flags="0x0"/>
      <component glyphName="acutecomb.case" x="291" y="177" flags="0x4"/>
    </TTGlyph>
    <TTGlyph name="Aringacute.ss01" xMin="48" yMin="0" xMax="377" yMax="1093">
      <component glyphName="A.ss01" x="0" y="0" flags="0x0"/>
      <component glyphName="uni030A.case" x="312" y="0" flags="0x0"/>
      <component glyphName="acutecomb.case" x="300" y="205" flags="0x4"/>
    </TTGlyph>
    <TTGlyph name="Atilde" xMin="13" yMin="0" xMax="400" yMax="873">
      <component glyphName="A" x="0" y="0" flags="0x0"/>
      <component glyphName="tilde" x="80" y="130" flags="0x4"/>
    </TTGlyph>
    <TTGlyph name="Atilde.ss01" xMin="48" yMin="0" xMax="377" yMax="873">
      <component glyphName="A.ss01" x="0" y="0" flags="0x0"/>
      <component glyphName="tilde" x="90" y="130" flags="0x4"/>
    </TTGlyph>
    <TTGlyph name="B" xMin="52" yMin="0" xMax="373" yMax="688">
      <contour>
        <pt x="52" y="688" on="1"/>
        <pt x="222" y="688" on="1"/>
        <pt x="299" y="688" on="0"/>
        <pt x="368" y="601" on="0"/>
        <pt x="368" y="516" on="1"/>
        <pt x="368" y="445" on="0"/>
        <pt x="326" y="366" on="0"/>
        <pt x="280" y="354" on="1"/>
        <pt x="280" y="350" on="1"/>
        <pt x="332" y="338" on="0"/>
        <pt x="373" y="256" on="0"/>
        <pt x="373" y="182" on="1"/>
        <pt x="373" y="95" on="0"/>
        <pt x="305" y="0" on="0"/>
        <pt x="219" y="0" on="1"/>
        <pt x="52" y="0" on="1"/>
      </contour>
      <contour>
        <pt x="247" y="386" on="0"/>
        <pt x="286" y="438" on="0"/>
        <pt x="286" y="498" on="1"/>
        <pt x="286" y="543" on="0"/>
        <pt x="273" y="590" on="0"/>
        <pt x="238" y="611" on="0"/>
        <pt x="205" y="611" on="1"/>
        <pt x="136" y="611" on="1"/>
        <pt x="136" y="386" on="1"/>
        <pt x="205" y="386" on="1"/>
      </contour>
      <contour>
        <pt x="239" y="77" on="0"/>
        <pt x="275" y="99" on="0"/>
        <pt x="289" y="148" on="0"/>
        <pt x="289" y="194" on="1"/>
        <pt x="289" y="261" on="0"/>
        <pt x="252" y="311" on="0"/>
        <pt x="206" y="311" on="1"/>
        <pt x="136" y="311" on="1"/>
        <pt x="136" y="77" on="1"/>
        <pt x="206" y="77" on="1"/>
      </contour>
    </TTGlyph>
    <TTGlyph name="C" xMin="39" yMin="-8" xMax="298" yMax="696">
      <contour>
        <pt x="281" y="0" on="0"/>
        <pt x="231" y="-8" on="0"/>
        <pt x="209" y="-8" on="1"/>
        <pt x="133" y="-8" on="0"/>
        <pt x="63" y="48" on="0"/>
        <pt x="39" y="191" on="0"/>
        <pt x="39" y="344" on="1"/>
        <pt x="39" y="495" on="0"/>
        <pt x="64" y="639" on="0"/>
        <pt x="134" y="696" on="0"/>
        <pt x="209" y="696" on="1"/>
        <pt x="233" y="696" on="0"/>
        <pt x="282" y="688" on="0"/>
        <pt x="296" y="682" on="1"/>
        <pt x="296" y="611" on="1"/>
        <pt x="252" y="619" on="0"/>
        <pt x="224" y="619" on="1"/>
        <pt x="175" y="619" on="0"/>
        <pt x="136" y="584" on="0"/>
        <pt x="124" y="477" on="0"/>
        <pt x="124" y="344" on="1"/>
        <pt x="124" y="211" on="0"/>
        <pt x="136" y="104" on="0"/>
        <pt x="175" y="69" on="0"/>
        <pt x="224" y="69" on="1"/>
        <pt x="260" y="69" on="0"/>
        <pt x="298" y="77" on="1"/>
        <pt x="298" y="6" on="1"/>
      </contour>
    </TTGlyph>
    <TTGlyph name="Cacute" xMin="39" yMin="-8" xMax="298" yMax="888">
      <component glyphName="C" x="0" y="0" flags="0x0"/>
      <component glyphName="acutecomb.case" x="246" y="0" flags="0x0"/>
    </TTGlyph>
    <TTGlyph name="Cacute.loclPLK" xMin="39" yMin="-8" xMax="298" yMax="888">
      <component glyphName="C" x="0" y="0" flags="0x0"/>
      <component glyphName="acute.case.loclPLK" x="130" y="0" flags="0x0"/>
    </TTGlyph>
    <TTGlyph name="Ccaron" xMin="39" yMin="-8" xMax="298" yMax="888">
      <component glyphName="C" x="0" y="0" flags="0x0"/>
      <component glyphName="uni030C.case" x="271" y="0" flags="0x0"/>
    </TTGlyph>
    <TTGlyph name="Ccedilla" xMin="39" yMin="-189" xMax="298" yMax="696">
      <contour>
        <pt x="260" y="69" on="0"/>
        <pt x="298" y="77" on="1"/>
        <pt x="298" y="6" on="1"/>
        <pt x="281" y="0" on="0"/>
        <pt x="231" y="-8" on="0"/>
        <pt x="209" y="-8" on="1"/>
        <pt x="193" y="-8" on="0"/>
        <pt x="186" y="-7" on="1"/>
        <pt x="149" y="-189" on="1"/>
        <pt x="76" y="-189" on="1"/>
        <pt x="76" y="-184" on="1"/>
        <pt x="133" y="1" on="1"/>
        <pt x="93" y="14" on="0"/>
        <pt x="53" y="87" on="0"/>
        <pt x="39" y="222" on="0"/>
        <pt x="39" y="344" on="1"/>
        <pt x="39" y="495" on="0"/>
        <pt x="64" y="639" on="0"/>
        <pt x="134" y="696" on="0"/>
        <pt x="209" y="696" on="1"/>
        <pt x="233" y="696" on="0"/>
        <pt x="282" y="688" on="0"/>
        <pt x="296" y="682" on="1"/>
        <pt x="296" y="611" on="1"/>
        <pt x="252" y="619" on="0"/>
        <pt x="224" y="619" on="1"/>
        <pt x="175" y="619" on="0"/>
        <pt x="136" y="584" on="0"/>
        <pt x="124" y="477" on="0"/>
        <pt x="124" y="344" on="1"/>
        <pt x="124" y="211" on="0"/>
        <pt x="136" y="104" on="0"/>
        <pt x="175" y="69" on="0"/>
        <pt x="224" y="69" on="1"/>
      </contour>
    </TTGlyph>
    <TTGlyph name="Ccircumflex" xMin="39" yMin="-8" xMax="298" yMax="888">
      <component glyphName="C" x="0" y="0" flags="0x0"/>
      <component glyphName="uni0302.case" x="271" y="0" flags="0x0"/>
    </TTGlyph>
    <TTGlyph name="Cdotaccent" xMin="39" yMin="-8" xMax="298" yMax="875">
      <component glyphName="C" x="0" y="0" flags="0x0"/>
      <component glyphName="uni0307.case" x="208" y="0" flags="0x0"/>
    </TTGlyph>
    <TTGlyph name="D" xMin="52" yMin="0" xMax="372" yMax="688">
      <contour>
        <pt x="52" y="688" on="1"/>
        <pt x="199" y="688" on="1"/>
        <pt x="282" y="688" on="0"/>
        <pt x="352" y="634" on="0"/>
        <pt x="372" y="500" on="0"/>
        <pt x="372" y="344" on="1"/>
        <pt x="372" y="189" on="0"/>
        <pt x="352" y="55" on="0"/>
        <pt x="281" y="0" on="0"/>
        <pt x="199" y="0" on="1"/>
        <pt x="52" y="0" on="1"/>
      </contour>
      <contour>
        <pt x="199" y="77" on="1"/>
        <pt x="242" y="77" on="0"/>
        <pt x="276" y="105" on="0"/>
        <pt x="288" y="211" on="0"/>
        <pt x="288" y="344" on="1"/>
        <pt x="288" y="477" on="0"/>
        <pt x="276" y="583" on="0"/>
        <pt x="242" y="611" on="0"/>
        <pt x="199" y="611" on="1"/>
        <pt x="136" y="611" on="1"/>
        <pt x="136" y="77" on="1"/>
      </contour>
    </TTGlyph>
    <TTGlyph name="Dcaron" xMin="52" yMin="0" xMax="372" yMax="888">
      <component glyphName="D" x="0" y="0" flags="0x0"/>
      <component glyphName="uni030C.case" x="316" y="0" flags="0x0"/>
    </TTGlyph>
    <TTGlyph name="Dcroat" xMin="6" yMin="0" xMax="372" yMax="688">
      <component glyphName="Eth" x="0" y="0" flags="0x0"/>
    </TTGlyph>
    <TTGlyph name="E" xMin="52" yMin="0" xMax="319" yMax="688">
      <contour>
        <pt x="52" y="688" on="1"/>
        <pt x="319" y="688" on="1"/>
        <pt x="319" y="611" on="1"/>
        <pt x="138" y="611" on="1"/>
        <pt x="138" y="386" on="1"/>
        <pt x="296" y="386" on="1"/>
        <pt x="296" y="309" on="1"/>
        <pt x="138" y="309" on="1"/>
        <pt x="138" y="77" on="1"/>
        <pt x="319" y="77" on="1"/>
        <pt x="319" y="0" on="1"/>
        <pt x="52" y="0" on="1"/>
      </contour>
    </TTGlyph>
    <TTGlyph name="Eacute" xMin="52" yMin="0" xMax="319" yMax="892">
      <component glyphName="E" x="0" y="0" flags="0x0"/>
      <component glyphName="acute" x="157" y="149" flags="0x4"/>
    </TTGlyph>
    <TTGlyph name="Ebreve" xMin="52" yMin="0" xMax="319" yMax="888">
      <component glyphName="E" x="0" y="0" flags="0x0"/>
      <component glyphName="uni0306.case" x="292" y="0" flags="0x0"/>
    </TTGlyph>
    <TTGlyph name="Ecaron" xMin="52" yMin="0" xMax="319" yMax="888">
      <component glyphName="E" x="0" y="0" flags="0x0"/>
      <component glyphName="uni030C.case" x="296" y="0" flags="0x0"/>
    </TTGlyph>
    <TTGlyph name="Ecircumflex" xMin="52" yMin="0" xMax="319" yMax="882">
      <component glyphName="E" x="0" y="0" flags="0x0"/>
      <component glyphName="circumflex" x="76" y="139" flags="0x4"/>
    </TTGlyph>
    <TTGlyph name="Edieresis" xMin="52" yMin="0" xMax="319" yMax="855">
      <component glyphName="E" x="0" y="0" flags="0x0"/>
      <component glyphName="dieresis" x="51" y="125" flags="0x4"/>
    </TTGlyph>
    <TTGlyph name="Edotaccent" xMin="52" yMin="0" xMax="319" yMax="875">
      <component glyphName="E" x="0" y="0" flags="0x0"/>
      <component glyphName="uni0307.case" x="233" y="0" flags="0x0"/>
    </TTGlyph>
    <TTGlyph name="Egrave" xMin="52" yMin="0" xMax="319" yMax="892">
      <component glyphName="E" x="0" y="0" flags="0x0"/>
      <component glyphName="grave" x="112" y="149" flags="0x4"/>
    </TTGlyph>
    <TTGlyph name="Emacron" xMin="52" yMin="0" xMax="319" yMax="888">
      <component glyphName="E" x="0" y="0" flags="0x0"/>
      <component glyphName="uni0304.case" x="324" y="0" flags="0x0"/>
    </TTGlyph>
    <TTGlyph name="Eng" xMin="52" yMin="-193" xMax="384" yMax="688">
      <contour>
        <pt x="384" y="688" on="1"/>
        <pt x="384" y="-54" on="1"/>
        <pt x="383" y="-118" on="0"/>
        <pt x="357" y="-176" on="0"/>
        <pt x="304" y="-193" on="0"/>
        <pt x="248" y="-193" on="1"/>
        <pt x="248" y="-131" on="1"/>
        <pt x="274" y="-131" on="0"/>
        <pt x="298" y="-121" on="0"/>
        <pt x="304" y="-99" on="0"/>
        <pt x="304" y="-76" on="1"/>
        <pt x="304" y="18" on="1"/>
        <pt x="137" y="475" on="1"/>
        <pt x="133" y="475" on="1"/>
        <pt x="133" y="0" on="1"/>
        <pt x="52" y="0" on="1"/>
        <pt x="52" y="688" on="1"/>
        <pt x="136" y="688" on="1"/>
        <pt x="299" y="233" on="1"/>
        <pt x="304" y="233" on="1"/>
        <pt x="304" y="688" on="1"/>
      </contour>
    </TTGlyph>
    <TTGlyph name="Eogonek" xMin="52" yMin="-196" xMax="319" yMax="688">
      <contour>
        <pt x="234" y="-196" on="0"/>
        <pt x="192" y="-153" on="0"/>
        <pt x="192" y="-120" on="1"/>
        <pt x="192" y="-88" on="0"/>
        <pt x="228" y="-26" on="0"/>
        <pt x="257" y="0" on="1"/>
        <pt x="52" y="0" on="1"/>
        <pt x="52" y="688" on="1"/>
        <pt x="319" y="688" on="1"/>
        <pt x="319" y="611" on="1"/>
        <pt x="138" y="611" on="1"/>
        <pt x="138" y="386" on="1"/>
        <pt x="296" y="386" on="1"/>
        <pt x="296" y="309" on="1"/>
        <pt x="138" y="309" on="1"/>
        <pt x="138" y="77" on="1"/>
        <pt x="319" y="77" on="1"/>
        <pt x="319" y="0" on="1"/>
        <pt x="297" y="-17" on="0"/>
        <pt x="257" y="-77" on="0"/>
        <pt x="257" y="-105" on="1"/>
        <pt x="257" y="-123" on="0"/>
        <pt x="276" y="-145" on="0"/>
        <pt x="298" y="-145" on="1"/>
        <pt x="312" y="-144" on="1"/>
        <pt x="312" y="-193" on="1"/>
        <pt x="297" y="-196" on="0"/>
        <pt x="278" y="-196" on="1"/>
      </contour>
    </TTGlyph>
    <TTGlyph name="Eth" xMin="6" yMin="0" xMax="372" yMax="688">
      <contour>
        <pt x="52" y="309" on="1"/>
        <pt x="6" y="309" on="1"/>
        <pt x="6" y="388" on="1"/>
        <pt x="52" y="388" on="1"/>
        <pt x="52" y="688" on="1"/>
        <pt x="199" y="688" on="1"/>
        <pt x="282" y="688" on="0"/>
        <pt x="352" y="634" on="0"/>
        <pt x="372" y="500" on="0"/>
        <pt x="372" y="344" on="1"/>
        <pt x="372" y="189" on="0"/>
        <pt x="352" y="55" on="0"/>
        <pt x="281" y="0" on="0"/>
        <pt x="199" y="0" on="1"/>
        <pt x="52" y="0" on="1"/>
      </contour>
      <contour>
        <pt x="242" y="77" on="0"/>
        <pt x="276" y="105" on="0"/>
        <pt x="288" y="211" on="0"/>
        <pt x="288" y="344" on="1"/>
        <pt x="288" y="477" on="0"/>
        <pt x="276" y="583" on="0"/>
        <pt x="242" y="611" on="0"/>
        <pt x="199" y="611" on="1"/>
        <pt x="136" y="611" on="1"/>
        <pt x="136" y="388" on="1"/>
        <pt x="218" y="388" on="1"/>
        <pt x="218" y="309" on="1"/>
        <pt x="136" y="309" on="1"/>
        <pt x="136" y="77" on="1"/>
        <pt x="199" y="77" on="1"/>
      </contour>
    </TTGlyph>
    <TTGlyph name="Euro" xMin="29" yMin="-8" xMax="334" yMax="696">
      <contour>
        <pt x="178" y="-8" on="0"/>
        <pt x="110" y="33" on="0"/>
        <pt x="80" y="138" on="0"/>
        <pt x="76" y="243" on="1"/>
        <pt x="29" y="243" on="1"/>
        <pt x="29" y="295" on="1"/>
        <pt x="75" y="295" on="1"/>
        <pt x="75" y="396" on="1"/>
        <pt x="29" y="396" on="1"/>
        <pt x="29" y="448" on="1"/>
        <pt x="77" y="448" on="1"/>
        <pt x="81" y="550" on="0"/>
        <pt x="111" y="654" on="0"/>
        <pt x="180" y="696" on="0"/>
        <pt x="245" y="696" on="1"/>
        <pt x="269" y="696" on="0"/>
        <pt x="318" y="688" on="0"/>
        <pt x="332" y="682" on="1"/>
        <pt x="332" y="611" on="1"/>
        <pt x="288" y="619" on="0"/>
        <pt x="260" y="619" on="1"/>
        <pt x="218" y="619" on="0"/>
        <pt x="179" y="596" on="0"/>
        <pt x="162" y="526" on="0"/>
        <pt x="160" y="448" on="1"/>
        <pt x="300" y="448" on="1"/>
        <pt x="300" y="396" on="1"/>
        <pt x="160" y="396" on="1"/>
        <pt x="160" y="295" on="1"/>
        <pt x="300" y="295" on="1"/>
        <pt x="300" y="243" on="1"/>
        <pt x="160" y="243" on="1"/>
        <pt x="162" y="164" on="0"/>
        <pt x="179" y="93" on="0"/>
        <pt x="218" y="69" on="0"/>
        <pt x="260" y="69" on="1"/>
        <pt x="294" y="69" on="0"/>
        <pt x="334" y="77" on="1"/>
        <pt x="334" y="6" on="1"/>
        <pt x="317" y="0" on="0"/>
        <pt x="267" y="-8" on="0"/>
        <pt x="245" y="-8" on="1"/>
      </contour>
    </TTGlyph>
    <TTGlyph name="F" xMin="52" yMin="0" xMax="306" yMax="688">
      <contour>
        <pt x="52" y="688" on="1"/>
        <pt x="306" y="688" on="1"/>
        <pt x="306" y="611" on="1"/>
        <pt x="138" y="611" on="1"/>
        <pt x="138" y="372" on="1"/>
        <pt x="287" y="372" on="1"/>
        <pt x="287" y="295" on="1"/>
        <pt x="138" y="295" on="1"/>
        <pt x="138" y="0" on="1"/>
        <pt x="52" y="0" on="1"/>
      </contour>
    </TTGlyph>
    <TTGlyph name="G" xMin="39" yMin="-8" xMax="361" yMax="696">
      <contour>
        <pt x="210" y="299" on="1"/>
        <pt x="210" y="375" on="1"/>
        <pt x="361" y="375" on="1"/>
        <pt x="361" y="11" on="1"/>
        <pt x="331" y="3" on="0"/>
        <pt x="252" y="-8" on="0"/>
        <pt x="219" y="-8" on="1"/>
        <pt x="143" y="-8" on="0"/>
        <pt x="68" y="46" on="0"/>
        <pt x="39" y="193" on="0"/>
        <pt x="39" y="344" on="1"/>
        <pt x="39" y="495" on="0"/>
        <pt x="69" y="641" on="0"/>
        <pt x="146" y="696" on="0"/>
        <pt x="226" y="696" on="1"/>
        <pt x="259" y="696" on="0"/>
        <pt x="334" y="686" on="0"/>
        <pt x="360" y="677" on="1"/>
        <pt x="360" y="606" on="1"/>
        <pt x="289" y="619" on="0"/>
        <pt x="253" y="619" on="1"/>
        <pt x="191" y="619" on="0"/>
        <pt x="142" y="591" on="0"/>
        <pt x="123" y="480" on="0"/>
        <pt x="123" y="344" on="1"/>
        <pt x="123" y="217" on="0"/>
        <pt x="136" y="106" on="0"/>
        <pt x="175" y="67" on="0"/>
        <pt x="221" y="67" on="1"/>
        <pt x="255" y="67" on="0"/>
        <pt x="283" y="75" on="1"/>
        <pt x="283" y="299" on="1"/>
      </contour>
    </TTGlyph>
    <TTGlyph name="G.ss01" xMin="39" yMin="-8" xMax="374" yMax="696">
      <contour>
        <pt x="138" y="-8" on="0"/>
        <pt x="65" y="46" on="0"/>
        <pt x="39" y="190" on="0"/>
        <pt x="39" y="344" on="1"/>
        <pt x="39" y="497" on="0"/>
        <pt x="69" y="643" on="0"/>
        <pt x="148" y="696" on="0"/>
        <pt x="231" y="696" on="1"/>
        <pt x="262" y="696" on="0"/>
        <pt x="336" y="685" on="0"/>
        <pt x="362" y="677" on="1"/>
        <pt x="362" y="606" on="1"/>
        <pt x="291" y="619" on="0"/>
        <pt x="252" y="619" on="1"/>
        <pt x="190" y="619" on="0"/>
        <pt x="141" y="589" on="0"/>
        <pt x="124" y="480" on="0"/>
        <pt x="124" y="344" on="1"/>
        <pt x="124" y="212" on="0"/>
        <pt x="136" y="103" on="0"/>
        <pt x="172" y="69" on="0"/>
        <pt x="215" y="69" on="1"/>
        <pt x="254" y="69" on="0"/>
        <pt x="284" y="93" on="0"/>
        <pt x="293" y="170" on="0"/>
        <pt x="293" y="273" on="1"/>
        <pt x="293" y="305" on="1"/>
        <pt x="216" y="305" on="1"/>
        <pt x="216" y="380" on="1"/>
        <pt x="374" y="380" on="1"/>
        <pt x="374" y="281" on="1"/>
        <pt x="374" y="153" on="0"/>
        <pt x="358" y="42" on="0"/>
        <pt x="293" y="-8" on="0"/>
        <pt x="217" y="-8" on="1"/>
      </contour>
    </TTGlyph>
    <TTGlyph name="G_tilde.loclGUA" xMin="39" yMin="-8" xMax="361" yMax="888">
      <component glyphName="G" x="0" y="0" flags="0x0"/>
      <component glyphName="tildecomb.case" x="326" y="0" flags="0x0"/>
    </TTGlyph>
    <TTGlyph name="Gbreve" xMin="39" yMin="-8" xMax="361" yMax="888">
      <component glyphName="G" x="0" y="0" flags="0x0"/>
      <component glyphName="uni0306.case" x="306" y="0" flags="0x0"/>
    </TTGlyph>
    <TTGlyph name="Gbreve.ss01" xMin="39" yMin="-8" xMax="374" yMax="888">
      <component glyphName="G.ss01" x="0" y="0" flags="0x0"/>
      <component glyphName="uni0306.case" x="312" y="0" flags="0x0"/>
    </TTGlyph>
    <TTGlyph name="Gcaron" xMin="39" yMin="-8" xMax="361" yMax="888">
      <component glyphName="G" x="0" y="0" flags="0x0"/>
      <component glyphName="uni030C.case" x="310" y="0" flags="0x0"/>
    </TTGlyph>
    <TTGlyph name="Gcaron.ss01" xMin="39" yMin="-8" xMax="374" yMax="888">
      <component glyphName="G.ss01" x="0" y="0" flags="0x0"/>
      <component glyphName="uni030C.case" x="316" y="0" flags="0x0"/>
    </TTGlyph>
    <TTGlyph name="Gcircumflex" xMin="39" yMin="-8" xMax="361" yMax="888">
      <component glyphName="G" x="0" y="0" flags="0x0"/>
      <component glyphName="uni0302.case" x="310" y="0" flags="0x0"/>
    </TTGlyph>
    <TTGlyph name="Gcircumflex.ss01" xMin="39" yMin="-8" xMax="374" yMax="888">
      <component glyphName="G.ss01" x="0" y="0" flags="0x0"/>
      <component glyphName="uni0302.case" x="316" y="0" flags="0x0"/>
    </TTGlyph>
    <TTGlyph name="Gcommaaccent" xMin="39" yMin="-254" xMax="361" yMax="696">
      <component glyphName="G" x="0" y="0" flags="0x0"/>
      <component glyphName="uni0326" x="291" y="0" flags="0x0"/>
    </TTGlyph>
    <TTGlyph name="Gcommaaccent.ss01" xMin="39" yMin="-254" xMax="374" yMax="696">
      <component glyphName="G.ss01" x="0" y="0" flags="0x0"/>
      <component glyphName="uni0326" x="297" y="0" flags="0x0"/>
    </TTGlyph>
    <TTGlyph name="Gdotaccent" xMin="39" yMin="-8" xMax="361" yMax="875">
      <component glyphName="G" x="0" y="0" flags="0x0"/>
      <component glyphName="uni0307.case" x="247" y="0" flags="0x0"/>
    </TTGlyph>
    <TTGlyph name="Gdotaccent.ss01" xMin="39" yMin="-8" xMax="374" yMax="875">
      <component glyphName="G.ss01" x="0" y="0" flags="0x0"/>
      <component glyphName="uni0307.case" x="253" y="0" flags="0x0"/>
    </TTGlyph>
    <TTGlyph name="Gtilde.loclGUA.ss01" xMin="39" yMin="-8" xMax="374" yMax="888">
      <component glyphName="G.ss01" x="0" y="0" flags="0x0"/>
      <component glyphName="tildecomb.case" x="332" y="0" flags="0x0"/>
    </TTGlyph>
    <TTGlyph name="H" xMin="52" yMin="0" xMax="382" yMax="688">
      <contour>
        <pt x="298" y="307" on="1"/>
        <pt x="137" y="307" on="1"/>
        <pt x="137" y="0" on="1"/>
        <pt x="52" y="0" on="1"/>
        <pt x="52" y="688" on="1"/>
        <pt x="137" y="688" on="1"/>
        <pt x="137" y="388" on="1"/>
        <pt x="298" y="388" on="1"/>
        <pt x="298" y="688" on="1"/>
        <pt x="382" y="688" on="1"/>
        <pt x="382" y="0" on="1"/>
        <pt x="298" y="0" on="1"/>
      </contour>
    </TTGlyph>
    <TTGlyph name="Hbar" xMin="52" yMin="0" xMax="382" yMax="688">
      <contour>
        <pt x="382" y="688" on="1"/>
        <pt x="382" y="0" on="1"/>
        <pt x="298" y="0" on="1"/>
        <pt x="298" y="279" on="1"/>
        <pt x="137" y="279" on="1"/>
        <pt x="137" y="0" on="1"/>
        <pt x="52" y="0" on="1"/>
        <pt x="52" y="688" on="1"/>
        <pt x="137" y="688" on="1"/>
        <pt x="137" y="564" on="1"/>
        <pt x="298" y="564" on="1"/>
        <pt x="298" y="688" on="1"/>
      </contour>
      <contour>
        <pt x="298" y="359" on="1"/>
        <pt x="298" y="485" on="1"/>
        <pt x="137" y="485" on="1"/>
        <pt x="137" y="359" on="1"/>
      </contour>
    </TTGlyph>
    <TTGlyph name="Hcircumflex" xMin="52" yMin="0" xMax="382" yMax="888">
      <component glyphName="H" x="0" y="0" flags="0x0"/>
      <component glyphName="uni0302.case" x="327" y="0" flags="0x0"/>
    </TTGlyph>
    <TTGlyph name="I" xMin="55" yMin="0" xMax="140" yMax="688">
      <contour>
        <pt x="55" y="688" on="1"/>
        <pt x="140" y="688" on="1"/>
        <pt x="140" y="0" on="1"/>
        <pt x="55" y="0" on="1"/>
      </contour>
    </TTGlyph>
    <TTGlyph name="IJ" xMin="55" yMin="0" xMax="364" yMax="688">
      <component glyphName="I" x="0" y="0" flags="0x0"/>
      <component glyphName="J" x="196" y="0" flags="0x0"/>
    </TTGlyph>
    <TTGlyph name="Iacute" xMin="55" yMin="0" xMax="173" yMax="892">
      <component glyphName="I" x="0" y="0" flags="0x0"/>
      <component glyphName="acute" x="57" y="149" flags="0x4"/>
    </TTGlyph>
    <TTGlyph name="Iacute_J.loclNLD" xMin="55" yMin="0" xMax="407" yMax="888">
      <component glyphName="I" x="0" y="0" flags="0x0"/>
      <component glyphName="acutecomb.case" x="183" y="0" flags="0x0"/>
      <component glyphName="J" x="196" y="0" flags="0x0"/>
      <component glyphName="acutecomb.case" x="407" y="0" flags="0x0"/>
    </TTGlyph>
    <TTGlyph name="Ibreve" xMin="-10" yMin="0" xMax="204" yMax="888">
      <component glyphName="I" x="0" y="0" flags="0x0"/>
      <component glyphName="uni0306.case" x="204" y="0" flags="0x0"/>
    </TTGlyph>
    <TTGlyph name="Icircumflex" xMin="-12" yMin="0" xMax="208" yMax="882">
      <component glyphName="I" x="0" y="0" flags="0x0"/>
      <component glyphName="circumflex" x="-12" y="139" flags="0x4"/>
    </TTGlyph>
    <TTGlyph name="Idieresis" xMin="-23" yMin="0" xMax="219" yMax="855">
      <component glyphName="I" x="0" y="0" flags="0x0"/>
      <component glyphName="dieresis" x="-38" y="125" flags="0x4"/>
    </TTGlyph>
    <TTGlyph name="Idotaccent" xMin="55" yMin="0" xMax="140" yMax="875">
      <component glyphName="I" x="0" y="0" flags="0x0"/>
      <component glyphName="uni0307.case" x="145" y="0" flags="0x0"/>
    </TTGlyph>
    <TTGlyph name="Igrave" xMin="24" yMin="0" xMax="140" yMax="892">
      <component glyphName="I" x="0" y="0" flags="0x0"/>
      <component glyphName="grave" x="24" y="149" flags="0x4"/>
    </TTGlyph>
    <TTGlyph name="Imacron" xMin="13" yMin="0" xMax="183" yMax="888">
      <component glyphName="I" x="0" y="0" flags="0x0"/>
      <component glyphName="uni0304.case" x="236" y="0" flags="0x0"/>
    </TTGlyph>
    <TTGlyph name="Iogonek" xMin="21" yMin="-196" xMax="141" yMax="688">
      <contour>
        <pt x="62" y="-196" on="0"/>
        <pt x="21" y="-152" on="0"/>
        <pt x="21" y="-116" on="1"/>
        <pt x="21" y="-88" on="0"/>
        <pt x="53" y="-25" on="0"/>
        <pt x="79" y="0" on="1"/>
        <pt x="55" y="0" on="1"/>
        <pt x="55" y="688" on="1"/>
        <pt x="140" y="688" on="1"/>
        <pt x="140" y="0" on="1"/>
        <pt x="121" y="-18" on="0"/>
        <pt x="86" y="-78" on="0"/>
        <pt x="86" y="-103" on="1"/>
        <pt x="86" y="-145" on="0"/>
        <pt x="127" y="-145" on="1"/>
        <pt x="141" y="-144" on="1"/>
        <pt x="141" y="-193" on="1"/>
        <pt x="124" y="-196" on="0"/>
        <pt x="106" y="-196" on="1"/>
      </contour>
    </TTGlyph>
    <TTGlyph name="Itilde" xMin="-29" yMin="0" xMax="224" yMax="888">
      <component glyphName="I" x="0" y="0" flags="0x0"/>
      <component glyphName="tildecomb.case" x="224" y="0" flags="0x0"/>
    </TTGlyph>
    <TTGlyph name="J" xMin="8" yMin="0" xMax="168" yMax="688">
      <contour>
        <pt x="48" y="75" on="0"/>
        <pt x="76" y="92" on="0"/>
        <pt x="84" y="150" on="0"/>
        <pt x="84" y="232" on="1"/>
        <pt x="84" y="688" on="1"/>
        <pt x="168" y="688" on="1"/>
        <pt x="168" y="267" on="1"/>
        <pt x="168" y="131" on="0"/>
        <pt x="151" y="30" on="0"/>
        <pt x="90" y="1" on="0"/>
        <pt x="8" y="0" on="1"/>
        <pt x="8" y="74" on="1"/>
      </contour>
    </TTGlyph>
    <TTGlyph name="Jcircumflex" xMin="8" yMin="0" xMax="236" yMax="888">
      <component glyphName="J" x="0" y="0" flags="0x0"/>
      <component glyphName="uni0302.case" x="236" y="0" flags="0x0"/>
    </TTGlyph>
    <TTGlyph name="K" xMin="52" yMin="0" xMax="390" yMax="688">
      <contour>
        <pt x="193" y="309" on="1"/>
        <pt x="137" y="309" on="1"/>
        <pt x="137" y="0" on="1"/>
        <pt x="52" y="0" on="1"/>
        <pt x="52" y="688" on="1"/>
        <pt x="137" y="688" on="1"/>
        <pt x="137" y="389" on="1"/>
        <pt x="193" y="389" on="1"/>
        <pt x="301" y="688" on="1"/>
        <pt x="388" y="688" on="1"/>
        <pt x="260" y="353" on="1"/>
        <pt x="390" y="0" on="1"/>
        <pt x="301" y="0" on="1"/>
      </contour>
    </TTGlyph>
    <TTGlyph name="Kcommaaccent" xMin="52" yMin="-254" xMax="390" yMax="688">
      <component glyphName="K" x="0" y="0" flags="0x0"/>
      <component glyphName="uni0326" x="291" y="0" flags="0x0"/>
    </TTGlyph>
    <TTGlyph name="L" xMin="52" yMin="0" xMax="300" yMax="688">
      <contour>
        <pt x="52" y="688" on="1"/>
        <pt x="138" y="688" on="1"/>
        <pt x="138" y="79" on="1"/>
        <pt x="300" y="79" on="1"/>
        <pt x="300" y="0" on="1"/>
        <pt x="52" y="0" on="1"/>
      </contour>
    </TTGlyph>
    <TTGlyph name="Lacute" xMin="52" yMin="0" xMax="300" yMax="888">
      <component glyphName="L" x="0" y="0" flags="0x0"/>
      <component glyphName="acutecomb.case" x="180" y="0" flags="0x0"/>
    </TTGlyph>
    <TTGlyph name="Lcaron" xMin="52" yMin="0" xMax="300" yMax="688">
      <component glyphName="L" x="0" y="0" flags="0x0"/>
      <component glyphName="caron.loclCSY" x="174" y="0" flags="0x0"/>
    </TTGlyph>
    <TTGlyph name="Lcommaaccent" xMin="52" yMin="-254" xMax="300" yMax="688">
      <component glyphName="L" x="0" y="0" flags="0x0"/>
      <component glyphName="uni0326" x="252" y="0" flags="0x0"/>
    </TTGlyph>
    <TTGlyph name="Ldot" xMin="52" yMin="0" xMax="315" yMax="688">
      <component glyphName="L" x="0" y="0" flags="0x0"/>
      <component glyphName="periodcentered" x="175" y="68" flags="0x4"/>
    </TTGlyph>
    <TTGlyph name="Lslash" xMin="12" yMin="0" xMax="300" yMax="688">
      <contour>
        <pt x="300" y="79" on="1"/>
        <pt x="300" y="0" on="1"/>
        <pt x="52" y="0" on="1"/>
        <pt x="52" y="273" on="1"/>
        <pt x="12" y="258" on="1"/>
        <pt x="12" y="331" on="1"/>
        <pt x="52" y="346" on="1"/>
        <pt x="52" y="688" on="1"/>
        <pt x="138" y="688" on="1"/>
        <pt x="138" y="378" on="1"/>
        <pt x="245" y="418" on="1"/>
        <pt x="245" y="344" on="1"/>
        <pt x="138" y="305" on="1"/>
        <pt x="138" y="79" on="1"/>
      </contour>
    </TTGlyph>
    <TTGlyph name="M" xMin="52" yMin="0" xMax="528" yMax="688">
      <contour>
        <pt x="446" y="558" on="1"/>
        <pt x="441" y="558" on="1"/>
        <pt x="333" y="0" on="1"/>
        <pt x="245" y="0" on="1"/>
        <pt x="139" y="558" on="1"/>
        <pt x="133" y="558" on="1"/>
        <pt x="133" y="0" on="1"/>
        <pt x="52" y="0" on="1"/>
        <pt x="52" y="688" on="1"/>
        <pt x="182" y="688" on="1"/>
        <pt x="289" y="135" on="1"/>
        <pt x="295" y="135" on="1"/>
        <pt x="402" y="688" on="1"/>
        <pt x="528" y="688" on="1"/>
        <pt x="528" y="0" on="1"/>
        <pt x="446" y="0" on="1"/>
      </contour>
    </TTGlyph>
    <TTGlyph name="N" xMin="52" yMin="0" xMax="384" yMax="688">
      <contour>
        <pt x="137" y="475" on="1"/>
        <pt x="133" y="475" on="1"/>
        <pt x="133" y="0" on="1"/>
        <pt x="52" y="0" on="1"/>
        <pt x="52" y="688" on="1"/>
        <pt x="136" y="688" on="1"/>
        <pt x="299" y="228" on="1"/>
        <pt x="304" y="228" on="1"/>
        <pt x="304" y="688" on="1"/>
        <pt x="384" y="688" on="1"/>
        <pt x="384" y="0" on="1"/>
        <pt x="305" y="0" on="1"/>
      </contour>
    </TTGlyph>
    <TTGlyph name="Nacute" xMin="52" yMin="0" xMax="384" yMax="888">
      <component glyphName="N" x="0" y="0" flags="0x0"/>
      <component glyphName="acutecomb.case" x="304" y="0" flags="0x0"/>
    </TTGlyph>
    <TTGlyph name="Nacute.loclPLK" xMin="52" yMin="0" xMax="384" yMax="888">
      <component glyphName="N" x="0" y="0" flags="0x0"/>
      <component glyphName="acute.case.loclPLK" x="188" y="0" flags="0x0"/>
    </TTGlyph>
    <TTGlyph name="Ncaron" xMin="52" yMin="0" xMax="384" yMax="888">
      <component glyphName="N" x="0" y="0" flags="0x0"/>
      <component glyphName="uni030C.case" x="329" y="0" flags="0x0"/>
    </TTGlyph>
    <TTGlyph name="Ncommaaccent" xMin="52" yMin="-254" xMax="384" yMax="688">
      <component glyphName="N" x="0" y="0" flags="0x0"/>
      <component glyphName="uni0326" x="310" y="0" flags="0x0"/>
    </TTGlyph>
    <TTGlyph name="Ntilde" xMin="52" yMin="0" xMax="384" yMax="873">
      <component glyphName="N" x="0" y="0" flags="0x0"/>
      <component glyphName="tilde" x="92" y="130" flags="0x4"/>
    </TTGlyph>
    <TTGlyph name="O" xMin="39" yMin="-8" xMax="385" yMax="696">
      <contour>
        <pt x="130" y="-8" on="0"/>
        <pt x="59" y="48" on="0"/>
        <pt x="39" y="186" on="0"/>
        <pt x="39" y="344" on="1"/>
        <pt x="39" y="502" on="0"/>
        <pt x="59" y="640" on="0"/>
        <pt x="130" y="696" on="0"/>
        <pt x="212" y="696" on="1"/>
        <pt x="295" y="696" on="0"/>
        <pt x="365" y="640" on="0"/>
        <pt x="385" y="503" on="0"/>
        <pt x="385" y="344" on="1"/>
        <pt x="385" y="185" on="0"/>
        <pt x="365" y="48" on="0"/>
        <pt x="295" y="-8" on="0"/>
        <pt x="212" y="-8" on="1"/>
      </contour>
      <contour>
        <pt x="255" y="69" on="0"/>
        <pt x="288" y="98" on="0"/>
        <pt x="300" y="207" on="0"/>
        <pt x="300" y="344" on="1"/>
        <pt x="300" y="481" on="0"/>
        <pt x="288" y="590" on="0"/>
        <pt x="255" y="619" on="0"/>
        <pt x="212" y="619" on="1"/>
        <pt x="169" y="619" on="0"/>
        <pt x="136" y="590" on="0"/>
        <pt x="124" y="481" on="0"/>
        <pt x="124" y="344" on="1"/>
        <pt x="124" y="207" on="0"/>
        <pt x="136" y="98" on="0"/>
        <pt x="169" y="69" on="0"/>
        <pt x="212" y="69" on="1"/>
      </contour>
    </TTGlyph>
    <TTGlyph name="OE" xMin="39" yMin="0" xMax="571" yMax="688">
      <contour>
        <pt x="130" y="0" on="0"/>
        <pt x="59" y="55" on="0"/>
        <pt x="39" y="189" on="0"/>
        <pt x="39" y="344" on="1"/>
        <pt x="39" y="499" on="0"/>
        <pt x="59" y="634" on="0"/>
        <pt x="130" y="688" on="0"/>
        <pt x="212" y="688" on="1"/>
        <pt x="571" y="688" on="1"/>
        <pt x="571" y="611" on="1"/>
        <pt x="401" y="611" on="1"/>
        <pt x="373" y="611" on="0"/>
        <pt x="349" y="615" on="1"/>
        <pt x="369" y="589" on="0"/>
        <pt x="383" y="485" on="0"/>
        <pt x="385" y="386" on="1"/>
        <pt x="548" y="386" on="1"/>
        <pt x="548" y="309" on="1"/>
        <pt x="385" y="309" on="1"/>
        <pt x="384" y="207" on="0"/>
        <pt x="370" y="99" on="0"/>
        <pt x="349" y="73" on="1"/>
        <pt x="371" y="77" on="0"/>
        <pt x="401" y="77" on="1"/>
        <pt x="571" y="77" on="1"/>
        <pt x="571" y="0" on="1"/>
        <pt x="212" y="0" on="1"/>
      </contour>
      <contour>
        <pt x="255" y="77" on="0"/>
        <pt x="288" y="105" on="0"/>
        <pt x="300" y="211" on="0"/>
        <pt x="300" y="344" on="1"/>
        <pt x="300" y="477" on="0"/>
        <pt x="288" y="583" on="0"/>
        <pt x="255" y="611" on="0"/>
        <pt x="212" y="611" on="1"/>
        <pt x="169" y="611" on="0"/>
        <pt x="136" y="583" on="0"/>
        <pt x="124" y="477" on="0"/>
        <pt x="124" y="344" on="1"/>
        <pt x="124" y="211" on="0"/>
        <pt x="136" y="105" on="0"/>
        <pt x="169" y="77" on="0"/>
        <pt x="212" y="77" on="1"/>
      </contour>
    </TTGlyph>
    <TTGlyph name="Oacute" xMin="39" yMin="-8" xMax="385" yMax="892">
      <component glyphName="O" x="0" y="0" flags="0x0"/>
      <component glyphName="acute" x="176" y="149" flags="0x4"/>
    </TTGlyph>
    <TTGlyph name="Oacute.loclPLK" xMin="39" yMin="-8" xMax="385" yMax="888">
      <component glyphName="O" x="0" y="0" flags="0x0"/>
      <component glyphName="acute.case.loclPLK" x="181" y="0" flags="0x0"/>
    </TTGlyph>
    <TTGlyph name="Obreve" xMin="39" yMin="-8" xMax="385" yMax="888">
      <component glyphName="O" x="0" y="0" flags="0x0"/>
      <component glyphName="uni0306.case" x="318" y="0" flags="0x0"/>
    </TTGlyph>
    <TTGlyph name="Ocircumflex" xMin="39" yMin="-8" xMax="385" yMax="882">
      <component glyphName="O" x="0" y="0" flags="0x0"/>
      <component glyphName="circumflex" x="102" y="139" flags="0x4"/>
    </TTGlyph>
    <TTGlyph name="Odieresis" xMin="39" yMin="-8" xMax="385" yMax="855">
      <component glyphName="O" x="0" y="0" flags="0x0"/>
      <component glyphName="dieresis" x="76" y="125" flags="0x4"/>
    </TTGlyph>
    <TTGlyph name="Ograve" xMin="39" yMin="-8" xMax="385" yMax="892">
      <component glyphName="O" x="0" y="0" flags="0x0"/>
      <component glyphName="grave" x="131" y="149" flags="0x4"/>
    </TTGlyph>
    <TTGlyph name="Ohorn" xMin="39" yMin="-8" xMax="418" yMax="782">
      <contour>
        <pt x="418" y="782" on="1"/>
        <pt x="418" y="755" on="1"/>
        <pt x="418" y="697" on="0"/>
        <pt x="391" y="651" on="0"/>
        <pt x="349" y="647" on="1"/>
        <pt x="372" y="613" on="0"/>
        <pt x="385" y="481" on="0"/>
        <pt x="385" y="344" on="1"/>
        <pt x="385" y="185" on="0"/>
        <pt x="365" y="48" on="0"/>
        <pt x="295" y="-8" on="0"/>
        <pt x="212" y="-8" on="1"/>
        <pt x="130" y="-8" on="0"/>
        <pt x="59" y="48" on="0"/>
        <pt x="39" y="186" on="0"/>
        <pt x="39" y="344" on="1"/>
        <pt x="39" y="502" on="0"/>
        <pt x="59" y="640" on="0"/>
        <pt x="130" y="696" on="0"/>
        <pt x="212" y="696" on="1"/>
        <pt x="261" y="696" on="0"/>
        <pt x="289" y="688" on="1"/>
        <pt x="315" y="688" on="1"/>
        <pt x="345" y="688" on="0"/>
        <pt x="362" y="712" on="0"/>
        <pt x="362" y="744" on="1"/>
        <pt x="362" y="782" on="1"/>
      </contour>
      <contour>
        <pt x="255" y="69" on="0"/>
        <pt x="288" y="98" on="0"/>
        <pt x="300" y="207" on="0"/>
        <pt x="300" y="344" on="1"/>
        <pt x="300" y="481" on="0"/>
        <pt x="288" y="590" on="0"/>
        <pt x="255" y="619" on="0"/>
        <pt x="212" y="619" on="1"/>
        <pt x="169" y="619" on="0"/>
        <pt x="136" y="590" on="0"/>
        <pt x="124" y="481" on="0"/>
        <pt x="124" y="344" on="1"/>
        <pt x="124" y="207" on="0"/>
        <pt x="136" y="98" on="0"/>
        <pt x="169" y="69" on="0"/>
        <pt x="212" y="69" on="1"/>
      </contour>
    </TTGlyph>
    <TTGlyph name="Ohungarumlaut" xMin="39" yMin="-8" xMax="385" yMax="874">
      <component glyphName="O" x="0" y="0" flags="0x0"/>
      <component glyphName="uni030B.case" x="360" y="0" flags="0x0"/>
    </TTGlyph>
    <TTGlyph name="Omacron" xMin="39" yMin="-8" xMax="385" yMax="888">
      <component glyphName="O" x="0" y="0" flags="0x0"/>
      <component glyphName="uni0304.case" x="350" y="0" flags="0x0"/>
    </TTGlyph>
    <TTGlyph name="Oslash" xMin="39" yMin="-55" xMax="385" yMax="743">
      <contour>
        <pt x="351" y="644" on="1"/>
        <pt x="373" y="610" on="0"/>
        <pt x="385" y="479" on="0"/>
        <pt x="385" y="344" on="1"/>
        <pt x="385" y="185" on="0"/>
        <pt x="365" y="48" on="0"/>
        <pt x="295" y="-8" on="0"/>
        <pt x="212" y="-8" on="1"/>
        <pt x="164" y="-8" on="0"/>
        <pt x="132" y="1" on="1"/>
        <pt x="113" y="-55" on="1"/>
        <pt x="39" y="-55" on="1"/>
        <pt x="73" y="44" on="1"/>
        <pt x="51" y="78" on="0"/>
        <pt x="39" y="209" on="0"/>
        <pt x="39" y="344" on="1"/>
        <pt x="39" y="502" on="0"/>
        <pt x="59" y="640" on="0"/>
        <pt x="130" y="696" on="0"/>
        <pt x="212" y="696" on="1"/>
        <pt x="260" y="696" on="0"/>
        <pt x="293" y="687" on="1"/>
        <pt x="312" y="743" on="1"/>
        <pt x="385" y="743" on="1"/>
      </contour>
      <contour>
        <pt x="255" y="69" on="0"/>
        <pt x="288" y="98" on="0"/>
        <pt x="300" y="207" on="0"/>
        <pt x="300" y="344" on="1"/>
        <pt x="300" y="481" on="0"/>
        <pt x="288" y="590" on="0"/>
        <pt x="255" y="619" on="0"/>
        <pt x="212" y="619" on="1"/>
        <pt x="169" y="619" on="0"/>
        <pt x="136" y="590" on="0"/>
        <pt x="124" y="481" on="0"/>
        <pt x="124" y="344" on="1"/>
        <pt x="124" y="207" on="0"/>
        <pt x="136" y="98" on="0"/>
        <pt x="169" y="69" on="0"/>
        <pt x="212" y="69" on="1"/>
      </contour>
    </TTGlyph>
    <TTGlyph name="Oslash.bold" xMin="39" yMin="-55" xMax="385" yMax="743">
      <contour>
        <pt x="351" y="644" on="1"/>
        <pt x="373" y="609" on="0"/>
        <pt x="385" y="479" on="0"/>
        <pt x="385" y="344" on="1"/>
        <pt x="385" y="185" on="0"/>
        <pt x="365" y="48" on="0"/>
        <pt x="295" y="-8" on="0"/>
        <pt x="212" y="-8" on="1"/>
        <pt x="164" y="-8" on="0"/>
        <pt x="132" y="1" on="1"/>
        <pt x="113" y="-55" on="1"/>
        <pt x="39" y="-55" on="1"/>
        <pt x="73" y="45" on="1"/>
        <pt x="51" y="79" on="0"/>
        <pt x="39" y="210" on="0"/>
        <pt x="39" y="344" on="1"/>
        <pt x="39" y="502" on="0"/>
        <pt x="59" y="640" on="0"/>
        <pt x="130" y="696" on="0"/>
        <pt x="212" y="696" on="1"/>
        <pt x="260" y="696" on="0"/>
        <pt x="293" y="687" on="1"/>
        <pt x="312" y="743" on="1"/>
        <pt x="385" y="743" on="1"/>
      </contour>
      <contour>
        <pt x="124" y="235" on="0"/>
        <pt x="126" y="198" on="1"/>
        <pt x="267" y="611" on="1"/>
        <pt x="258" y="616" on="0"/>
        <pt x="234" y="619" on="0"/>
        <pt x="212" y="619" on="1"/>
        <pt x="169" y="619" on="0"/>
        <pt x="136" y="590" on="0"/>
        <pt x="124" y="481" on="0"/>
        <pt x="124" y="344" on="1"/>
      </contour>
      <contour>
        <pt x="300" y="452" on="0"/>
        <pt x="299" y="489" on="1"/>
        <pt x="158" y="77" on="1"/>
        <pt x="167" y="72" on="0"/>
        <pt x="190" y="69" on="0"/>
        <pt x="212" y="69" on="1"/>
        <pt x="255" y="69" on="0"/>
        <pt x="288" y="98" on="0"/>
        <pt x="300" y="207" on="0"/>
        <pt x="300" y="344" on="1"/>
      </contour>
    </TTGlyph>
    <TTGlyph name="Oslashacute" xMin="39" yMin="-55" xMax="385" yMax="888">
      <component glyphName="Oslash" x="0" y="0" flags="0x0"/>
      <component glyphName="acutecomb.case" x="281" y="0" flags="0x0"/>
    </TTGlyph>
    <TTGlyph name="Otilde" xMin="39" yMin="-8" xMax="385" yMax="873">
      <component glyphName="O" x="0" y="0" flags="0x0"/>
      <component glyphName="tilde" x="86" y="130" flags="0x4"/>
    </TTGlyph>
    <TTGlyph name="P" xMin="52" yMin="0" xMax="370" yMax="688">
      <contour>
        <pt x="52" y="688" on="1"/>
        <pt x="222" y="688" on="1"/>
        <pt x="286" y="688" on="0"/>
        <pt x="351" y="635" on="0"/>
        <pt x="370" y="543" on="0"/>
        <pt x="370" y="467" on="1"/>
        <pt x="370" y="394" on="0"/>
        <pt x="351" y="302" on="0"/>
        <pt x="286" y="246" on="0"/>
        <pt x="222" y="246" on="1"/>
        <pt x="137" y="246" on="1"/>
        <pt x="137" y="0" on="1"/>
        <pt x="52" y="0" on="1"/>
      </contour>
      <contour>
        <pt x="210" y="323" on="1"/>
        <pt x="244" y="323" on="0"/>
        <pt x="276" y="351" on="0"/>
        <pt x="285" y="409" on="0"/>
        <pt x="285" y="467" on="1"/>
        <pt x="285" y="525" on="0"/>
        <pt x="276" y="583" on="0"/>
        <pt x="244" y="611" on="0"/>
        <pt x="210" y="611" on="1"/>
        <pt x="137" y="611" on="1"/>
        <pt x="137" y="323" on="1"/>
      </contour>
    </TTGlyph>
    <TTGlyph name="Q" xMin="39" yMin="-115" xMax="410" yMax="696">
      <contour>
        <pt x="265" y="-3" on="1"/>
        <pt x="248" y="-8" on="0"/>
        <pt x="212" y="-8" on="1"/>
        <pt x="130" y="-8" on="0"/>
        <pt x="59" y="48" on="0"/>
        <pt x="39" y="186" on="0"/>
        <pt x="39" y="344" on="1"/>
        <pt x="39" y="502" on="0"/>
        <pt x="59" y="640" on="0"/>
        <pt x="130" y="696" on="0"/>
        <pt x="212" y="696" on="1"/>
        <pt x="295" y="696" on="0"/>
        <pt x="365" y="640" on="0"/>
        <pt x="385" y="503" on="0"/>
        <pt x="385" y="344" on="1"/>
        <pt x="385" y="195" on="0"/>
        <pt x="367" y="59" on="0"/>
        <pt x="336" y="27" on="1"/>
        <pt x="410" y="-112" on="1"/>
        <pt x="410" y="-115" on="1"/>
        <pt x="322" y="-115" on="1"/>
      </contour>
      <contour>
        <pt x="255" y="69" on="0"/>
        <pt x="288" y="98" on="0"/>
        <pt x="300" y="207" on="0"/>
        <pt x="300" y="344" on="1"/>
        <pt x="300" y="481" on="0"/>
        <pt x="288" y="590" on="0"/>
        <pt x="255" y="619" on="0"/>
        <pt x="212" y="619" on="1"/>
        <pt x="169" y="619" on="0"/>
        <pt x="136" y="590" on="0"/>
        <pt x="124" y="481" on="0"/>
        <pt x="124" y="344" on="1"/>
        <pt x="124" y="207" on="0"/>
        <pt x="136" y="98" on="0"/>
        <pt x="169" y="69" on="0"/>
        <pt x="212" y="69" on="1"/>
      </contour>
    </TTGlyph>
    <TTGlyph name="Q.bold" xMin="39" yMin="-115" xMax="409" yMax="696">
      <contour>
        <pt x="409" y="-111" on="1"/>
        <pt x="409" y="-115" on="1"/>
        <pt x="322" y="-115" on="1"/>
        <pt x="266" y="-4" on="1"/>
        <pt x="245" y="-8" on="0"/>
        <pt x="212" y="-8" on="1"/>
        <pt x="130" y="-8" on="0"/>
        <pt x="59" y="48" on="0"/>
        <pt x="39" y="186" on="0"/>
        <pt x="39" y="344" on="1"/>
        <pt x="39" y="502" on="0"/>
        <pt x="59" y="640" on="0"/>
        <pt x="130" y="696" on="0"/>
        <pt x="212" y="696" on="1"/>
        <pt x="295" y="696" on="0"/>
        <pt x="365" y="640" on="0"/>
        <pt x="385" y="503" on="0"/>
        <pt x="385" y="344" on="1"/>
        <pt x="385" y="196" on="0"/>
        <pt x="367" y="59" on="0"/>
        <pt x="337" y="28" on="1"/>
      </contour>
      <contour>
        <pt x="229" y="69" on="1"/>
        <pt x="154" y="218" on="1"/>
        <pt x="238" y="218" on="1"/>
        <pt x="289" y="119" on="1"/>
        <pt x="295" y="147" on="0"/>
        <pt x="300" y="249" on="0"/>
        <pt x="300" y="344" on="1"/>
        <pt x="300" y="481" on="0"/>
        <pt x="288" y="590" on="0"/>
        <pt x="255" y="619" on="0"/>
        <pt x="212" y="619" on="1"/>
        <pt x="169" y="619" on="0"/>
        <pt x="136" y="590" on="0"/>
        <pt x="124" y="481" on="0"/>
        <pt x="124" y="344" on="1"/>
        <pt x="124" y="207" on="0"/>
        <pt x="136" y="98" on="0"/>
        <pt x="169" y="69" on="0"/>
        <pt x="212" y="69" on="1"/>
      </contour>
    </TTGlyph>
    <TTGlyph name="R" xMin="52" yMin="0" xMax="387" yMax="688">
      <contour>
        <pt x="299" y="0" on="1"/>
        <pt x="231" y="266" on="1"/>
        <pt x="219" y="266" on="1"/>
        <pt x="137" y="266" on="1"/>
        <pt x="137" y="0" on="1"/>
        <pt x="52" y="0" on="1"/>
        <pt x="52" y="688" on="1"/>
        <pt x="226" y="688" on="1"/>
        <pt x="291" y="688" on="0"/>
        <pt x="355" y="637" on="0"/>
        <pt x="374" y="550" on="0"/>
        <pt x="374" y="477" on="1"/>
        <pt x="374" y="399" on="0"/>
        <pt x="349" y="306" on="0"/>
        <pt x="308" y="285" on="1"/>
        <pt x="387" y="0" on="1"/>
      </contour>
      <contour>
        <pt x="248" y="341" on="0"/>
        <pt x="280" y="367" on="0"/>
        <pt x="289" y="422" on="0"/>
        <pt x="289" y="476" on="1"/>
        <pt x="289" y="531" on="0"/>
        <pt x="280" y="585" on="0"/>
        <pt x="248" y="611" on="0"/>
        <pt x="214" y="611" on="1"/>
        <pt x="137" y="611" on="1"/>
        <pt x="137" y="341" on="1"/>
        <pt x="214" y="341" on="1"/>
      </contour>
    </TTGlyph>
    <TTGlyph name="R.ss01" xMin="52" yMin="0" xMax="377" yMax="688">
      <contour>
        <pt x="377" y="0" on="1"/>
        <pt x="294" y="0" on="1"/>
        <pt x="284" y="154" on="1"/>
        <pt x="281" y="199" on="0"/>
        <pt x="272" y="243" on="0"/>
        <pt x="241" y="270" on="0"/>
        <pt x="207" y="270" on="1"/>
        <pt x="137" y="270" on="1"/>
        <pt x="137" y="0" on="1"/>
        <pt x="52" y="0" on="1"/>
        <pt x="52" y="688" on="1"/>
        <pt x="228" y="688" on="1"/>
        <pt x="310" y="688" on="0"/>
        <pt x="374" y="598" on="0"/>
        <pt x="374" y="501" on="1"/>
        <pt x="374" y="413" on="0"/>
        <pt x="335" y="334" on="0"/>
        <pt x="293" y="320" on="1"/>
        <pt x="293" y="316" on="1"/>
        <pt x="319" y="307" on="0"/>
        <pt x="348" y="280" on="0"/>
        <pt x="366" y="223" on="0"/>
        <pt x="368" y="173" on="1"/>
      </contour>
      <contour>
        <pt x="246" y="345" on="0"/>
        <pt x="278" y="372" on="0"/>
        <pt x="289" y="428" on="0"/>
        <pt x="289" y="478" on="1"/>
        <pt x="289" y="531" on="0"/>
        <pt x="280" y="585" on="0"/>
        <pt x="249" y="611" on="0"/>
        <pt x="215" y="611" on="1"/>
        <pt x="137" y="611" on="1"/>
        <pt x="137" y="345" on="1"/>
        <pt x="215" y="345" on="1"/>
      </contour>
    </TTGlyph>
    <TTGlyph name="Racute" xMin="52" yMin="0" xMax="387" yMax="888">
      <component glyphName="R" x="0" y="0" flags="0x0"/>
      <component glyphName="acutecomb.case" x="292" y="0" flags="0x0"/>
    </TTGlyph>
    <TTGlyph name="Racute.ss01" xMin="52" yMin="0" xMax="377" yMax="888">
      <component glyphName="R.ss01" x="0" y="0" flags="0x0"/>
      <component glyphName="acutecomb.case" x="292" y="0" flags="0x0"/>
    </TTGlyph>
    <TTGlyph name="Rcaron" xMin="52" yMin="0" xMax="387" yMax="888">
      <component glyphName="R" x="0" y="0" flags="0x0"/>
      <component glyphName="uni030C.case" x="317" y="0" flags="0x0"/>
    </TTGlyph>
    <TTGlyph name="Rcaron.ss01" xMin="52" yMin="0" xMax="377" yMax="888">
      <component glyphName="R.ss01" x="0" y="0" flags="0x0"/>
      <component glyphName="uni030C.case" x="317" y="0" flags="0x0"/>
    </TTGlyph>
    <TTGlyph name="Rcommaaccent" xMin="52" yMin="-254" xMax="387" yMax="688">
      <component glyphName="R" x="0" y="0" flags="0x0"/>
      <component glyphName="uni0326" x="298" y="0" flags="0x0"/>
    </TTGlyph>
    <TTGlyph name="Rcommaaccent.ss01" xMin="52" yMin="-254" xMax="377" yMax="688">
      <component glyphName="R.ss01" x="0" y="0" flags="0x0"/>
      <component glyphName="uni0326" x="298" y="0" flags="0x0"/>
    </TTGlyph>
    <TTGlyph name="S" xMin="28" yMin="-8" xMax="336" yMax="696">
      <contour>
        <pt x="145" y="-8" on="0"/>
        <pt x="66" y="0" on="0"/>
        <pt x="39" y="7" on="1"/>
        <pt x="39" y="79" on="1"/>
        <pt x="117" y="69" on="0"/>
        <pt x="154" y="69" on="1"/>
        <pt x="184" y="69" on="0"/>
        <pt x="221" y="79" on="0"/>
        <pt x="233" y="91" on="1"/>
        <pt x="244" y="103" on="0"/>
        <pt x="251" y="148" on="0"/>
        <pt x="251" y="188" on="1"/>
        <pt x="251" y="243" on="0"/>
        <pt x="244" y="286" on="0"/>
        <pt x="219" y="304" on="0"/>
        <pt x="186" y="310" on="1"/>
        <pt x="95" y="329" on="1"/>
        <pt x="53" y="337" on="0"/>
        <pt x="28" y="418" on="0"/>
        <pt x="28" y="502" on="1"/>
        <pt x="28" y="609" on="0"/>
        <pt x="105" y="696" on="0"/>
        <pt x="191" y="696" on="1"/>
        <pt x="231" y="696" on="0"/>
        <pt x="301" y="686" on="0"/>
        <pt x="314" y="681" on="1"/>
        <pt x="314" y="610" on="1"/>
        <pt x="300" y="613" on="0"/>
        <pt x="243" y="619" on="0"/>
        <pt x="214" y="619" on="1"/>
        <pt x="178" y="619" on="0"/>
        <pt x="138" y="605" on="0"/>
        <pt x="129" y="591" on="1"/>
        <pt x="119" y="577" on="0"/>
        <pt x="113" y="536" on="0"/>
        <pt x="113" y="503" on="1"/>
        <pt x="113" y="460" on="0"/>
        <pt x="119" y="421" on="0"/>
        <pt x="138" y="405" on="0"/>
        <pt x="159" y="400" on="1"/>
        <pt x="240" y="383" on="1"/>
        <pt x="274" y="376" on="0"/>
        <pt x="315" y="348" on="0"/>
        <pt x="326" y="314" on="1"/>
        <pt x="336" y="287" on="0"/>
        <pt x="336" y="202" on="1"/>
        <pt x="336" y="121" on="0"/>
        <pt x="307" y="31" on="0"/>
        <pt x="239" y="-8" on="0"/>
        <pt x="178" y="-8" on="1"/>
      </contour>
    </TTGlyph>
    <TTGlyph name="Sacute" xMin="28" yMin="-8" xMax="336" yMax="888">
      <component glyphName="S" x="0" y="0" flags="0x0"/>
      <component glyphName="acutecomb.case" x="267" y="0" flags="0x0"/>
    </TTGlyph>
    <TTGlyph name="Sacute.loclPLK" xMin="28" yMin="-8" xMax="336" yMax="888">
      <component glyphName="S" x="0" y="0" flags="0x0"/>
      <component glyphName="acute.case.loclPLK" x="151" y="0" flags="0x0"/>
    </TTGlyph>
    <TTGlyph name="Scaron" xMin="28" yMin="-8" xMax="336" yMax="882">
      <component glyphName="S" x="0" y="0" flags="0x0"/>
      <component glyphName="caron" x="74" y="139" flags="0x4"/>
    </TTGlyph>
    <TTGlyph name="Scedilla" xMin="28" yMin="-189" xMax="336" yMax="696">
      <contour>
        <pt x="336" y="129" on="0"/>
        <pt x="312" y="41" on="0"/>
        <pt x="256" y="-2" on="0"/>
        <pt x="207" y="-7" on="1"/>
        <pt x="170" y="-189" on="1"/>
        <pt x="97" y="-189" on="1"/>
        <pt x="97" y="-184" on="1"/>
        <pt x="151" y="-7" on="1"/>
        <pt x="93" y="-6" on="0"/>
        <pt x="39" y="7" on="1"/>
        <pt x="39" y="79" on="1"/>
        <pt x="117" y="69" on="0"/>
        <pt x="154" y="69" on="1"/>
        <pt x="184" y="69" on="0"/>
        <pt x="221" y="79" on="0"/>
        <pt x="233" y="91" on="1"/>
        <pt x="244" y="103" on="0"/>
        <pt x="251" y="148" on="0"/>
        <pt x="251" y="188" on="1"/>
        <pt x="251" y="243" on="0"/>
        <pt x="244" y="286" on="0"/>
        <pt x="219" y="304" on="0"/>
        <pt x="186" y="310" on="1"/>
        <pt x="95" y="329" on="1"/>
        <pt x="53" y="337" on="0"/>
        <pt x="28" y="418" on="0"/>
        <pt x="28" y="502" on="1"/>
        <pt x="28" y="609" on="0"/>
        <pt x="105" y="696" on="0"/>
        <pt x="191" y="696" on="1"/>
        <pt x="231" y="696" on="0"/>
        <pt x="301" y="686" on="0"/>
        <pt x="314" y="681" on="1"/>
        <pt x="314" y="610" on="1"/>
        <pt x="300" y="613" on="0"/>
        <pt x="243" y="619" on="0"/>
        <pt x="214" y="619" on="1"/>
        <pt x="178" y="619" on="0"/>
        <pt x="138" y="605" on="0"/>
        <pt x="129" y="591" on="1"/>
        <pt x="119" y="577" on="0"/>
        <pt x="113" y="536" on="0"/>
        <pt x="113" y="503" on="1"/>
        <pt x="113" y="460" on="0"/>
        <pt x="119" y="421" on="0"/>
        <pt x="138" y="405" on="0"/>
        <pt x="159" y="400" on="1"/>
        <pt x="240" y="383" on="1"/>
        <pt x="274" y="376" on="0"/>
        <pt x="315" y="348" on="0"/>
        <pt x="326" y="314" on="1"/>
        <pt x="336" y="287" on="0"/>
        <pt x="336" y="202" on="1"/>
      </contour>
    </TTGlyph>
    <TTGlyph name="Scircumflex" xMin="28" yMin="-8" xMax="336" yMax="888">
      <component glyphName="S" x="0" y="0" flags="0x0"/>
      <component glyphName="uni0302.case" x="292" y="0" flags="0x0"/>
    </TTGlyph>
    <TTGlyph name="Scommaaccent" xMin="28" yMin="-254" xMax="336" yMax="696">
      <component glyphName="S" x="0" y="0" flags="0x0"/>
      <component glyphName="uni0326" x="273" y="0" flags="0x0"/>
    </TTGlyph>
    <TTGlyph name="T" xMin="11" yMin="0" xMax="331" yMax="688">
      <contour>
        <pt x="128" y="609" on="1"/>
        <pt x="11" y="609" on="1"/>
        <pt x="11" y="688" on="1"/>
        <pt x="331" y="688" on="1"/>
        <pt x="331" y="609" on="1"/>
        <pt x="213" y="609" on="1"/>
        <pt x="213" y="0" on="1"/>
        <pt x="128" y="0" on="1"/>
      </contour>
    </TTGlyph>
    <TTGlyph name="Tbar" xMin="11" yMin="0" xMax="331" yMax="688">
      <contour>
        <pt x="213" y="609" on="1"/>
        <pt x="213" y="385" on="1"/>
        <pt x="303" y="385" on="1"/>
        <pt x="303" y="316" on="1"/>
        <pt x="213" y="316" on="1"/>
        <pt x="213" y="0" on="1"/>
        <pt x="128" y="0" on="1"/>
        <pt x="128" y="316" on="1"/>
        <pt x="39" y="316" on="1"/>
        <pt x="39" y="385" on="1"/>
        <pt x="128" y="385" on="1"/>
        <pt x="128" y="609" on="1"/>
        <pt x="11" y="609" on="1"/>
        <pt x="11" y="688" on="1"/>
        <pt x="331" y="688" on="1"/>
        <pt x="331" y="609" on="1"/>
      </contour>
    </TTGlyph>
    <TTGlyph name="Tcaron" xMin="11" yMin="0" xMax="331" yMax="888">
      <component glyphName="T" x="0" y="0" flags="0x0"/>
      <component glyphName="uni030C.case" x="281" y="0" flags="0x0"/>
    </TTGlyph>
    <TTGlyph name="Thorn" xMin="52" yMin="0" xMax="370" yMax="688">
      <contour>
        <pt x="52" y="688" on="1"/>
        <pt x="137" y="688" on="1"/>
        <pt x="137" y="572" on="1"/>
        <pt x="222" y="572" on="1"/>
        <pt x="286" y="572" on="0"/>
        <pt x="351" y="519" on="0"/>
        <pt x="370" y="427" on="0"/>
        <pt x="370" y="351" on="1"/>
        <pt x="370" y="278" on="0"/>
        <pt x="351" y="186" on="0"/>
        <pt x="286" y="130" on="0"/>
        <pt x="222" y="130" on="1"/>
        <pt x="137" y="130" on="1"/>
        <pt x="137" y="0" on="1"/>
        <pt x="52" y="0" on="1"/>
      </contour>
      <contour>
        <pt x="210" y="207" on="1"/>
        <pt x="244" y="207" on="0"/>
        <pt x="276" y="235" on="0"/>
        <pt x="285" y="293" on="0"/>
        <pt x="285" y="351" on="1"/>
        <pt x="285" y="410" on="0"/>
        <pt x="276" y="467" on="0"/>
        <pt x="244" y="495" on="0"/>
        <pt x="210" y="495" on="1"/>
        <pt x="137" y="495" on="1"/>
        <pt x="137" y="207" on="1"/>
      </contour>
    </TTGlyph>
    <TTGlyph name="U" xMin="48" yMin="-8" xMax="377" yMax="688">
      <contour>
        <pt x="377" y="688" on="1"/>
        <pt x="377" y="299" on="1"/>
        <pt x="377" y="165" on="0"/>
        <pt x="359" y="45" on="0"/>
        <pt x="291" y="-8" on="0"/>
        <pt x="213" y="-8" on="1"/>
        <pt x="135" y="-8" on="0"/>
        <pt x="66" y="45" on="0"/>
        <pt x="48" y="165" on="0"/>
        <pt x="48" y="299" on="1"/>
        <pt x="48" y="688" on="1"/>
        <pt x="133" y="688" on="1"/>
        <pt x="133" y="260" on="1"/>
        <pt x="133" y="170" on="0"/>
        <pt x="142" y="97" on="0"/>
        <pt x="174" y="69" on="0"/>
        <pt x="213" y="69" on="1"/>
        <pt x="252" y="69" on="0"/>
        <pt x="284" y="97" on="0"/>
        <pt x="293" y="170" on="0"/>
        <pt x="293" y="260" on="1"/>
        <pt x="293" y="688" on="1"/>
      </contour>
    </TTGlyph>
    <TTGlyph name="Uacute" xMin="48" yMin="-8" xMax="377" yMax="892">
      <component glyphName="U" x="0" y="0" flags="0x0"/>
      <component glyphName="acute" x="180" y="149" flags="0x4"/>
    </TTGlyph>
    <TTGlyph name="Ubreve" xMin="48" yMin="-8" xMax="377" yMax="888">
      <component glyphName="U" x="0" y="0" flags="0x0"/>
      <component glyphName="uni0306.case" x="319" y="0" flags="0x0"/>
    </TTGlyph>
    <TTGlyph name="Ucircumflex" xMin="48" yMin="-8" xMax="377" yMax="882">
      <component glyphName="U" x="0" y="0" flags="0x0"/>
      <component glyphName="circumflex" x="102" y="139" flags="0x4"/>
    </TTGlyph>
    <TTGlyph name="Udieresis" xMin="48" yMin="-8" xMax="377" yMax="855">
      <component glyphName="U" x="0" y="0" flags="0x0"/>
      <component glyphName="dieresis" x="77" y="125" flags="0x4"/>
    </TTGlyph>
    <TTGlyph name="Ugrave" xMin="48" yMin="-8" xMax="377" yMax="892">
      <component glyphName="U" x="0" y="0" flags="0x0"/>
      <component glyphName="grave" x="135" y="149" flags="0x4"/>
    </TTGlyph>
    <TTGlyph name="Uhorn" xMin="48" yMin="-8" xMax="446" yMax="782">
      <contour>
        <pt x="446" y="782" on="1"/>
        <pt x="446" y="755" on="1"/>
        <pt x="446" y="697" on="0"/>
        <pt x="420" y="651" on="0"/>
        <pt x="377" y="647" on="1"/>
        <pt x="377" y="299" on="1"/>
        <pt x="377" y="165" on="0"/>
        <pt x="359" y="45" on="0"/>
        <pt x="291" y="-8" on="0"/>
        <pt x="213" y="-8" on="1"/>
        <pt x="135" y="-8" on="0"/>
        <pt x="66" y="45" on="0"/>
        <pt x="48" y="165" on="0"/>
        <pt x="48" y="299" on="1"/>
        <pt x="48" y="688" on="1"/>
        <pt x="133" y="688" on="1"/>
        <pt x="133" y="260" on="1"/>
        <pt x="133" y="170" on="0"/>
        <pt x="142" y="97" on="0"/>
        <pt x="174" y="69" on="0"/>
        <pt x="213" y="69" on="1"/>
        <pt x="252" y="69" on="0"/>
        <pt x="284" y="97" on="0"/>
        <pt x="293" y="170" on="0"/>
        <pt x="293" y="260" on="1"/>
        <pt x="293" y="688" on="1"/>
        <pt x="343" y="688" on="1"/>
        <pt x="373" y="688" on="0"/>
        <pt x="390" y="712" on="0"/>
        <pt x="390" y="744" on="1"/>
        <pt x="390" y="782" on="1"/>
      </contour>
    </TTGlyph>
    <TTGlyph name="Uhungarumlaut" xMin="48" yMin="-8" xMax="377" yMax="874">
      <component glyphName="U" x="0" y="0" flags="0x0"/>
      <component glyphName="uni030B.case" x="361" y="0" flags="0x0"/>
    </TTGlyph>
    <TTGlyph name="Umacron" xMin="48" yMin="-8" xMax="377" yMax="888">
      <component glyphName="U" x="0" y="0" flags="0x0"/>
      <component glyphName="uni0304.case" x="351" y="0" flags="0x0"/>
    </TTGlyph>
    <TTGlyph name="Uogonek" xMin="48" yMin="-196" xMax="377" yMax="688">
      <contour>
        <pt x="377" y="688" on="1"/>
        <pt x="377" y="299" on="1"/>
        <pt x="377" y="207" on="0"/>
        <pt x="370" y="104" on="0"/>
        <pt x="347" y="35" on="0"/>
        <pt x="323" y="17" on="1"/>
        <pt x="294" y="-3" on="0"/>
        <pt x="256" y="-68" on="0"/>
        <pt x="256" y="-103" on="1"/>
        <pt x="256" y="-145" on="0"/>
        <pt x="298" y="-145" on="1"/>
        <pt x="312" y="-144" on="1"/>
        <pt x="312" y="-193" on="1"/>
        <pt x="295" y="-196" on="0"/>
        <pt x="276" y="-196" on="1"/>
        <pt x="232" y="-196" on="0"/>
        <pt x="192" y="-152" on="0"/>
        <pt x="192" y="-116" on="1"/>
        <pt x="192" y="-90" on="0"/>
        <pt x="217" y="-33" on="0"/>
        <pt x="239" y="-7" on="1"/>
        <pt x="230" y="-8" on="0"/>
        <pt x="213" y="-8" on="1"/>
        <pt x="135" y="-8" on="0"/>
        <pt x="66" y="45" on="0"/>
        <pt x="48" y="165" on="0"/>
        <pt x="48" y="299" on="1"/>
        <pt x="48" y="688" on="1"/>
        <pt x="133" y="688" on="1"/>
        <pt x="133" y="260" on="1"/>
        <pt x="133" y="170" on="0"/>
        <pt x="142" y="97" on="0"/>
        <pt x="174" y="69" on="0"/>
        <pt x="213" y="69" on="1"/>
        <pt x="252" y="69" on="0"/>
        <pt x="284" y="97" on="0"/>
        <pt x="293" y="170" on="0"/>
        <pt x="293" y="260" on="1"/>
        <pt x="293" y="688" on="1"/>
      </contour>
    </TTGlyph>
    <TTGlyph name="Uring" xMin="48" yMin="-8" xMax="377" yMax="923">
      <component glyphName="U" x="0" y="0" flags="0x0"/>
      <component glyphName="uni030A.case" x="312" y="0" flags="0x0"/>
    </TTGlyph>
    <TTGlyph name="Utilde" xMin="48" yMin="-8" xMax="377" yMax="888">
      <component glyphName="U" x="0" y="0" flags="0x0"/>
      <component glyphName="tildecomb.case" x="339" y="0" flags="0x0"/>
    </TTGlyph>
    <TTGlyph name="V" xMin="7" yMin="0" xMax="378" yMax="688">
      <contour>
        <pt x="7" y="688" on="1"/>
        <pt x="93" y="688" on="1"/>
        <pt x="191" y="105" on="1"/>
        <pt x="198" y="105" on="1"/>
        <pt x="295" y="688" on="1"/>
        <pt x="378" y="688" on="1"/>
        <pt x="253" y="0" on="1"/>
        <pt x="132" y="0" on="1"/>
      </contour>
    </TTGlyph>
    <TTGlyph name="W" xMin="11" yMin="0" xMax="588" yMax="688">
      <contour>
        <pt x="302" y="547" on="1"/>
        <pt x="296" y="547" on="1"/>
        <pt x="218" y="0" on="1"/>
        <pt x="103" y="0" on="1"/>
        <pt x="11" y="688" on="1"/>
        <pt x="97" y="688" on="1"/>
        <pt x="162" y="109" on="1"/>
        <pt x="168" y="109" on="1"/>
        <pt x="249" y="688" on="1"/>
        <pt x="352" y="688" on="1"/>
        <pt x="434" y="109" on="1"/>
        <pt x="441" y="109" on="1"/>
        <pt x="504" y="688" on="1"/>
        <pt x="588" y="688" on="1"/>
        <pt x="495" y="0" on="1"/>
        <pt x="381" y="0" on="1"/>
      </contour>
    </TTGlyph>
    <TTGlyph name="Wacute" xMin="11" yMin="0" xMax="588" yMax="888">
      <component glyphName="W" x="0" y="0" flags="0x0"/>
      <component glyphName="acutecomb.case" x="385" y="0" flags="0x0"/>
    </TTGlyph>
    <TTGlyph name="Wcircumflex" xMin="11" yMin="0" xMax="588" yMax="888">
      <component glyphName="W" x="0" y="0" flags="0x0"/>
      <component glyphName="uni0302.case" x="410" y="0" flags="0x0"/>
    </TTGlyph>
    <TTGlyph name="Wdieresis" xMin="11" yMin="0" xMax="588" yMax="875">
      <component glyphName="W" x="0" y="0" flags="0x0"/>
      <component glyphName="uni0308.case" x="436" y="0" flags="0x0"/>
    </TTGlyph>
    <TTGlyph name="Wgrave" xMin="11" yMin="0" xMax="588" yMax="888">
      <component glyphName="W" x="0" y="0" flags="0x0"/>
      <component glyphName="gravecomb.case" x="333" y="0" flags="0x0"/>
    </TTGlyph>
    <TTGlyph name="X" xMin="12" yMin="0" xMax="394" yMax="688">
      <contour>
        <pt x="205" y="280" on="1"/>
        <pt x="199" y="280" on="1"/>
        <pt x="99" y="0" on="1"/>
        <pt x="12" y="0" on="1"/>
        <pt x="143" y="346" on="1"/>
        <pt x="14" y="688" on="1"/>
        <pt x="103" y="688" on="1"/>
        <pt x="201" y="415" on="1"/>
        <pt x="207" y="415" on="1"/>
        <pt x="305" y="688" on="1"/>
        <pt x="392" y="688" on="1"/>
        <pt x="263" y="349" on="1"/>
        <pt x="394" y="0" on="1"/>
        <pt x="305" y="0" on="1"/>
      </contour>
    </TTGlyph>
    <TTGlyph name="Y" xMin="-1" yMin="0" xMax="366" yMax="688">
      <contour>
        <pt x="140" y="261" on="1"/>
        <pt x="-1" y="688" on="1"/>
        <pt x="85" y="688" on="1"/>
        <pt x="181" y="361" on="1"/>
        <pt x="189" y="361" on="1"/>
        <pt x="282" y="688" on="1"/>
        <pt x="366" y="688" on="1"/>
        <pt x="224" y="261" on="1"/>
        <pt x="224" y="0" on="1"/>
        <pt x="140" y="0" on="1"/>
      </contour>
    </TTGlyph>
    <TTGlyph name="Y.loclGUA" xMin="18" yMin="0" xMax="348" yMax="688">
      <contour>
        <pt x="348" y="688" on="1"/>
        <pt x="348" y="505" on="1"/>
        <pt x="348" y="383" on="0"/>
        <pt x="334" y="266" on="0"/>
        <pt x="282" y="206" on="0"/>
        <pt x="224" y="200" on="1"/>
        <pt x="224" y="0" on="1"/>
        <pt x="140" y="0" on="1"/>
        <pt x="140" y="200" on="1"/>
        <pt x="83" y="206" on="0"/>
        <pt x="32" y="267" on="0"/>
        <pt x="18" y="383" on="0"/>
        <pt x="18" y="505" on="1"/>
        <pt x="18" y="688" on="1"/>
        <pt x="103" y="688" on="1"/>
        <pt x="103" y="465" on="1"/>
        <pt x="103" y="376" on="0"/>
        <pt x="112" y="303" on="0"/>
        <pt x="144" y="275" on="0"/>
        <pt x="183" y="275" on="1"/>
        <pt x="222" y="275" on="0"/>
        <pt x="254" y="303" on="0"/>
        <pt x="263" y="376" on="0"/>
        <pt x="263" y="465" on="1"/>
        <pt x="263" y="688" on="1"/>
      </contour>
    </TTGlyph>
    <TTGlyph name="Yacute" xMin="-1" yMin="0" xMax="366" yMax="892">
      <component glyphName="Y" x="0" y="0" flags="0x0"/>
      <component glyphName="acute" x="153" y="149" flags="0x4"/>
    </TTGlyph>
    <TTGlyph name="Yacute.loclGUA" xMin="18" yMin="0" xMax="348" yMax="888">
      <component glyphName="Y.loclGUA" x="0" y="0" flags="0x0"/>
      <component glyphName="acutecomb.case" x="268" y="0" flags="0x0"/>
    </TTGlyph>
    <TTGlyph name="Ycircumflex" xMin="-1" yMin="0" xMax="366" yMax="888">
      <component glyphName="Y" x="0" y="0" flags="0x0"/>
      <component glyphName="uni0302.case" x="293" y="0" flags="0x0"/>
    </TTGlyph>
    <TTGlyph name="Ycircumflex.loclGUA" xMin="18" yMin="0" xMax="348" yMax="888">
      <component glyphName="Y.loclGUA" x="0" y="0" flags="0x0"/>
      <component glyphName="uni0302.case" x="293" y="0" flags="0x0"/>
    </TTGlyph>
    <TTGlyph name="Ydieresis" xMin="-1" yMin="0" xMax="366" yMax="855">
      <component glyphName="Y" x="0" y="0" flags="0x0"/>
      <component glyphName="dieresis" x="49" y="125" flags="0x4"/>
    </TTGlyph>
    <TTGlyph name="Ydieresis.loclGUA" xMin="18" yMin="0" xMax="348" yMax="875">
      <component glyphName="Y.loclGUA" x="0" y="0" flags="0x0"/>
      <component glyphName="uni0308.case" x="319" y="0" flags="0x0"/>
    </TTGlyph>
    <TTGlyph name="Ygrave" xMin="-1" yMin="0" xMax="366" yMax="888">
      <component glyphName="Y" x="0" y="0" flags="0x0"/>
      <component glyphName="gravecomb.case" x="216" y="0" flags="0x0"/>
    </TTGlyph>
    <TTGlyph name="Ygrave.loclGUA" xMin="18" yMin="0" xMax="348" yMax="888">
      <component glyphName="Y.loclGUA" x="0" y="0" flags="0x0"/>
      <component glyphName="gravecomb.case" x="216" y="0" flags="0x0"/>
    </TTGlyph>
    <TTGlyph name="Z" xMin="22" yMin="0" xMax="326" yMax="688">
      <contour>
        <pt x="22" y="72" on="1"/>
        <pt x="233" y="611" on="1"/>
        <pt x="28" y="611" on="1"/>
        <pt x="28" y="688" on="1"/>
        <pt x="323" y="688" on="1"/>
        <pt x="323" y="616" on="1"/>
        <pt x="113" y="77" on="1"/>
        <pt x="326" y="77" on="1"/>
        <pt x="326" y="0" on="1"/>
        <pt x="22" y="0" on="1"/>
      </contour>
    </TTGlyph>
    <TTGlyph name="Zacute" xMin="22" yMin="0" xMax="326" yMax="888">
      <component glyphName="Z" x="0" y="0" flags="0x0"/>
      <component glyphName="acutecomb.case" x="260" y="0" flags="0x0"/>
    </TTGlyph>
    <TTGlyph name="Zacute.loclPLK" xMin="22" yMin="0" xMax="326" yMax="888">
      <component glyphName="Z" x="0" y="0" flags="0x0"/>
      <component glyphName="acute.case.loclPLK" x="144" y="0" flags="0x0"/>
    </TTGlyph>
    <TTGlyph name="Zcaron" xMin="22" yMin="0" xMax="326" yMax="882">
      <component glyphName="Z" x="0" y="0" flags="0x0"/>
      <component glyphName="caron" x="71" y="139" flags="0x4"/>
    </TTGlyph>
    <TTGlyph name="Zdotaccent" xMin="22" yMin="0" xMax="326" yMax="875">
      <component glyphName="Z" x="0" y="0" flags="0x0"/>
      <component glyphName="uni0307.case" x="222" y="0" flags="0x0"/>
    </TTGlyph>
    <TTGlyph name="a" xMin="24" yMin="-8" xMax="320" yMax="518">
      <contour>
        <pt x="95" y="-8" on="0"/>
        <pt x="46" y="21" on="0"/>
        <pt x="24" y="86" on="0"/>
        <pt x="24" y="143" on="1"/>
        <pt x="24" y="201" on="0"/>
        <pt x="45" y="265" on="0"/>
        <pt x="95" y="293" on="0"/>
        <pt x="140" y="293" on="1"/>
        <pt x="184" y="293" on="0"/>
        <pt x="240" y="289" on="1"/>
        <pt x="240" y="325" on="1"/>
        <pt x="240" y="383" on="0"/>
        <pt x="228" y="433" on="0"/>
        <pt x="191" y="449" on="0"/>
        <pt x="148" y="449" on="1"/>
        <pt x="99" y="449" on="0"/>
        <pt x="45" y="440" on="1"/>
        <pt x="45" y="506" on="1"/>
        <pt x="112" y="518" on="0"/>
        <pt x="171" y="518" on="1"/>
        <pt x="231" y="518" on="0"/>
        <pt x="294" y="484" on="0"/>
        <pt x="320" y="401" on="0"/>
        <pt x="320" y="322" on="1"/>
        <pt x="320" y="0" on="1"/>
        <pt x="247" y="0" on="1"/>
        <pt x="243" y="68" on="1"/>
        <pt x="237" y="68" on="1"/>
        <pt x="220" y="-8" on="0"/>
        <pt x="138" y="-8" on="1"/>
      </contour>
      <contour>
        <pt x="190" y="64" on="0"/>
        <pt x="224" y="80" on="0"/>
        <pt x="231" y="105" on="1"/>
        <pt x="240" y="140" on="0"/>
        <pt x="240" y="200" on="1"/>
        <pt x="240" y="235" on="1"/>
        <pt x="160" y="235" on="1"/>
        <pt x="136" y="235" on="0"/>
        <pt x="111" y="222" on="0"/>
        <pt x="101" y="185" on="0"/>
        <pt x="101" y="148" on="1"/>
        <pt x="101" y="114" on="0"/>
        <pt x="111" y="79" on="0"/>
        <pt x="137" y="64" on="0"/>
        <pt x="163" y="64" on="1"/>
      </contour>
    </TTGlyph>
    <TTGlyph name="aacute" xMin="24" yMin="-8" xMax="320" yMax="743">
      <component glyphName="a" x="0" y="0" flags="0x0"/>
      <component glyphName="acute" x="148" y="0" flags="0x0"/>
    </TTGlyph>
    <TTGlyph name="abreve" xMin="24" yMin="-8" xMax="320" yMax="743">
      <component glyphName="a" x="0" y="0" flags="0x0"/>
      <component glyphName="uni0306" x="289" y="0" flags="0x0"/>
    </TTGlyph>
    <TTGlyph name="acircumflex" xMin="24" yMin="-8" xMax="320" yMax="743">
      <component glyphName="a" x="0" y="0" flags="0x0"/>
      <component glyphName="circumflex" x="74" y="0" flags="0x0"/>
    </TTGlyph>
    <TTGlyph name="acute" xMin="0" yMin="601" xMax="116" yMax="743">
      <contour>
        <pt x="0" y="606" on="1"/>
        <pt x="35" y="743" on="1"/>
        <pt x="116" y="743" on="1"/>
        <pt x="116" y="738" on="1"/>
        <pt x="63" y="601" on="1"/>
        <pt x="0" y="601" on="1"/>
      </contour>
    </TTGlyph>
    <TTGlyph name="acute.case.loclPLK" xMin="0" yMin="746" xMax="95" yMax="888">
      <contour>
        <pt x="0" y="751" on="1"/>
        <pt x="15" y="888" on="1"/>
        <pt x="95" y="888" on="1"/>
        <pt x="95" y="883" on="1"/>
        <pt x="63" y="746" on="1"/>
        <pt x="0" y="746" on="1"/>
      </contour>
    </TTGlyph>
    <TTGlyph name="acute.loclPLK" xMin="0" yMin="601" xMax="95" yMax="743">
      <contour>
        <pt x="0" y="606" on="1"/>
        <pt x="15" y="743" on="1"/>
        <pt x="95" y="743" on="1"/>
        <pt x="95" y="738" on="1"/>
        <pt x="63" y="601" on="1"/>
        <pt x="0" y="601" on="1"/>
      </contour>
    </TTGlyph>
    <TTGlyph name="acutecomb" xMin="-116" yMin="601" xMax="0" yMax="743">
      <contour>
        <pt x="-116" y="606" on="1"/>
        <pt x="-81" y="743" on="1"/>
        <pt x="0" y="743" on="1"/>
        <pt x="0" y="738" on="1"/>
        <pt x="-53" y="601" on="1"/>
        <pt x="-116" y="601" on="1"/>
      </contour>
    </TTGlyph>
    <TTGlyph name="acutecomb.case" xMin="-116" yMin="746" xMax="0" yMax="888">
      <contour>
        <pt x="-116" y="751" on="1"/>
        <pt x="-81" y="888" on="1"/>
        <pt x="0" y="888" on="1"/>
        <pt x="0" y="883" on="1"/>
        <pt x="-53" y="746" on="1"/>
        <pt x="-116" y="746" on="1"/>
      </contour>
    </TTGlyph>
    <TTGlyph name="adieresis" xMin="24" yMin="-8" xMax="320" yMax="730">
      <component glyphName="a" x="0" y="0" flags="0x0"/>
      <component glyphName="dieresis" x="48" y="0" flags="0x0"/>
    </TTGlyph>
    <TTGlyph name="ae" xMin="24" yMin="-8" xMax="537" yMax="518">
      <contour>
        <pt x="537" y="232" on="1"/>
        <pt x="320" y="232" on="1"/>
        <pt x="320" y="154" on="0"/>
        <pt x="331" y="87" on="0"/>
        <pt x="370" y="61" on="0"/>
        <pt x="415" y="61" on="1"/>
        <pt x="437" y="61" on="0"/>
        <pt x="504" y="67" on="0"/>
        <pt x="526" y="71" on="1"/>
        <pt x="526" y="5" on="1"/>
        <pt x="504" y="0" on="0"/>
        <pt x="432" y="-8" on="0"/>
        <pt x="399" y="-8" on="1"/>
        <pt x="348" y="-8" on="0"/>
        <pt x="290" y="21" on="0"/>
        <pt x="275" y="58" on="1"/>
        <pt x="257" y="19" on="0"/>
        <pt x="193" y="-8" on="0"/>
        <pt x="150" y="-8" on="1"/>
        <pt x="103" y="-8" on="0"/>
        <pt x="48" y="21" on="0"/>
        <pt x="24" y="86" on="0"/>
        <pt x="24" y="143" on="1"/>
        <pt x="24" y="200" on="0"/>
        <pt x="45" y="263" on="0"/>
        <pt x="95" y="291" on="0"/>
        <pt x="140" y="291" on="1"/>
        <pt x="178" y="291" on="0"/>
        <pt x="240" y="289" on="1"/>
        <pt x="240" y="325" on="1"/>
        <pt x="240" y="383" on="0"/>
        <pt x="228" y="433" on="0"/>
        <pt x="191" y="449" on="0"/>
        <pt x="148" y="449" on="1"/>
        <pt x="113" y="449" on="0"/>
        <pt x="45" y="440" on="1"/>
        <pt x="45" y="506" on="1"/>
        <pt x="112" y="518" on="0"/>
        <pt x="171" y="518" on="1"/>
        <pt x="214" y="518" on="0"/>
        <pt x="267" y="495" on="0"/>
        <pt x="282" y="468" on="1"/>
        <pt x="297" y="494" on="0"/>
        <pt x="351" y="518" on="0"/>
        <pt x="395" y="518" on="1"/>
        <pt x="463" y="518" on="0"/>
        <pt x="522" y="471" on="0"/>
        <pt x="537" y="369" on="0"/>
        <pt x="537" y="257" on="1"/>
      </contour>
      <contour>
        <pt x="359" y="449" on="0"/>
        <pt x="330" y="428" on="0"/>
        <pt x="320" y="365" on="0"/>
        <pt x="320" y="291" on="1"/>
        <pt x="461" y="291" on="1"/>
        <pt x="461" y="301" on="1"/>
        <pt x="461" y="369" on="0"/>
        <pt x="450" y="430" on="0"/>
        <pt x="423" y="449" on="0"/>
        <pt x="394" y="449" on="1"/>
      </contour>
      <contour>
        <pt x="240" y="232" on="1"/>
        <pt x="160" y="232" on="1"/>
        <pt x="136" y="232" on="0"/>
        <pt x="111" y="220" on="0"/>
        <pt x="101" y="184" on="0"/>
        <pt x="101" y="148" on="1"/>
        <pt x="101" y="112" on="0"/>
        <pt x="111" y="76" on="0"/>
        <pt x="137" y="61" on="0"/>
        <pt x="163" y="61" on="1"/>
        <pt x="190" y="61" on="0"/>
        <pt x="224" y="78" on="0"/>
        <pt x="232" y="107" on="1"/>
        <pt x="240" y="142" on="0"/>
        <pt x="240" y="198" on="1"/>
      </contour>
    </TTGlyph>
    <TTGlyph name="aeacute" xMin="24" yMin="-8" xMax="537" yMax="743">
      <component glyphName="ae" x="0" y="0" flags="0x0"/>
      <component glyphName="acutecomb" x="368" y="0" flags="0x0"/>
    </TTGlyph>
    <TTGlyph name="agrave" xMin="24" yMin="-8" xMax="320" yMax="743">
      <component glyphName="a" x="0" y="0" flags="0x0"/>
      <component glyphName="grave" x="103" y="0" flags="0x0"/>
    </TTGlyph>
    <TTGlyph name="amacron" xMin="24" yMin="-8" xMax="320" yMax="743">
      <component glyphName="a" x="0" y="0" flags="0x0"/>
      <component glyphName="uni0304" x="321" y="0" flags="0x0"/>
    </TTGlyph>
    <TTGlyph name="ampersand" xMin="39" yMin="-8" xMax="433" yMax="696">
      <contour>
        <pt x="433" y="384" on="1"/>
        <pt x="433" y="313" on="1"/>
        <pt x="365" y="313" on="1"/>
        <pt x="365" y="9" on="1"/>
        <pt x="336" y="2" on="0"/>
        <pt x="254" y="-8" on="0"/>
        <pt x="220" y="-8" on="1"/>
        <pt x="149" y="-8" on="0"/>
        <pt x="71" y="31" on="0"/>
        <pt x="39" y="113" on="0"/>
        <pt x="39" y="182" on="1"/>
        <pt x="39" y="263" on="0"/>
        <pt x="79" y="335" on="0"/>
        <pt x="123" y="349" on="1"/>
        <pt x="123" y="353" on="1"/>
        <pt x="82" y="367" on="0"/>
        <pt x="44" y="443" on="0"/>
        <pt x="44" y="517" on="1"/>
        <pt x="44" y="582" on="0"/>
        <pt x="79" y="660" on="0"/>
        <pt x="157" y="696" on="0"/>
        <pt x="225" y="696" on="1"/>
        <pt x="255" y="696" on="0"/>
        <pt x="334" y="687" on="0"/>
        <pt x="364" y="680" on="1"/>
        <pt x="364" y="614" on="1"/>
        <pt x="339" y="619" on="0"/>
        <pt x="275" y="626" on="0"/>
        <pt x="252" y="626" on="1"/>
        <pt x="195" y="626" on="0"/>
        <pt x="142" y="605" on="0"/>
        <pt x="125" y="555" on="0"/>
        <pt x="125" y="503" on="1"/>
        <pt x="125" y="444" on="0"/>
        <pt x="152" y="384" on="0"/>
        <pt x="198" y="384" on="1"/>
        <pt x="236" y="384" on="1"/>
        <pt x="236" y="313" on="1"/>
        <pt x="198" y="313" on="1"/>
        <pt x="165" y="313" on="0"/>
        <pt x="131" y="287" on="0"/>
        <pt x="119" y="234" on="0"/>
        <pt x="119" y="186" on="1"/>
        <pt x="119" y="133" on="0"/>
        <pt x="141" y="80" on="0"/>
        <pt x="188" y="63" on="0"/>
        <pt x="233" y="63" on="1"/>
        <pt x="258" y="63" on="0"/>
        <pt x="285" y="66" on="1"/>
        <pt x="285" y="384" on="1"/>
      </contour>
    </TTGlyph>
    <TTGlyph name="aogonek" xMin="24" yMin="-196" xMax="323" yMax="518">
      <contour>
        <pt x="323" y="-144" on="1"/>
        <pt x="323" y="-193" on="1"/>
        <pt x="306" y="-196" on="0"/>
        <pt x="288" y="-196" on="1"/>
        <pt x="244" y="-196" on="0"/>
        <pt x="203" y="-152" on="0"/>
        <pt x="203" y="-118" on="1"/>
        <pt x="203" y="-88" on="0"/>
        <pt x="234" y="-26" on="0"/>
        <pt x="260" y="0" on="1"/>
        <pt x="247" y="0" on="1"/>
        <pt x="243" y="68" on="1"/>
        <pt x="237" y="68" on="1"/>
        <pt x="220" y="-8" on="0"/>
        <pt x="138" y="-8" on="1"/>
        <pt x="95" y="-8" on="0"/>
        <pt x="46" y="21" on="0"/>
        <pt x="24" y="86" on="0"/>
        <pt x="24" y="143" on="1"/>
        <pt x="24" y="201" on="0"/>
        <pt x="45" y="265" on="0"/>
        <pt x="95" y="293" on="0"/>
        <pt x="140" y="293" on="1"/>
        <pt x="184" y="293" on="0"/>
        <pt x="240" y="289" on="1"/>
        <pt x="240" y="325" on="1"/>
        <pt x="240" y="383" on="0"/>
        <pt x="228" y="433" on="0"/>
        <pt x="191" y="449" on="0"/>
        <pt x="148" y="449" on="1"/>
        <pt x="123" y="449" on="0"/>
        <pt x="63" y="443" on="0"/>
        <pt x="45" y="440" on="1"/>
        <pt x="45" y="506" on="1"/>
        <pt x="112" y="518" on="0"/>
        <pt x="171" y="518" on="1"/>
        <pt x="231" y="518" on="0"/>
        <pt x="294" y="484" on="0"/>
        <pt x="320" y="401" on="0"/>
        <pt x="320" y="322" on="1"/>
        <pt x="320" y="0" on="1"/>
        <pt x="301" y="-17" on="0"/>
        <pt x="267" y="-77" on="0"/>
        <pt x="267" y="-105" on="1"/>
        <pt x="267" y="-123" on="0"/>
        <pt x="286" y="-145" on="0"/>
        <pt x="308" y="-145" on="1"/>
      </contour>
      <contour>
        <pt x="240" y="235" on="1"/>
        <pt x="160" y="235" on="1"/>
        <pt x="136" y="235" on="0"/>
        <pt x="111" y="222" on="0"/>
        <pt x="101" y="185" on="0"/>
        <pt x="101" y="148" on="1"/>
        <pt x="101" y="114" on="0"/>
        <pt x="111" y="79" on="0"/>
        <pt x="137" y="64" on="0"/>
        <pt x="163" y="64" on="1"/>
        <pt x="190" y="64" on="0"/>
        <pt x="224" y="80" on="0"/>
        <pt x="231" y="105" on="1"/>
        <pt x="240" y="140" on="0"/>
        <pt x="240" y="200" on="1"/>
      </contour>
    </TTGlyph>
    <TTGlyph name="approxequal" xMin="55" yMin="109" xMax="368" yMax="397">
      <contour>
        <pt x="55" y="317" on="0"/>
        <pt x="64" y="363" on="0"/>
        <pt x="95" y="386" on="0"/>
        <pt x="128" y="386" on="1"/>
        <pt x="149" y="386" on="0"/>
        <pt x="192" y="375" on="0"/>
        <pt x="223" y="365" on="1"/>
        <pt x="228" y="363" on="0"/>
        <pt x="273" y="348" on="0"/>
        <pt x="289" y="348" on="1"/>
        <pt x="306" y="348" on="0"/>
        <pt x="316" y="368" on="0"/>
        <pt x="316" y="397" on="1"/>
        <pt x="368" y="397" on="1"/>
        <pt x="368" y="354" on="0"/>
        <pt x="359" y="308" on="0"/>
        <pt x="328" y="285" on="0"/>
        <pt x="295" y="285" on="1"/>
        <pt x="274" y="285" on="0"/>
        <pt x="231" y="296" on="0"/>
        <pt x="201" y="307" on="1"/>
        <pt x="196" y="309" on="0"/>
        <pt x="151" y="324" on="0"/>
        <pt x="135" y="324" on="1"/>
        <pt x="118" y="324" on="0"/>
        <pt x="107" y="303" on="0"/>
        <pt x="107" y="274" on="1"/>
        <pt x="55" y="274" on="1"/>
      </contour>
      <contour>
        <pt x="55" y="152" on="0"/>
        <pt x="64" y="198" on="0"/>
        <pt x="95" y="221" on="0"/>
        <pt x="128" y="221" on="1"/>
        <pt x="149" y="221" on="0"/>
        <pt x="189" y="210" on="0"/>
        <pt x="223" y="199" on="1"/>
        <pt x="243" y="193" on="1"/>
        <pt x="272" y="182" on="0"/>
        <pt x="289" y="182" on="1"/>
        <pt x="306" y="182" on="0"/>
        <pt x="316" y="203" on="0"/>
        <pt x="316" y="231" on="1"/>
        <pt x="368" y="231" on="1"/>
        <pt x="368" y="189" on="0"/>
        <pt x="359" y="143" on="0"/>
        <pt x="328" y="120" on="0"/>
        <pt x="295" y="120" on="1"/>
        <pt x="260" y="120" on="0"/>
        <pt x="201" y="141" on="1"/>
        <pt x="196" y="143" on="0"/>
        <pt x="151" y="158" on="0"/>
        <pt x="135" y="158" on="1"/>
        <pt x="118" y="158" on="0"/>
        <pt x="107" y="137" on="0"/>
        <pt x="107" y="109" on="1"/>
        <pt x="55" y="109" on="1"/>
      </contour>
    </TTGlyph>
    <TTGlyph name="aring" xMin="24" yMin="-8" xMax="320" yMax="797">
      <component glyphName="a" x="0" y="0" flags="0x0"/>
      <component glyphName="ring" x="82" y="-11" flags="0x4"/>
    </TTGlyph>
    <TTGlyph name="aringacute" xMin="24" yMin="-8" xMax="320" yMax="981">
      <component glyphName="a" x="0" y="0" flags="0x0"/>
      <component glyphName="uni030A" x="282" y="0" flags="0x0"/>
      <component glyphName="acutecomb" x="266" y="238" flags="0x4"/>
    </TTGlyph>
    <TTGlyph name="arrowboth" xMin="55" yMin="179" xMax="828" yMax="430">
      <contour>
        <pt x="55" y="304" on="1"/>
        <pt x="323" y="430" on="1"/>
        <pt x="286" y="340" on="1"/>
        <pt x="596" y="340" on="1"/>
        <pt x="560" y="430" on="1"/>
        <pt x="828" y="304" on="1"/>
        <pt x="560" y="179" on="1"/>
        <pt x="596" y="269" on="1"/>
        <pt x="286" y="269" on="1"/>
        <pt x="323" y="179" on="1"/>
      </contour>
    </TTGlyph>
    <TTGlyph name="arrowdown" xMin="72" yMin="-85" xMax="323" yMax="688">
      <contour>
        <pt x="72" y="183" on="1"/>
        <pt x="163" y="146" on="1"/>
        <pt x="163" y="688" on="1"/>
        <pt x="234" y="688" on="1"/>
        <pt x="234" y="146" on="1"/>
        <pt x="323" y="183" on="1"/>
        <pt x="198" y="-85" on="1"/>
      </contour>
    </TTGlyph>
    <TTGlyph name="arrowdown.ss01" xMin="30" yMin="171" xMax="315" yMax="456">
      <contour>
        <pt x="30" y="456" on="1"/>
        <pt x="315" y="456" on="1"/>
        <pt x="173" y="171" on="1"/>
      </contour>
    </TTGlyph>
    <TTGlyph name="arrowleft" xMin="55" yMin="179" xMax="828" yMax="430">
      <contour>
        <pt x="317" y="179" on="1"/>
        <pt x="55" y="304" on="1"/>
        <pt x="317" y="430" on="1"/>
        <pt x="280" y="340" on="1"/>
        <pt x="828" y="340" on="1"/>
        <pt x="828" y="269" on="1"/>
        <pt x="280" y="269" on="1"/>
      </contour>
    </TTGlyph>
    <TTGlyph name="arrowleft.ss01" xMin="30" yMin="201" xMax="315" yMax="486">
      <contour>
        <pt x="30" y="343" on="1"/>
        <pt x="315" y="486" on="1"/>
        <pt x="315" y="201" on="1"/>
      </contour>
    </TTGlyph>
    <TTGlyph name="arrowright" xMin="55" yMin="179" xMax="828" yMax="430">
      <contour>
        <pt x="596" y="269" on="1"/>
        <pt x="55" y="269" on="1"/>
        <pt x="55" y="340" on="1"/>
        <pt x="596" y="340" on="1"/>
        <pt x="560" y="430" on="1"/>
        <pt x="828" y="304" on="1"/>
        <pt x="560" y="179" on="1"/>
      </contour>
    </TTGlyph>
    <TTGlyph name="arrowright.ss01" xMin="48" yMin="201" xMax="333" yMax="486">
      <contour>
        <pt x="48" y="486" on="1"/>
        <pt x="333" y="343" on="1"/>
        <pt x="48" y="201" on="1"/>
      </contour>
    </TTGlyph>
    <TTGlyph name="arrowup" xMin="72" yMin="-81" xMax="323" yMax="691">
      <contour>
        <pt x="163" y="459" on="1"/>
        <pt x="72" y="423" on="1"/>
        <pt x="198" y="691" on="1"/>
        <pt x="323" y="423" on="1"/>
        <pt x="234" y="459" on="1"/>
        <pt x="234" y="-81" on="1"/>
        <pt x="163" y="-81" on="1"/>
      </contour>
    </TTGlyph>
    <TTGlyph name="arrowup.ss01" xMin="30" yMin="231" xMax="315" yMax="516">
      <contour>
        <pt x="173" y="516" on="1"/>
        <pt x="315" y="231" on="1"/>
        <pt x="30" y="231" on="1"/>
      </contour>
    </TTGlyph>
    <TTGlyph name="arrowupdn" xMin="72" yMin="-85" xMax="323" yMax="696">
      <contour>
        <pt x="72" y="183" on="1"/>
        <pt x="163" y="146" on="1"/>
        <pt x="163" y="464" on="1"/>
        <pt x="72" y="428" on="1"/>
        <pt x="198" y="696" on="1"/>
        <pt x="323" y="428" on="1"/>
        <pt x="234" y="464" on="1"/>
        <pt x="234" y="146" on="1"/>
        <pt x="323" y="183" on="1"/>
        <pt x="198" y="-85" on="1"/>
      </contour>
    </TTGlyph>
    <TTGlyph name="arrowupdnbse" xMin="55" yMin="-186" xMax="340" yMax="696">
      <contour>
        <pt x="72" y="183" on="1"/>
        <pt x="163" y="146" on="1"/>
        <pt x="163" y="464" on="1"/>
        <pt x="72" y="428" on="1"/>
        <pt x="198" y="696" on="1"/>
        <pt x="323" y="428" on="1"/>
        <pt x="234" y="464" on="1"/>
        <pt x="234" y="146" on="1"/>
        <pt x="323" y="183" on="1"/>
        <pt x="198" y="-85" on="1"/>
      </contour>
      <contour>
        <pt x="55" y="-125" on="1"/>
        <pt x="340" y="-125" on="1"/>
        <pt x="340" y="-186" on="1"/>
        <pt x="55" y="-186" on="1"/>
      </contour>
    </TTGlyph>
    <TTGlyph name="asciicircum" xMin="34" yMin="490" xMax="351" yMax="750">
      <contour>
        <pt x="192" y="685" on="1"/>
        <pt x="108" y="490" on="1"/>
        <pt x="34" y="490" on="1"/>
        <pt x="153" y="750" on="1"/>
        <pt x="231" y="750" on="1"/>
        <pt x="351" y="490" on="1"/>
        <pt x="277" y="490" on="1"/>
      </contour>
    </TTGlyph>
    <TTGlyph name="asciitilde" xMin="55" yMin="242" xMax="368" yMax="364">
      <contour>
        <pt x="368" y="322" on="0"/>
        <pt x="359" y="276" on="0"/>
        <pt x="328" y="253" on="0"/>
        <pt x="295" y="253" on="1"/>
        <pt x="274" y="253" on="0"/>
        <pt x="231" y="263" on="0"/>
        <pt x="201" y="273" on="1"/>
        <pt x="183" y="280" on="0"/>
        <pt x="148" y="291" on="0"/>
        <pt x="135" y="291" on="1"/>
        <pt x="118" y="291" on="0"/>
        <pt x="107" y="270" on="0"/>
        <pt x="107" y="242" on="1"/>
        <pt x="55" y="242" on="1"/>
        <pt x="55" y="284" on="0"/>
        <pt x="64" y="330" on="0"/>
        <pt x="95" y="353" on="0"/>
        <pt x="128" y="353" on="1"/>
        <pt x="147" y="353" on="0"/>
        <pt x="186" y="343" on="0"/>
        <pt x="219" y="333" on="0"/>
        <pt x="224" y="331" on="1"/>
        <pt x="231" y="329" on="0"/>
        <pt x="274" y="315" on="0"/>
        <pt x="289" y="315" on="1"/>
        <pt x="306" y="315" on="0"/>
        <pt x="316" y="336" on="0"/>
        <pt x="316" y="364" on="1"/>
        <pt x="368" y="364" on="1"/>
      </contour>
    </TTGlyph>
    <TTGlyph name="asterisk" xMin="44" yMin="378" xMax="344" yMax="688">
      <contour>
        <pt x="223" y="378" on="1"/>
        <pt x="166" y="378" on="1"/>
        <pt x="174" y="497" on="1"/>
        <pt x="73" y="429" on="1"/>
        <pt x="45" y="479" on="1"/>
        <pt x="153" y="532" on="1"/>
        <pt x="44" y="586" on="1"/>
        <pt x="73" y="635" on="1"/>
        <pt x="174" y="568" on="1"/>
        <pt x="166" y="688" on="1"/>
        <pt x="223" y="688" on="1"/>
        <pt x="214" y="568" on="1"/>
        <pt x="316" y="636" on="1"/>
        <pt x="343" y="586" on="1"/>
        <pt x="235" y="533" on="1"/>
        <pt x="344" y="479" on="1"/>
        <pt x="316" y="430" on="1"/>
        <pt x="214" y="497" on="1"/>
      </contour>
    </TTGlyph>
    <TTGlyph name="asterisk.ss02" xMin="35" yMin="-14" xMax="782" yMax="705">
      <contour>
        <pt x="269" y="262" on="1"/>
        <pt x="35" y="436" on="1"/>
        <pt x="322" y="436" on="1"/>
        <pt x="409" y="705" on="1"/>
        <pt x="494" y="436" on="1"/>
        <pt x="782" y="436" on="1"/>
        <pt x="550" y="262" on="1"/>
        <pt x="640" y="-14" on="1"/>
        <pt x="409" y="156" on="1"/>
        <pt x="178" y="-14" on="1"/>
      </contour>
    </TTGlyph>
    <TTGlyph name="at" xMin="51" yMin="-108" xMax="534" yMax="696">
      <contour>
        <pt x="170" y="-108" on="0"/>
        <pt x="75" y="-54" on="0"/>
        <pt x="51" y="96" on="0"/>
        <pt x="51" y="294" on="1"/>
        <pt x="51" y="492" on="0"/>
        <pt x="75" y="642" on="0"/>
        <pt x="170" y="696" on="0"/>
        <pt x="293" y="696" on="1"/>
        <pt x="415" y="696" on="0"/>
        <pt x="510" y="642" on="0"/>
        <pt x="534" y="493" on="0"/>
        <pt x="534" y="294" on="1"/>
        <pt x="534" y="189" on="0"/>
        <pt x="517" y="98" on="0"/>
        <pt x="483" y="75" on="0"/>
        <pt x="445" y="75" on="1"/>
        <pt x="346" y="75" on="1"/>
        <pt x="342" y="131" on="1"/>
        <pt x="337" y="131" on="1"/>
        <pt x="325" y="68" on="0"/>
        <pt x="263" y="68" on="1"/>
        <pt x="214" y="68" on="0"/>
        <pt x="174" y="125" on="0"/>
        <pt x="174" y="197" on="1"/>
        <pt x="174" y="270" on="0"/>
        <pt x="213" y="327" on="0"/>
        <pt x="265" y="327" on="1"/>
        <pt x="280" y="327" on="0"/>
        <pt x="340" y="323" on="1"/>
        <pt x="340" y="353" on="1"/>
        <pt x="340" y="401" on="0"/>
        <pt x="331" y="442" on="0"/>
        <pt x="304" y="456" on="0"/>
        <pt x="272" y="456" on="1"/>
        <pt x="234" y="456" on="0"/>
        <pt x="192" y="448" on="1"/>
        <pt x="192" y="508" on="1"/>
        <pt x="240" y="518" on="0"/>
        <pt x="293" y="518" on="1"/>
        <pt x="341" y="518" on="0"/>
        <pt x="390" y="488" on="0"/>
        <pt x="409" y="417" on="0"/>
        <pt x="409" y="351" on="1"/>
        <pt x="409" y="119" on="1"/>
        <pt x="450" y="119" on="1"/>
        <pt x="467" y="119" on="0"/>
        <pt x="481" y="136" on="0"/>
        <pt x="487" y="208" on="0"/>
        <pt x="487" y="294" on="1"/>
        <pt x="487" y="453" on="0"/>
        <pt x="477" y="581" on="0"/>
        <pt x="437" y="641" on="0"/>
        <pt x="387" y="648" on="1"/>
        <pt x="360" y="652" on="0"/>
        <pt x="292" y="652" on="1"/>
        <pt x="238" y="652" on="0"/>
        <pt x="210" y="650" on="1"/>
        <pt x="154" y="645" on="0"/>
        <pt x="108" y="590" on="0"/>
        <pt x="97" y="459" on="0"/>
        <pt x="97" y="294" on="1"/>
        <pt x="97" y="130" on="0"/>
        <pt x="110" y="-1" on="0"/>
        <pt x="160" y="-57" on="0"/>
        <pt x="222" y="-62" on="1"/>
        <pt x="256" y="-64" on="0"/>
        <pt x="293" y="-64" on="1"/>
        <pt x="382" y="-64" on="0"/>
        <pt x="409" y="-61" on="1"/>
        <pt x="409" y="-106" on="1"/>
        <pt x="388" y="-108" on="0"/>
        <pt x="293" y="-108" on="1"/>
      </contour>
      <contour>
        <pt x="306" y="133" on="0"/>
        <pt x="330" y="152" on="0"/>
        <pt x="340" y="199" on="0"/>
        <pt x="340" y="245" on="1"/>
        <pt x="340" y="274" on="1"/>
        <pt x="282" y="274" on="1"/>
        <pt x="265" y="274" on="0"/>
        <pt x="248" y="264" on="0"/>
        <pt x="241" y="234" on="0"/>
        <pt x="241" y="202" on="1"/>
        <pt x="241" y="160" on="0"/>
        <pt x="257" y="133" on="0"/>
        <pt x="283" y="133" on="1"/>
      </contour>
    </TTGlyph>
    <TTGlyph name="atilde" xMin="24" yMin="-8" xMax="320" yMax="743">
      <component glyphName="a" x="0" y="0" flags="0x0"/>
      <component glyphName="tilde" x="56" y="0" flags="0x0"/>
    </TTGlyph>
    <TTGlyph name="b" xMin="48" yMin="-8" xMax="353" yMax="743">
      <contour>
        <pt x="192" y="-8" on="0"/>
        <pt x="141" y="24" on="0"/>
        <pt x="131" y="67" on="1"/>
        <pt x="125" y="67" on="1"/>
        <pt x="121" y="0" on="1"/>
        <pt x="48" y="0" on="1"/>
        <pt x="48" y="743" on="1"/>
        <pt x="128" y="743" on="1"/>
        <pt x="128" y="450" on="1"/>
        <pt x="134" y="450" on="1"/>
        <pt x="143" y="485" on="0"/>
        <pt x="190" y="518" on="0"/>
        <pt x="230" y="518" on="1"/>
        <pt x="281" y="518" on="0"/>
        <pt x="333" y="473" on="0"/>
        <pt x="353" y="363" on="0"/>
        <pt x="353" y="255" on="1"/>
        <pt x="353" y="146" on="0"/>
        <pt x="332" y="35" on="0"/>
        <pt x="280" y="-8" on="0"/>
        <pt x="229" y="-8" on="1"/>
      </contour>
      <contour>
        <pt x="234" y="65" on="0"/>
        <pt x="263" y="89" on="0"/>
        <pt x="273" y="165" on="0"/>
        <pt x="273" y="255" on="1"/>
        <pt x="273" y="345" on="0"/>
        <pt x="263" y="422" on="0"/>
        <pt x="234" y="446" on="0"/>
        <pt x="200" y="446" on="1"/>
        <pt x="173" y="446" on="0"/>
        <pt x="142" y="421" on="0"/>
        <pt x="136" y="393" on="1"/>
        <pt x="131" y="370" on="0"/>
        <pt x="128" y="308" on="0"/>
        <pt x="128" y="255" on="1"/>
        <pt x="128" y="200" on="0"/>
        <pt x="130" y="143" on="0"/>
        <pt x="135" y="120" on="1"/>
        <pt x="141" y="89" on="0"/>
        <pt x="171" y="65" on="0"/>
        <pt x="200" y="65" on="1"/>
      </contour>
    </TTGlyph>
    <TTGlyph name="backslash" xMin="25" yMin="-55" xMax="243" yMax="743">
      <contour>
        <pt x="25" y="743" on="1"/>
        <pt x="98" y="743" on="1"/>
        <pt x="243" y="-55" on="1"/>
        <pt x="169" y="-55" on="1"/>
      </contour>
    </TTGlyph>
    <TTGlyph name="bar" xMin="64" yMin="-161" xMax="140" yMax="743">
      <contour>
        <pt x="64" y="743" on="1"/>
        <pt x="140" y="743" on="1"/>
        <pt x="140" y="-161" on="1"/>
        <pt x="64" y="-161" on="1"/>
      </contour>
    </TTGlyph>
    <TTGlyph name="bar.ss02" xMin="-1" yMin="0" xMax="499" yMax="696">
      <contour>
        <pt x="-1" y="696" on="1"/>
        <pt x="499" y="696" on="1"/>
        <pt x="499" y="0" on="1"/>
        <pt x="-1" y="0" on="1"/>
      </contour>
    </TTGlyph>
    <TTGlyph name="braceleft" xMin="20" yMin="-150" xMax="234" yMax="743">
      <contour>
        <pt x="138" y="-126" on="0"/>
        <pt x="88" y="-24" on="0"/>
        <pt x="88" y="31" on="1"/>
        <pt x="88" y="153" on="1"/>
        <pt x="88" y="269" on="0"/>
        <pt x="20" y="275" on="1"/>
        <pt x="20" y="318" on="1"/>
        <pt x="88" y="324" on="0"/>
        <pt x="88" y="440" on="1"/>
        <pt x="88" y="562" on="1"/>
        <pt x="88" y="617" on="0"/>
        <pt x="138" y="719" on="0"/>
        <pt x="177" y="743" on="1"/>
        <pt x="234" y="743" on="1"/>
        <pt x="200" y="706" on="0"/>
        <pt x="168" y="620" on="0"/>
        <pt x="168" y="561" on="1"/>
        <pt x="168" y="446" on="1"/>
        <pt x="168" y="322" on="0"/>
        <pt x="92" y="299" on="1"/>
        <pt x="92" y="294" on="1"/>
        <pt x="168" y="271" on="0"/>
        <pt x="168" y="147" on="1"/>
        <pt x="168" y="32" on="1"/>
        <pt x="168" y="-27" on="0"/>
        <pt x="200" y="-113" on="0"/>
        <pt x="234" y="-150" on="1"/>
        <pt x="177" y="-150" on="1"/>
      </contour>
    </TTGlyph>
    <TTGlyph name="braceright" xMin="17" yMin="-150" xMax="231" yMax="743">
      <contour>
        <pt x="52" y="-113" on="0"/>
        <pt x="84" y="-27" on="0"/>
        <pt x="84" y="32" on="1"/>
        <pt x="84" y="147" on="1"/>
        <pt x="84" y="270" on="0"/>
        <pt x="159" y="294" on="1"/>
        <pt x="159" y="299" on="1"/>
        <pt x="84" y="323" on="0"/>
        <pt x="84" y="446" on="1"/>
        <pt x="84" y="561" on="1"/>
        <pt x="84" y="620" on="0"/>
        <pt x="52" y="706" on="0"/>
        <pt x="17" y="743" on="1"/>
        <pt x="75" y="743" on="1"/>
        <pt x="113" y="719" on="0"/>
        <pt x="163" y="617" on="0"/>
        <pt x="163" y="562" on="1"/>
        <pt x="163" y="440" on="1"/>
        <pt x="163" y="324" on="0"/>
        <pt x="231" y="318" on="1"/>
        <pt x="231" y="275" on="1"/>
        <pt x="163" y="269" on="0"/>
        <pt x="163" y="153" on="1"/>
        <pt x="163" y="31" on="1"/>
        <pt x="163" y="-24" on="0"/>
        <pt x="113" y="-126" on="0"/>
        <pt x="75" y="-150" on="1"/>
        <pt x="17" y="-150" on="1"/>
      </contour>
    </TTGlyph>
    <TTGlyph name="bracketleft" xMin="53" yMin="-150" xMax="206" yMax="743">
      <contour>
        <pt x="53" y="743" on="1"/>
        <pt x="206" y="743" on="1"/>
        <pt x="206" y="686" on="1"/>
        <pt x="133" y="682" on="1"/>
        <pt x="133" y="-89" on="1"/>
        <pt x="206" y="-93" on="1"/>
        <pt x="206" y="-150" on="1"/>
        <pt x="53" y="-150" on="1"/>
      </contour>
    </TTGlyph>
    <TTGlyph name="bracketleft.ss02" xMin="45" yMin="0" xMax="397" yMax="696">
      <contour>
        <pt x="45" y="0" on="1"/>
        <pt x="45" y="348" on="1"/>
        <pt x="45" y="449" on="0"/>
        <pt x="135" y="608" on="0"/>
        <pt x="295" y="696" on="0"/>
        <pt x="397" y="696" on="1"/>
        <pt x="397" y="0" on="1"/>
      </contour>
    </TTGlyph>
    <TTGlyph name="bracketright" xMin="25" yMin="-150" xMax="177" yMax="743">
      <contour>
        <pt x="25" y="-93" on="1"/>
        <pt x="97" y="-89" on="1"/>
        <pt x="97" y="682" on="1"/>
        <pt x="25" y="686" on="1"/>
        <pt x="25" y="743" on="1"/>
        <pt x="177" y="743" on="1"/>
        <pt x="177" y="-150" on="1"/>
        <pt x="25" y="-150" on="1"/>
      </contour>
    </TTGlyph>
    <TTGlyph name="bracketright.ss02" xMin="0" yMin="0" xMax="352" yMax="696">
      <contour>
        <pt x="0" y="696" on="1"/>
        <pt x="102" y="696" on="0"/>
        <pt x="262" y="608" on="0"/>
        <pt x="352" y="449" on="0"/>
        <pt x="352" y="348" on="1"/>
        <pt x="352" y="0" on="1"/>
        <pt x="0" y="0" on="1"/>
      </contour>
    </TTGlyph>
    <TTGlyph name="breve" xMin="0" yMin="607" xMax="214" yMax="743">
      <contour>
        <pt x="214" y="696" on="0"/>
        <pt x="200" y="640" on="0"/>
        <pt x="154" y="607" on="0"/>
        <pt x="107" y="607" on="1"/>
        <pt x="60" y="607" on="0"/>
        <pt x="14" y="640" on="0"/>
        <pt x="0" y="696" on="0"/>
        <pt x="0" y="743" on="1"/>
        <pt x="56" y="743" on="1"/>
        <pt x="56" y="710" on="0"/>
        <pt x="61" y="677" on="0"/>
        <pt x="83" y="658" on="0"/>
        <pt x="107" y="658" on="1"/>
        <pt x="131" y="658" on="0"/>
        <pt x="153" y="677" on="0"/>
        <pt x="158" y="710" on="0"/>
        <pt x="158" y="743" on="1"/>
        <pt x="214" y="743" on="1"/>
      </contour>
    </TTGlyph>
    <TTGlyph name="brokenbar" xMin="64" yMin="-161" xMax="140" yMax="743">
      <contour>
        <pt x="64" y="743" on="1"/>
        <pt x="140" y="743" on="1"/>
        <pt x="140" y="390" on="1"/>
        <pt x="64" y="390" on="1"/>
      </contour>
      <contour>
        <pt x="64" y="192" on="1"/>
        <pt x="140" y="192" on="1"/>
        <pt x="140" y="-161" on="1"/>
        <pt x="64" y="-161" on="1"/>
      </contour>
    </TTGlyph>
    <TTGlyph name="bullet" xMin="44" yMin="259" xMax="213" yMax="428">
      <contour>
        <pt x="213" y="303" on="0"/>
        <pt x="204" y="271" on="0"/>
        <pt x="169" y="259" on="0"/>
        <pt x="126" y="259" on="1"/>
        <pt x="86" y="259" on="0"/>
        <pt x="53" y="271" on="0"/>
        <pt x="44" y="303" on="0"/>
        <pt x="44" y="342" on="1"/>
        <pt x="44" y="383" on="0"/>
        <pt x="53" y="416" on="0"/>
        <pt x="86" y="428" on="0"/>
        <pt x="126" y="428" on="1"/>
        <pt x="169" y="428" on="0"/>
        <pt x="204" y="416" on="0"/>
        <pt x="213" y="383" on="0"/>
        <pt x="213" y="342" on="1"/>
      </contour>
    </TTGlyph>
    <TTGlyph name="bullet.ss02" xMin="40" yMin="-8" xMax="743" yMax="696">
      <contour>
        <pt x="343" y="421" on="0"/>
        <pt x="279" y="480" on="0"/>
        <pt x="279" y="533" on="1"/>
        <pt x="279" y="575" on="0"/>
        <pt x="318" y="650" on="0"/>
        <pt x="373" y="696" on="0"/>
        <pt x="392" y="696" on="1"/>
        <pt x="411" y="696" on="0"/>
        <pt x="465" y="650" on="0"/>
        <pt x="504" y="575" on="0"/>
        <pt x="504" y="533" on="1"/>
        <pt x="504" y="480" on="0"/>
        <pt x="441" y="421" on="0"/>
        <pt x="392" y="421" on="1"/>
      </contour>
      <contour>
        <pt x="415" y="481" on="0"/>
        <pt x="444" y="508" on="0"/>
        <pt x="444" y="533" on="1"/>
        <pt x="444" y="560" on="0"/>
        <pt x="426" y="607" on="0"/>
        <pt x="401" y="636" on="0"/>
        <pt x="392" y="636" on="1"/>
        <pt x="383" y="636" on="0"/>
        <pt x="358" y="607" on="0"/>
        <pt x="339" y="560" on="0"/>
        <pt x="339" y="533" on="1"/>
        <pt x="339" y="508" on="0"/>
        <pt x="369" y="481" on="0"/>
        <pt x="392" y="481" on="1"/>
      </contour>
      <contour>
        <pt x="161" y="231" on="0"/>
        <pt x="86" y="270" on="0"/>
        <pt x="40" y="325" on="0"/>
        <pt x="40" y="344" on="1"/>
        <pt x="40" y="363" on="0"/>
        <pt x="86" y="417" on="0"/>
        <pt x="161" y="456" on="0"/>
        <pt x="203" y="456" on="1"/>
        <pt x="256" y="456" on="0"/>
        <pt x="315" y="393" on="0"/>
        <pt x="315" y="344" on="1"/>
        <pt x="315" y="295" on="0"/>
        <pt x="256" y="231" on="0"/>
        <pt x="203" y="231" on="1"/>
      </contour>
      <contour>
        <pt x="527" y="231" on="0"/>
        <pt x="468" y="295" on="0"/>
        <pt x="468" y="344" on="1"/>
        <pt x="468" y="393" on="0"/>
        <pt x="527" y="456" on="0"/>
        <pt x="581" y="456" on="1"/>
        <pt x="622" y="456" on="0"/>
        <pt x="697" y="417" on="0"/>
        <pt x="743" y="363" on="0"/>
        <pt x="743" y="344" on="1"/>
        <pt x="743" y="325" on="0"/>
        <pt x="697" y="270" on="0"/>
        <pt x="623" y="231" on="0"/>
        <pt x="581" y="231" on="1"/>
      </contour>
      <contour>
        <pt x="228" y="291" on="0"/>
        <pt x="255" y="321" on="0"/>
        <pt x="255" y="344" on="1"/>
        <pt x="255" y="367" on="0"/>
        <pt x="228" y="396" on="0"/>
        <pt x="203" y="396" on="1"/>
        <pt x="176" y="396" on="0"/>
        <pt x="129" y="378" on="0"/>
        <pt x="100" y="353" on="0"/>
        <pt x="100" y="344" on="1"/>
        <pt x="100" y="335" on="0"/>
        <pt x="129" y="310" on="0"/>
        <pt x="176" y="291" on="0"/>
        <pt x="203" y="291" on="1"/>
      </contour>
      <contour>
        <pt x="607" y="291" on="0"/>
        <pt x="654" y="310" on="0"/>
        <pt x="683" y="335" on="0"/>
        <pt x="683" y="344" on="1"/>
        <pt x="683" y="353" on="0"/>
        <pt x="654" y="378" on="0"/>
        <pt x="607" y="396" on="0"/>
        <pt x="581" y="396" on="1"/>
        <pt x="556" y="396" on="0"/>
        <pt x="528" y="367" on="0"/>
        <pt x="528" y="344" on="1"/>
        <pt x="528" y="321" on="0"/>
        <pt x="556" y="291" on="0"/>
        <pt x="581" y="291" on="1"/>
      </contour>
      <contour>
        <pt x="373" y="-8" on="0"/>
        <pt x="318" y="38" on="0"/>
        <pt x="279" y="113" on="0"/>
        <pt x="279" y="155" on="1"/>
        <pt x="279" y="208" on="0"/>
        <pt x="343" y="267" on="0"/>
        <pt x="392" y="267" on="1"/>
        <pt x="441" y="267" on="0"/>
        <pt x="504" y="208" on="0"/>
        <pt x="504" y="155" on="1"/>
        <pt x="504" y="113" on="0"/>
        <pt x="465" y="38" on="0"/>
        <pt x="411" y="-8" on="0"/>
        <pt x="392" y="-8" on="1"/>
      </contour>
      <contour>
        <pt x="401" y="52" on="0"/>
        <pt x="426" y="81" on="0"/>
        <pt x="444" y="128" on="0"/>
        <pt x="444" y="155" on="1"/>
        <pt x="444" y="180" on="0"/>
        <pt x="415" y="207" on="0"/>
        <pt x="392" y="207" on="1"/>
        <pt x="369" y="207" on="0"/>
        <pt x="339" y="180" on="0"/>
        <pt x="339" y="155" on="1"/>
        <pt x="339" y="128" on="0"/>
        <pt x="358" y="81" on="0"/>
        <pt x="383" y="52" on="0"/>
        <pt x="392" y="52" on="1"/>
      </contour>
    </TTGlyph>
    <TTGlyph name="c" xMin="36" yMin="-8" xMax="273" yMax="518">
      <contour>
        <pt x="229" y="-8" on="0"/>
        <pt x="180" y="-8" on="1"/>
        <pt x="117" y="-8" on="0"/>
        <pt x="55" y="44" on="0"/>
        <pt x="36" y="152" on="0"/>
        <pt x="36" y="254" on="1"/>
        <pt x="36" y="359" on="0"/>
        <pt x="59" y="470" on="0"/>
        <pt x="120" y="518" on="0"/>
        <pt x="179" y="518" on="1"/>
        <pt x="228" y="518" on="0"/>
        <pt x="270" y="507" on="1"/>
        <pt x="270" y="441" on="1"/>
        <pt x="228" y="449" on="0"/>
        <pt x="199" y="449" on="1"/>
        <pt x="162" y="449" on="0"/>
        <pt x="128" y="421" on="0"/>
        <pt x="116" y="343" on="0"/>
        <pt x="116" y="256" on="1"/>
        <pt x="116" y="166" on="0"/>
        <pt x="128" y="87" on="0"/>
        <pt x="162" y="61" on="0"/>
        <pt x="201" y="61" on="1"/>
        <pt x="237" y="61" on="0"/>
        <pt x="273" y="70" on="1"/>
        <pt x="273" y="5" on="1"/>
      </contour>
    </TTGlyph>
    <TTGlyph name="cacute" xMin="36" yMin="-8" xMax="273" yMax="743">
      <component glyphName="c" x="0" y="0" flags="0x0"/>
      <component glyphName="acutecomb" x="230" y="0" flags="0x0"/>
    </TTGlyph>
    <TTGlyph name="cacute.loclPLK" xMin="36" yMin="-8" xMax="273" yMax="743">
      <component glyphName="c" x="0" y="0" flags="0x0"/>
      <component glyphName="acute.loclPLK" x="114" y="0" flags="0x0"/>
    </TTGlyph>
    <TTGlyph name="caron" xMin="0" yMin="611" xMax="220" yMax="743">
      <contour>
        <pt x="0" y="736" on="1"/>
        <pt x="0" y="743" on="1"/>
        <pt x="57" y="743" on="1"/>
        <pt x="110" y="656" on="1"/>
        <pt x="163" y="743" on="1"/>
        <pt x="220" y="743" on="1"/>
        <pt x="220" y="736" on="1"/>
        <pt x="153" y="611" on="1"/>
        <pt x="67" y="611" on="1"/>
      </contour>
    </TTGlyph>
    <TTGlyph name="caron.loclCSY" xMin="26" yMin="440" xMax="119" yMax="688">
      <contour>
        <pt x="40" y="618" on="1"/>
        <pt x="40" y="688" on="1"/>
        <pt x="119" y="688" on="1"/>
        <pt x="119" y="618" on="1"/>
        <pt x="84" y="440" on="1"/>
        <pt x="26" y="440" on="1"/>
      </contour>
    </TTGlyph>
    <TTGlyph name="ccaron" xMin="36" yMin="-8" xMax="273" yMax="743">
      <component glyphName="c" x="0" y="0" flags="0x0"/>
      <component glyphName="uni030C" x="259" y="0" flags="0x0"/>
    </TTGlyph>
    <TTGlyph name="ccedilla" xMin="36" yMin="-189" xMax="273" yMax="518">
      <contour>
        <pt x="237" y="61" on="0"/>
        <pt x="273" y="70" on="1"/>
        <pt x="273" y="5" on="1"/>
        <pt x="229" y="-8" on="0"/>
        <pt x="180" y="-8" on="1"/>
        <pt x="174" y="-8" on="1"/>
        <pt x="137" y="-189" on="1"/>
        <pt x="64" y="-189" on="1"/>
        <pt x="64" y="-184" on="1"/>
        <pt x="120" y="0" on="1"/>
        <pt x="84" y="11" on="0"/>
        <pt x="48" y="72" on="0"/>
        <pt x="36" y="170" on="0"/>
        <pt x="36" y="254" on="1"/>
        <pt x="36" y="359" on="0"/>
        <pt x="59" y="470" on="0"/>
        <pt x="120" y="518" on="0"/>
        <pt x="179" y="518" on="1"/>
        <pt x="228" y="518" on="0"/>
        <pt x="270" y="507" on="1"/>
        <pt x="270" y="441" on="1"/>
        <pt x="228" y="449" on="0"/>
        <pt x="199" y="449" on="1"/>
        <pt x="162" y="449" on="0"/>
        <pt x="128" y="421" on="0"/>
        <pt x="116" y="343" on="0"/>
        <pt x="116" y="256" on="1"/>
        <pt x="116" y="166" on="0"/>
        <pt x="128" y="87" on="0"/>
        <pt x="162" y="61" on="0"/>
        <pt x="201" y="61" on="1"/>
      </contour>
    </TTGlyph>
    <TTGlyph name="ccircumflex" xMin="36" yMin="-8" xMax="273" yMax="743">
      <component glyphName="c" x="0" y="0" flags="0x0"/>
      <component glyphName="uni0302" x="259" y="0" flags="0x0"/>
    </TTGlyph>
    <TTGlyph name="cdotaccent" xMin="36" yMin="-8" xMax="273" yMax="730">
      <component glyphName="c" x="0" y="0" flags="0x0"/>
      <component glyphName="uni0307" x="196" y="0" flags="0x0"/>
    </TTGlyph>
    <TTGlyph name="cedilla" xMin="11" yMin="-189" xMax="123" yMax="8">
      <contour>
        <pt x="11" y="-184" on="1"/>
        <pt x="70" y="8" on="1"/>
        <pt x="123" y="8" on="1"/>
        <pt x="123" y="3" on="1"/>
        <pt x="84" y="-189" on="1"/>
        <pt x="11" y="-189" on="1"/>
      </contour>
    </TTGlyph>
    <TTGlyph name="cent" xMin="40" yMin="-8" xMax="285" yMax="696">
      <contour>
        <pt x="158" y="69" on="1"/>
        <pt x="107" y="76" on="0"/>
        <pt x="56" y="136" on="0"/>
        <pt x="40" y="244" on="0"/>
        <pt x="40" y="342" on="1"/>
        <pt x="40" y="442" on="0"/>
        <pt x="60" y="554" on="0"/>
        <pt x="110" y="609" on="0"/>
        <pt x="158" y="615" on="1"/>
        <pt x="158" y="696" on="1"/>
        <pt x="221" y="696" on="1"/>
        <pt x="221" y="617" on="1"/>
        <pt x="260" y="613" on="0"/>
        <pt x="283" y="606" on="1"/>
        <pt x="283" y="537" on="1"/>
        <pt x="246" y="545" on="0"/>
        <pt x="210" y="545" on="1"/>
        <pt x="170" y="545" on="0"/>
        <pt x="134" y="515" on="0"/>
        <pt x="122" y="434" on="0"/>
        <pt x="122" y="343" on="1"/>
        <pt x="122" y="251" on="0"/>
        <pt x="133" y="169" on="0"/>
        <pt x="169" y="139" on="0"/>
        <pt x="210" y="139" on="1"/>
        <pt x="224" y="139" on="0"/>
        <pt x="269" y="145" on="0"/>
        <pt x="285" y="149" on="1"/>
        <pt x="285" y="81" on="1"/>
        <pt x="258" y="71" on="0"/>
        <pt x="221" y="68" on="1"/>
        <pt x="221" y="-8" on="1"/>
        <pt x="158" y="-8" on="1"/>
      </contour>
    </TTGlyph>
    <TTGlyph name="cent.bold" xMin="40" yMin="-8" xMax="285" yMax="696">
      <contour>
        <pt x="285" y="81" on="1"/>
        <pt x="250" y="70" on="0"/>
        <pt x="221" y="68" on="1"/>
        <pt x="221" y="-8" on="1"/>
        <pt x="158" y="-8" on="1"/>
        <pt x="158" y="68" on="1"/>
        <pt x="107" y="74" on="0"/>
        <pt x="56" y="136" on="0"/>
        <pt x="40" y="246" on="0"/>
        <pt x="40" y="342" on="1"/>
        <pt x="40" y="441" on="0"/>
        <pt x="59" y="553" on="0"/>
        <pt x="110" y="610" on="0"/>
        <pt x="158" y="616" on="1"/>
        <pt x="158" y="696" on="1"/>
        <pt x="221" y="696" on="1"/>
        <pt x="221" y="617" on="1"/>
        <pt x="254" y="614" on="0"/>
        <pt x="283" y="606" on="1"/>
        <pt x="283" y="537" on="1"/>
        <pt x="255" y="543" on="0"/>
        <pt x="221" y="545" on="1"/>
        <pt x="221" y="139" on="1"/>
        <pt x="244" y="140" on="0"/>
        <pt x="285" y="149" on="1"/>
      </contour>
      <contour>
        <pt x="122" y="245" on="0"/>
        <pt x="136" y="162" on="0"/>
        <pt x="158" y="148" on="1"/>
        <pt x="158" y="535" on="1"/>
        <pt x="136" y="522" on="0"/>
        <pt x="122" y="440" on="0"/>
        <pt x="122" y="343" on="1"/>
      </contour>
    </TTGlyph>
    <TTGlyph name="circumflex" xMin="0" yMin="611" xMax="220" yMax="743">
      <contour>
        <pt x="0" y="618" on="1"/>
        <pt x="67" y="743" on="1"/>
        <pt x="153" y="743" on="1"/>
        <pt x="220" y="618" on="1"/>
        <pt x="220" y="611" on="1"/>
        <pt x="163" y="611" on="1"/>
        <pt x="110" y="698" on="1"/>
        <pt x="57" y="611" on="1"/>
        <pt x="0" y="611" on="1"/>
      </contour>
    </TTGlyph>
    <TTGlyph name="colon" xMin="50" yMin="0" xMax="140" yMax="510">
      <contour>
        <pt x="50" y="510" on="1"/>
        <pt x="140" y="510" on="1"/>
        <pt x="140" y="413" on="1"/>
        <pt x="50" y="413" on="1"/>
      </contour>
      <contour>
        <pt x="50" y="97" on="1"/>
        <pt x="140" y="97" on="1"/>
        <pt x="140" y="0" on="1"/>
        <pt x="50" y="0" on="1"/>
      </contour>
    </TTGlyph>
    <TTGlyph name="comma" xMin="36" yMin="-127" xMax="140" yMax="97">
      <contour>
        <pt x="57" y="-87" on="0"/>
        <pt x="77" y="-74" on="0"/>
        <pt x="82" y="-46" on="0"/>
        <pt x="82" y="-16" on="1"/>
        <pt x="82" y="0" on="1"/>
        <pt x="49" y="0" on="1"/>
        <pt x="49" y="97" on="1"/>
        <pt x="140" y="97" on="1"/>
        <pt x="140" y="14" on="1"/>
        <pt x="140" y="-45" on="0"/>
        <pt x="125" y="-102" on="0"/>
        <pt x="81" y="-127" on="0"/>
        <pt x="36" y="-127" on="1"/>
        <pt x="36" y="-87" on="1"/>
      </contour>
    </TTGlyph>
    <TTGlyph name="copyright" xMin="59" yMin="-8" xMax="443" yMax="696">
      <contour>
        <pt x="155" y="-8" on="0"/>
        <pt x="80" y="39" on="0"/>
        <pt x="59" y="173" on="0"/>
        <pt x="59" y="344" on="1"/>
        <pt x="59" y="515" on="0"/>
        <pt x="80" y="649" on="0"/>
        <pt x="155" y="696" on="0"/>
        <pt x="251" y="696" on="1"/>
        <pt x="347" y="696" on="0"/>
        <pt x="422" y="649" on="0"/>
        <pt x="443" y="515" on="0"/>
        <pt x="443" y="344" on="1"/>
        <pt x="443" y="173" on="0"/>
        <pt x="422" y="39" on="0"/>
        <pt x="347" y="-8" on="0"/>
        <pt x="251" y="-8" on="1"/>
      </contour>
      <contour>
        <pt x="331" y="28" on="0"/>
        <pt x="389" y="63" on="0"/>
        <pt x="405" y="181" on="0"/>
        <pt x="405" y="344" on="1"/>
        <pt x="405" y="507" on="0"/>
        <pt x="389" y="625" on="0"/>
        <pt x="331" y="660" on="0"/>
        <pt x="251" y="660" on="1"/>
        <pt x="171" y="660" on="0"/>
        <pt x="113" y="625" on="0"/>
        <pt x="97" y="507" on="0"/>
        <pt x="97" y="344" on="1"/>
        <pt x="97" y="181" on="0"/>
        <pt x="113" y="63" on="0"/>
        <pt x="171" y="28" on="0"/>
        <pt x="251" y="28" on="1"/>
      </contour>
      <contour>
        <pt x="226" y="155" on="0"/>
        <pt x="188" y="185" on="0"/>
        <pt x="176" y="262" on="0"/>
        <pt x="176" y="344" on="1"/>
        <pt x="176" y="425" on="0"/>
        <pt x="189" y="503" on="0"/>
        <pt x="226" y="533" on="0"/>
        <pt x="266" y="533" on="1"/>
        <pt x="297" y="533" on="0"/>
        <pt x="313" y="526" on="1"/>
        <pt x="313" y="481" on="1"/>
        <pt x="298" y="485" on="0"/>
        <pt x="275" y="485" on="1"/>
        <pt x="251" y="485" on="0"/>
        <pt x="232" y="467" on="0"/>
        <pt x="227" y="413" on="0"/>
        <pt x="227" y="344" on="1"/>
        <pt x="227" y="275" on="0"/>
        <pt x="232" y="221" on="0"/>
        <pt x="251" y="203" on="0"/>
        <pt x="275" y="203" on="1"/>
        <pt x="301" y="203" on="0"/>
        <pt x="314" y="207" on="1"/>
        <pt x="314" y="162" on="1"/>
        <pt x="291" y="155" on="0"/>
        <pt x="266" y="155" on="1"/>
      </contour>
    </TTGlyph>
    <TTGlyph name="currency" xMin="36" yMin="3" xMax="469" yMax="687">
      <contour>
        <pt x="36" y="53" on="1"/>
        <pt x="120" y="137" on="1"/>
        <pt x="107" y="165" on="0"/>
        <pt x="98" y="262" on="0"/>
        <pt x="98" y="347" on="1"/>
        <pt x="98" y="429" on="0"/>
        <pt x="107" y="524" on="0"/>
        <pt x="120" y="552" on="1"/>
        <pt x="36" y="637" on="1"/>
        <pt x="86" y="687" on="1"/>
        <pt x="172" y="602" on="1"/>
        <pt x="199" y="615" on="0"/>
        <pt x="252" y="615" on="1"/>
        <pt x="306" y="615" on="0"/>
        <pt x="334" y="601" on="1"/>
        <pt x="420" y="687" on="1"/>
        <pt x="469" y="636" on="1"/>
        <pt x="384" y="551" on="1"/>
        <pt x="397" y="524" on="0"/>
        <pt x="406" y="431" on="0"/>
        <pt x="406" y="347" on="1"/>
        <pt x="406" y="261" on="0"/>
        <pt x="398" y="166" on="0"/>
        <pt x="385" y="138" on="1"/>
        <pt x="469" y="53" on="1"/>
        <pt x="419" y="3" on="1"/>
        <pt x="334" y="88" on="1"/>
        <pt x="306" y="74" on="0"/>
        <pt x="252" y="74" on="1"/>
        <pt x="200" y="74" on="0"/>
        <pt x="171" y="87" on="1"/>
        <pt x="87" y="3" on="1"/>
      </contour>
      <contour>
        <pt x="288" y="143" on="0"/>
        <pt x="318" y="170" on="0"/>
        <pt x="326" y="249" on="0"/>
        <pt x="326" y="347" on="1"/>
        <pt x="326" y="443" on="0"/>
        <pt x="318" y="519" on="0"/>
        <pt x="288" y="546" on="0"/>
        <pt x="252" y="546" on="1"/>
        <pt x="216" y="546" on="0"/>
        <pt x="186" y="519" on="0"/>
        <pt x="178" y="443" on="0"/>
        <pt x="178" y="347" on="1"/>
        <pt x="178" y="249" on="0"/>
        <pt x="186" y="170" on="0"/>
        <pt x="216" y="143" on="0"/>
        <pt x="252" y="143" on="1"/>
      </contour>
    </TTGlyph>
    <TTGlyph name="d" xMin="36" yMin="-8" xMax="340" yMax="743">
      <contour>
        <pt x="108" y="-8" on="0"/>
        <pt x="56" y="35" on="0"/>
        <pt x="36" y="145" on="0"/>
        <pt x="36" y="255" on="1"/>
        <pt x="36" y="363" on="0"/>
        <pt x="55" y="473" on="0"/>
        <pt x="107" y="518" on="0"/>
        <pt x="158" y="518" on="1"/>
        <pt x="198" y="518" on="0"/>
        <pt x="245" y="485" on="0"/>
        <pt x="254" y="450" on="1"/>
        <pt x="260" y="450" on="1"/>
        <pt x="260" y="743" on="1"/>
        <pt x="340" y="743" on="1"/>
        <pt x="340" y="0" on="1"/>
        <pt x="267" y="0" on="1"/>
        <pt x="263" y="67" on="1"/>
        <pt x="257" y="67" on="1"/>
        <pt x="247" y="24" on="0"/>
        <pt x="196" y="-8" on="0"/>
        <pt x="159" y="-8" on="1"/>
      </contour>
      <contour>
        <pt x="217" y="65" on="0"/>
        <pt x="248" y="90" on="0"/>
        <pt x="254" y="121" on="1"/>
        <pt x="258" y="147" on="0"/>
        <pt x="260" y="219" on="0"/>
        <pt x="260" y="263" on="1"/>
        <pt x="260" y="347" on="0"/>
        <pt x="254" y="381" on="1"/>
        <pt x="247" y="418" on="0"/>
        <pt x="216" y="446" on="0"/>
        <pt x="186" y="446" on="1"/>
        <pt x="153" y="446" on="0"/>
        <pt x="125" y="422" on="0"/>
        <pt x="116" y="346" on="0"/>
        <pt x="116" y="255" on="1"/>
        <pt x="116" y="164" on="0"/>
        <pt x="126" y="89" on="0"/>
        <pt x="154" y="65" on="0"/>
        <pt x="188" y="65" on="1"/>
      </contour>
    </TTGlyph>
    <TTGlyph name="dagger" xMin="36" yMin="0" xMax="271" yMax="688">
      <contour>
        <pt x="115" y="443" on="1"/>
        <pt x="36" y="451" on="1"/>
        <pt x="36" y="508" on="1"/>
        <pt x="115" y="516" on="1"/>
        <pt x="122" y="688" on="1"/>
        <pt x="181" y="688" on="1"/>
        <pt x="188" y="516" on="1"/>
        <pt x="271" y="508" on="1"/>
        <pt x="271" y="451" on="1"/>
        <pt x="188" y="443" on="1"/>
        <pt x="181" y="0" on="1"/>
        <pt x="122" y="0" on="1"/>
      </contour>
    </TTGlyph>
    <TTGlyph name="daggerdbl" xMin="36" yMin="0" xMax="271" yMax="688">
      <contour>
        <pt x="115" y="172" on="1"/>
        <pt x="36" y="180" on="1"/>
        <pt x="36" y="237" on="1"/>
        <pt x="115" y="245" on="1"/>
        <pt x="115" y="443" on="1"/>
        <pt x="36" y="451" on="1"/>
        <pt x="36" y="508" on="1"/>
        <pt x="115" y="516" on="1"/>
        <pt x="122" y="688" on="1"/>
        <pt x="181" y="688" on="1"/>
        <pt x="188" y="516" on="1"/>
        <pt x="271" y="508" on="1"/>
        <pt x="271" y="451" on="1"/>
        <pt x="188" y="443" on="1"/>
        <pt x="188" y="245" on="1"/>
        <pt x="271" y="237" on="1"/>
        <pt x="271" y="180" on="1"/>
        <pt x="188" y="172" on="1"/>
        <pt x="181" y="0" on="1"/>
        <pt x="122" y="0" on="1"/>
      </contour>
    </TTGlyph>
    <TTGlyph name="dcaron" xMin="36" yMin="-8" xMax="463" yMax="743">
      <component glyphName="d" x="0" y="0" flags="0x0"/>
      <component glyphName="caron.loclCSY" x="344" y="0" flags="0x0"/>
    </TTGlyph>
    <TTGlyph name="dcroat" xMin="36" yMin="-8" xMax="385" yMax="743">
      <contour>
        <pt x="385" y="619" on="1"/>
        <pt x="340" y="619" on="1"/>
        <pt x="340" y="0" on="1"/>
        <pt x="267" y="0" on="1"/>
        <pt x="263" y="67" on="1"/>
        <pt x="257" y="67" on="1"/>
        <pt x="247" y="24" on="0"/>
        <pt x="196" y="-8" on="0"/>
        <pt x="159" y="-8" on="1"/>
        <pt x="108" y="-8" on="0"/>
        <pt x="56" y="35" on="0"/>
        <pt x="36" y="145" on="0"/>
        <pt x="36" y="255" on="1"/>
        <pt x="36" y="363" on="0"/>
        <pt x="55" y="473" on="0"/>
        <pt x="107" y="518" on="0"/>
        <pt x="158" y="518" on="1"/>
        <pt x="198" y="518" on="0"/>
        <pt x="245" y="485" on="0"/>
        <pt x="254" y="450" on="1"/>
        <pt x="260" y="450" on="1"/>
        <pt x="260" y="619" on="1"/>
        <pt x="161" y="619" on="1"/>
        <pt x="161" y="688" on="1"/>
        <pt x="260" y="688" on="1"/>
        <pt x="260" y="743" on="1"/>
        <pt x="340" y="743" on="1"/>
        <pt x="340" y="688" on="1"/>
        <pt x="385" y="688" on="1"/>
      </contour>
      <contour>
        <pt x="258" y="147" on="0"/>
        <pt x="260" y="219" on="0"/>
        <pt x="260" y="263" on="1"/>
        <pt x="260" y="347" on="0"/>
        <pt x="254" y="381" on="1"/>
        <pt x="247" y="418" on="0"/>
        <pt x="216" y="446" on="0"/>
        <pt x="186" y="446" on="1"/>
        <pt x="153" y="446" on="0"/>
        <pt x="125" y="422" on="0"/>
        <pt x="116" y="346" on="0"/>
        <pt x="116" y="255" on="1"/>
        <pt x="116" y="164" on="0"/>
        <pt x="126" y="89" on="0"/>
        <pt x="154" y="65" on="0"/>
        <pt x="188" y="65" on="1"/>
        <pt x="217" y="65" on="0"/>
        <pt x="248" y="90" on="0"/>
        <pt x="254" y="121" on="1"/>
      </contour>
    </TTGlyph>
    <TTGlyph name="degree" xMin="40" yMin="397" xMax="243" yMax="696">
      <contour>
        <pt x="93" y="397" on="0"/>
        <pt x="51" y="424" on="0"/>
        <pt x="40" y="481" on="0"/>
        <pt x="40" y="546" on="1"/>
        <pt x="40" y="611" on="0"/>
        <pt x="51" y="669" on="0"/>
        <pt x="93" y="696" on="0"/>
        <pt x="142" y="696" on="1"/>
        <pt x="190" y="696" on="0"/>
        <pt x="232" y="669" on="0"/>
        <pt x="243" y="611" on="0"/>
        <pt x="243" y="546" on="1"/>
        <pt x="243" y="482" on="0"/>
        <pt x="232" y="424" on="0"/>
        <pt x="190" y="397" on="0"/>
        <pt x="142" y="397" on="1"/>
      </contour>
      <contour>
        <pt x="164" y="446" on="0"/>
        <pt x="181" y="462" on="0"/>
        <pt x="185" y="498" on="0"/>
        <pt x="185" y="546" on="1"/>
        <pt x="185" y="594" on="0"/>
        <pt x="181" y="631" on="0"/>
        <pt x="164" y="647" on="0"/>
        <pt x="142" y="647" on="1"/>
        <pt x="120" y="647" on="0"/>
        <pt x="102" y="631" on="0"/>
        <pt x="98" y="594" on="0"/>
        <pt x="98" y="546" on="1"/>
        <pt x="98" y="498" on="0"/>
        <pt x="102" y="462" on="0"/>
        <pt x="120" y="446" on="0"/>
        <pt x="142" y="446" on="1"/>
      </contour>
    </TTGlyph>
    <TTGlyph name="dialog" xMin="59" yMin="-212" xMax="746" yMax="688">
      <contour>
        <pt x="306" y="-127" on="1"/>
        <pt x="494" y="60" on="1"/>
        <pt x="686" y="60" on="1"/>
        <pt x="686" y="628" on="1"/>
        <pt x="119" y="628" on="1"/>
        <pt x="119" y="60" on="1"/>
        <pt x="306" y="60" on="1"/>
        <pt x="306" y="0" on="1"/>
        <pt x="59" y="0" on="1"/>
        <pt x="59" y="688" on="1"/>
        <pt x="746" y="688" on="1"/>
        <pt x="746" y="0" on="1"/>
        <pt x="519" y="0" on="1"/>
        <pt x="306" y="-212" on="1"/>
      </contour>
    </TTGlyph>
    <TTGlyph name="dieresis" xMin="15" yMin="648" xMax="257" yMax="730">
      <contour>
        <pt x="15" y="730" on="1"/>
        <pt x="90" y="730" on="1"/>
        <pt x="90" y="648" on="1"/>
        <pt x="15" y="648" on="1"/>
      </contour>
      <contour>
        <pt x="182" y="730" on="1"/>
        <pt x="257" y="730" on="1"/>
        <pt x="257" y="648" on="1"/>
        <pt x="182" y="648" on="1"/>
      </contour>
    </TTGlyph>
    <TTGlyph name="divide" xMin="56" yMin="58" xMax="397" yMax="449">
      <contour>
        <pt x="188" y="449" on="1"/>
        <pt x="264" y="449" on="1"/>
        <pt x="264" y="377" on="1"/>
        <pt x="188" y="377" on="1"/>
      </contour>
      <contour>
        <pt x="56" y="289" on="1"/>
        <pt x="397" y="289" on="1"/>
        <pt x="397" y="218" on="1"/>
        <pt x="56" y="218" on="1"/>
      </contour>
      <contour>
        <pt x="188" y="130" on="1"/>
        <pt x="264" y="130" on="1"/>
        <pt x="264" y="58" on="1"/>
        <pt x="188" y="58" on="1"/>
      </contour>
    </TTGlyph>
    <TTGlyph name="dollar" xMin="41" yMin="-8" xMax="317" yMax="696">
      <contour>
        <pt x="152" y="70" on="1"/>
        <pt x="126" y="71" on="0"/>
        <pt x="69" y="79" on="0"/>
        <pt x="51" y="84" on="1"/>
        <pt x="51" y="151" on="1"/>
        <pt x="69" y="147" on="0"/>
        <pt x="129" y="141" on="0"/>
        <pt x="157" y="141" on="1"/>
        <pt x="201" y="141" on="0"/>
        <pt x="238" y="176" on="0"/>
        <pt x="238" y="224" on="1"/>
        <pt x="238" y="260" on="0"/>
        <pt x="231" y="292" on="0"/>
        <pt x="215" y="303" on="0"/>
        <pt x="197" y="306" on="1"/>
        <pt x="123" y="320" on="1"/>
        <pt x="75" y="330" on="0"/>
        <pt x="41" y="391" on="0"/>
        <pt x="41" y="463" on="1"/>
        <pt x="41" y="539" on="0"/>
        <pt x="96" y="609" on="0"/>
        <pt x="152" y="617" on="1"/>
        <pt x="152" y="696" on="1"/>
        <pt x="215" y="696" on="1"/>
        <pt x="215" y="618" on="1"/>
        <pt x="237" y="617" on="0"/>
        <pt x="284" y="610" on="0"/>
        <pt x="298" y="605" on="1"/>
        <pt x="298" y="537" on="1"/>
        <pt x="278" y="542" on="0"/>
        <pt x="219" y="548" on="0"/>
        <pt x="198" y="548" on="1"/>
        <pt x="155" y="548" on="0"/>
        <pt x="122" y="513" on="0"/>
        <pt x="122" y="469" on="1"/>
        <pt x="122" y="436" on="0"/>
        <pt x="129" y="405" on="0"/>
        <pt x="144" y="394" on="0"/>
        <pt x="162" y="391" on="1"/>
        <pt x="236" y="378" on="1"/>
        <pt x="266" y="372" on="0"/>
        <pt x="299" y="348" on="0"/>
        <pt x="317" y="287" on="0"/>
        <pt x="317" y="230" on="1"/>
        <pt x="317" y="155" on="0"/>
        <pt x="269" y="81" on="0"/>
        <pt x="215" y="72" on="1"/>
        <pt x="215" y="-8" on="1"/>
        <pt x="152" y="-8" on="1"/>
      </contour>
    </TTGlyph>
    <TTGlyph name="dollar.bold" xMin="41" yMin="-8" xMax="317" yMax="696">
      <contour>
        <pt x="317" y="156" on="0"/>
        <pt x="267" y="79" on="0"/>
        <pt x="215" y="71" on="1"/>
        <pt x="215" y="-8" on="1"/>
        <pt x="152" y="-8" on="1"/>
        <pt x="152" y="70" on="1"/>
        <pt x="92" y="72" on="0"/>
        <pt x="51" y="84" on="1"/>
        <pt x="51" y="151" on="1"/>
        <pt x="81" y="143" on="0"/>
        <pt x="152" y="141" on="1"/>
        <pt x="152" y="314" on="1"/>
        <pt x="122" y="320" on="1"/>
        <pt x="75" y="330" on="0"/>
        <pt x="41" y="391" on="0"/>
        <pt x="41" y="463" on="1"/>
        <pt x="41" y="535" on="0"/>
        <pt x="94" y="610" on="0"/>
        <pt x="152" y="618" on="1"/>
        <pt x="152" y="696" on="1"/>
        <pt x="215" y="696" on="1"/>
        <pt x="215" y="619" on="1"/>
        <pt x="269" y="616" on="0"/>
        <pt x="298" y="605" on="1"/>
        <pt x="298" y="537" on="1"/>
        <pt x="260" y="545" on="0"/>
        <pt x="215" y="547" on="1"/>
        <pt x="215" y="382" on="1"/>
        <pt x="235" y="378" on="1"/>
        <pt x="265" y="372" on="0"/>
        <pt x="299" y="348" on="0"/>
        <pt x="317" y="287" on="0"/>
        <pt x="317" y="230" on="1"/>
      </contour>
      <contour>
        <pt x="122" y="425" on="0"/>
        <pt x="134" y="397" on="0"/>
        <pt x="152" y="393" on="1"/>
        <pt x="152" y="540" on="1"/>
        <pt x="137" y="533" on="0"/>
        <pt x="122" y="499" on="0"/>
        <pt x="122" y="469" on="1"/>
      </contour>
      <contour>
        <pt x="238" y="173" on="0"/>
        <pt x="238" y="224" on="1"/>
        <pt x="238" y="265" on="0"/>
        <pt x="229" y="296" on="0"/>
        <pt x="215" y="301" on="1"/>
        <pt x="215" y="155" on="1"/>
      </contour>
    </TTGlyph>
    <TTGlyph name="dotaccent" xMin="11" yMin="648" xMax="86" yMax="730">
      <contour>
        <pt x="11" y="730" on="1"/>
        <pt x="86" y="730" on="1"/>
        <pt x="86" y="648" on="1"/>
        <pt x="11" y="648" on="1"/>
      </contour>
    </TTGlyph>
    <TTGlyph name="dotbelowcomb" xMin="-140" yMin="-160" xMax="-50" yMax="-62">
      <contour>
        <pt x="-140" y="-62" on="1"/>
        <pt x="-50" y="-62" on="1"/>
        <pt x="-50" y="-160" on="1"/>
        <pt x="-140" y="-160" on="1"/>
      </contour>
    </TTGlyph>
    <TTGlyph name="dotlessi" xMin="48" yMin="0" xMax="128" yMax="510">
      <contour>
        <pt x="48" y="510" on="1"/>
        <pt x="128" y="510" on="1"/>
        <pt x="128" y="0" on="1"/>
        <pt x="48" y="0" on="1"/>
      </contour>
    </TTGlyph>
    <TTGlyph name="e" xMin="36" yMin="-8" xMax="332" yMax="518">
      <contour>
        <pt x="332" y="230" on="1"/>
        <pt x="116" y="230" on="1"/>
        <pt x="116" y="153" on="0"/>
        <pt x="127" y="86" on="0"/>
        <pt x="166" y="61" on="0"/>
        <pt x="211" y="61" on="1"/>
        <pt x="258" y="61" on="0"/>
        <pt x="322" y="71" on="1"/>
        <pt x="322" y="5" on="1"/>
        <pt x="299" y="0" on="0"/>
        <pt x="227" y="-8" on="0"/>
        <pt x="194" y="-8" on="1"/>
        <pt x="122" y="-8" on="0"/>
        <pt x="56" y="41" on="0"/>
        <pt x="36" y="146" on="0"/>
        <pt x="36" y="254" on="1"/>
        <pt x="36" y="363" on="0"/>
        <pt x="53" y="467" on="0"/>
        <pt x="118" y="518" on="0"/>
        <pt x="191" y="518" on="1"/>
        <pt x="258" y="518" on="0"/>
        <pt x="317" y="470" on="0"/>
        <pt x="332" y="368" on="0"/>
        <pt x="332" y="255" on="1"/>
      </contour>
      <contour>
        <pt x="155" y="449" on="0"/>
        <pt x="126" y="428" on="0"/>
        <pt x="116" y="364" on="0"/>
        <pt x="116" y="289" on="1"/>
        <pt x="257" y="289" on="1"/>
        <pt x="257" y="301" on="1"/>
        <pt x="257" y="369" on="0"/>
        <pt x="246" y="430" on="0"/>
        <pt x="219" y="449" on="0"/>
        <pt x="189" y="449" on="1"/>
      </contour>
    </TTGlyph>
    <TTGlyph name="eacute" xMin="36" yMin="-8" xMax="332" yMax="743">
      <component glyphName="e" x="0" y="0" flags="0x0"/>
      <component glyphName="acute" x="160" y="0" flags="0x0"/>
    </TTGlyph>
    <TTGlyph name="ebreve" xMin="36" yMin="-8" xMax="332" yMax="743">
      <component glyphName="e" x="0" y="0" flags="0x0"/>
      <component glyphName="uni0306" x="290" y="0" flags="0x0"/>
    </TTGlyph>
    <TTGlyph name="ecaron" xMin="36" yMin="-8" xMax="332" yMax="743">
      <component glyphName="e" x="0" y="0" flags="0x0"/>
      <component glyphName="uni030C" x="294" y="0" flags="0x0"/>
    </TTGlyph>
    <TTGlyph name="ecircumflex" xMin="36" yMin="-8" xMax="332" yMax="743">
      <component glyphName="e" x="0" y="0" flags="0x0"/>
      <component glyphName="circumflex" x="80" y="0" flags="0x0"/>
    </TTGlyph>
    <TTGlyph name="edieresis" xMin="36" yMin="-8" xMax="332" yMax="730">
      <component glyphName="e" x="0" y="0" flags="0x0"/>
      <component glyphName="dieresis" x="54" y="0" flags="0x0"/>
    </TTGlyph>
    <TTGlyph name="edotaccent" xMin="36" yMin="-8" xMax="332" yMax="730">
      <component glyphName="e" x="0" y="0" flags="0x0"/>
      <component glyphName="uni0307" x="231" y="0" flags="0x0"/>
    </TTGlyph>
    <TTGlyph name="egrave" xMin="36" yMin="-8" xMax="332" yMax="743">
      <component glyphName="e" x="0" y="0" flags="0x0"/>
      <component glyphName="grave" x="110" y="0" flags="0x0"/>
    </TTGlyph>
    <TTGlyph name="eight" xMin="35" yMin="-8" xMax="366" yMax="696">
      <contour>
        <pt x="137" y="-8" on="0"/>
        <pt x="65" y="30" on="0"/>
        <pt x="35" y="112" on="0"/>
        <pt x="35" y="182" on="1"/>
        <pt x="35" y="266" on="0"/>
        <pt x="73" y="336" on="0"/>
        <pt x="115" y="349" on="1"/>
        <pt x="115" y="353" on="1"/>
        <pt x="76" y="364" on="0"/>
        <pt x="40" y="442" on="0"/>
        <pt x="40" y="517" on="1"/>
        <pt x="40" y="585" on="0"/>
        <pt x="72" y="662" on="0"/>
        <pt x="141" y="696" on="0"/>
        <pt x="201" y="696" on="1"/>
        <pt x="260" y="696" on="0"/>
        <pt x="329" y="662" on="0"/>
        <pt x="361" y="585" on="0"/>
        <pt x="361" y="517" on="1"/>
        <pt x="361" y="442" on="0"/>
        <pt x="325" y="364" on="0"/>
        <pt x="286" y="353" on="1"/>
        <pt x="286" y="349" on="1"/>
        <pt x="314" y="340" on="0"/>
        <pt x="349" y="307" on="0"/>
        <pt x="366" y="240" on="0"/>
        <pt x="366" y="182" on="1"/>
        <pt x="366" y="112" on="0"/>
        <pt x="336" y="30" on="0"/>
        <pt x="265" y="-8" on="0"/>
        <pt x="201" y="-8" on="1"/>
      </contour>
      <contour>
        <pt x="234" y="384" on="0"/>
        <pt x="266" y="402" on="0"/>
        <pt x="278" y="451" on="0"/>
        <pt x="278" y="502" on="1"/>
        <pt x="278" y="554" on="0"/>
        <pt x="267" y="603" on="0"/>
        <pt x="235" y="622" on="0"/>
        <pt x="201" y="622" on="1"/>
        <pt x="167" y="622" on="0"/>
        <pt x="134" y="603" on="0"/>
        <pt x="123" y="554" on="0"/>
        <pt x="123" y="502" on="1"/>
        <pt x="123" y="451" on="0"/>
        <pt x="135" y="402" on="0"/>
        <pt x="167" y="384" on="0"/>
        <pt x="201" y="384" on="1"/>
      </contour>
      <contour>
        <pt x="234" y="66" on="0"/>
        <pt x="267" y="84" on="0"/>
        <pt x="281" y="135" on="0"/>
        <pt x="281" y="188" on="1"/>
        <pt x="281" y="244" on="0"/>
        <pt x="269" y="295" on="0"/>
        <pt x="236" y="312" on="0"/>
        <pt x="201" y="312" on="1"/>
        <pt x="166" y="312" on="0"/>
        <pt x="133" y="295" on="0"/>
        <pt x="120" y="244" on="0"/>
        <pt x="120" y="188" on="1"/>
        <pt x="120" y="135" on="0"/>
        <pt x="134" y="84" on="0"/>
        <pt x="167" y="66" on="0"/>
        <pt x="201" y="66" on="1"/>
      </contour>
    </TTGlyph>
    <TTGlyph name="eight.dnom" xMin="19" yMin="-4" xMax="224" yMax="383">
      <contour>
        <pt x="63" y="-4" on="0"/>
        <pt x="19" y="43" on="0"/>
        <pt x="19" y="101" on="1"/>
        <pt x="19" y="146" on="0"/>
        <pt x="42" y="185" on="0"/>
        <pt x="68" y="192" on="1"/>
        <pt x="68" y="194" on="1"/>
        <pt x="44" y="201" on="0"/>
        <pt x="22" y="244" on="0"/>
        <pt x="22" y="285" on="1"/>
        <pt x="22" y="340" on="0"/>
        <pt x="67" y="383" on="0"/>
        <pt x="122" y="383" on="1"/>
        <pt x="176" y="383" on="0"/>
        <pt x="222" y="340" on="0"/>
        <pt x="222" y="285" on="1"/>
        <pt x="222" y="244" on="0"/>
        <pt x="199" y="201" on="0"/>
        <pt x="175" y="194" on="1"/>
        <pt x="175" y="192" on="1"/>
        <pt x="201" y="185" on="0"/>
        <pt x="224" y="146" on="0"/>
        <pt x="224" y="101" on="1"/>
        <pt x="224" y="43" on="0"/>
        <pt x="180" y="-4" on="0"/>
        <pt x="122" y="-4" on="1"/>
      </contour>
      <contour>
        <pt x="141" y="213" on="0"/>
        <pt x="159" y="222" on="0"/>
        <pt x="166" y="248" on="0"/>
        <pt x="166" y="275" on="1"/>
        <pt x="166" y="302" on="0"/>
        <pt x="160" y="328" on="0"/>
        <pt x="142" y="338" on="0"/>
        <pt x="122" y="338" on="1"/>
        <pt x="94" y="338" on="0"/>
        <pt x="77" y="314" on="0"/>
        <pt x="77" y="275" on="1"/>
        <pt x="77" y="248" on="0"/>
        <pt x="84" y="222" on="0"/>
        <pt x="102" y="213" on="0"/>
        <pt x="122" y="213" on="1"/>
      </contour>
      <contour>
        <pt x="150" y="42" on="0"/>
        <pt x="169" y="66" on="0"/>
        <pt x="169" y="105" on="1"/>
        <pt x="169" y="134" on="0"/>
        <pt x="161" y="161" on="0"/>
        <pt x="142" y="170" on="0"/>
        <pt x="122" y="170" on="1"/>
        <pt x="101" y="170" on="0"/>
        <pt x="82" y="161" on="0"/>
        <pt x="75" y="134" on="0"/>
        <pt x="75" y="105" on="1"/>
        <pt x="75" y="78" on="0"/>
        <pt x="83" y="51" on="0"/>
        <pt x="102" y="42" on="0"/>
        <pt x="122" y="42" on="1"/>
      </contour>
    </TTGlyph>
    <TTGlyph name="eight.numr" xMin="19" yMin="304" xMax="224" yMax="691">
      <component glyphName="eight.dnom" x="0" y="308" flags="0x4"/>
    </TTGlyph>
    <TTGlyph name="eight.tnum" xMin="35" yMin="-8" xMax="366" yMax="696">
      <contour>
        <pt x="137" y="-8" on="0"/>
        <pt x="65" y="30" on="0"/>
        <pt x="35" y="112" on="0"/>
        <pt x="35" y="182" on="1"/>
        <pt x="35" y="266" on="0"/>
        <pt x="73" y="336" on="0"/>
        <pt x="115" y="349" on="1"/>
        <pt x="115" y="353" on="1"/>
        <pt x="76" y="364" on="0"/>
        <pt x="40" y="442" on="0"/>
        <pt x="40" y="517" on="1"/>
        <pt x="40" y="585" on="0"/>
        <pt x="72" y="662" on="0"/>
        <pt x="141" y="696" on="0"/>
        <pt x="201" y="696" on="1"/>
        <pt x="260" y="696" on="0"/>
        <pt x="329" y="662" on="0"/>
        <pt x="361" y="585" on="0"/>
        <pt x="361" y="517" on="1"/>
        <pt x="361" y="442" on="0"/>
        <pt x="325" y="364" on="0"/>
        <pt x="286" y="353" on="1"/>
        <pt x="286" y="349" on="1"/>
        <pt x="314" y="340" on="0"/>
        <pt x="349" y="307" on="0"/>
        <pt x="366" y="240" on="0"/>
        <pt x="366" y="182" on="1"/>
        <pt x="366" y="112" on="0"/>
        <pt x="337" y="30" on="0"/>
        <pt x="265" y="-8" on="0"/>
        <pt x="201" y="-8" on="1"/>
      </contour>
      <contour>
        <pt x="234" y="384" on="0"/>
        <pt x="266" y="402" on="0"/>
        <pt x="278" y="451" on="0"/>
        <pt x="278" y="502" on="1"/>
        <pt x="278" y="554" on="0"/>
        <pt x="267" y="603" on="0"/>
        <pt x="235" y="622" on="0"/>
        <pt x="201" y="622" on="1"/>
        <pt x="167" y="622" on="0"/>
        <pt x="134" y="603" on="0"/>
        <pt x="123" y="554" on="0"/>
        <pt x="123" y="502" on="1"/>
        <pt x="123" y="451" on="0"/>
        <pt x="135" y="402" on="0"/>
        <pt x="167" y="384" on="0"/>
        <pt x="201" y="384" on="1"/>
      </contour>
      <contour>
        <pt x="234" y="66" on="0"/>
        <pt x="267" y="84" on="0"/>
        <pt x="281" y="135" on="0"/>
        <pt x="281" y="188" on="1"/>
        <pt x="281" y="244" on="0"/>
        <pt x="269" y="295" on="0"/>
        <pt x="236" y="312" on="0"/>
        <pt x="201" y="312" on="1"/>
        <pt x="166" y="312" on="0"/>
        <pt x="133" y="295" on="0"/>
        <pt x="121" y="244" on="0"/>
        <pt x="121" y="188" on="1"/>
        <pt x="121" y="135" on="0"/>
        <pt x="134" y="84" on="0"/>
        <pt x="167" y="66" on="0"/>
        <pt x="201" y="66" on="1"/>
      </contour>
    </TTGlyph>
    <TTGlyph name="ellipsis" xMin="50" yMin="0" xMax="519" yMax="97">
      <contour>
        <pt x="50" y="97" on="1"/>
        <pt x="140" y="97" on="1"/>
        <pt x="140" y="0" on="1"/>
        <pt x="50" y="0" on="1"/>
      </contour>
      <contour>
        <pt x="240" y="97" on="1"/>
        <pt x="330" y="97" on="1"/>
        <pt x="330" y="0" on="1"/>
        <pt x="240" y="0" on="1"/>
      </contour>
      <contour>
        <pt x="430" y="97" on="1"/>
        <pt x="519" y="97" on="1"/>
        <pt x="519" y="0" on="1"/>
        <pt x="430" y="0" on="1"/>
      </contour>
    </TTGlyph>
    <TTGlyph name="emacron" xMin="36" yMin="-8" xMax="332" yMax="743">
      <component glyphName="e" x="0" y="0" flags="0x0"/>
      <component glyphName="uni0304" x="322" y="0" flags="0x0"/>
    </TTGlyph>
    <TTGlyph name="emdash" xMin="51" yMin="269" xMax="746" yMax="340">
      <contour>
        <pt x="51" y="340" on="1"/>
        <pt x="746" y="340" on="1"/>
        <pt x="746" y="269" on="1"/>
        <pt x="51" y="269" on="1"/>
      </contour>
    </TTGlyph>
    <TTGlyph name="endash" xMin="51" yMin="269" xMax="367" yMax="340">
      <contour>
        <pt x="51" y="340" on="1"/>
        <pt x="367" y="340" on="1"/>
        <pt x="367" y="269" on="1"/>
        <pt x="51" y="269" on="1"/>
      </contour>
    </TTGlyph>
    <TTGlyph name="eng" xMin="48" yMin="-193" xMax="345" yMax="518">
      <contour>
        <pt x="283" y="518" on="0"/>
        <pt x="329" y="481" on="0"/>
        <pt x="345" y="404" on="0"/>
        <pt x="345" y="331" on="1"/>
        <pt x="345" y="-40" on="1"/>
        <pt x="345" y="-111" on="0"/>
        <pt x="321" y="-174" on="0"/>
        <pt x="267" y="-193" on="0"/>
        <pt x="210" y="-193" on="1"/>
        <pt x="210" y="-131" on="1"/>
        <pt x="236" y="-131" on="0"/>
        <pt x="259" y="-121" on="0"/>
        <pt x="265" y="-99" on="0"/>
        <pt x="265" y="-76" on="1"/>
        <pt x="265" y="298" on="1"/>
        <pt x="265" y="367" on="0"/>
        <pt x="256" y="426" on="0"/>
        <pt x="229" y="445" on="0"/>
        <pt x="199" y="445" on="1"/>
        <pt x="165" y="445" on="0"/>
        <pt x="135" y="407" on="0"/>
        <pt x="128" y="336" on="0"/>
        <pt x="128" y="259" on="1"/>
        <pt x="128" y="0" on="1"/>
        <pt x="48" y="0" on="1"/>
        <pt x="48" y="510" on="1"/>
        <pt x="121" y="510" on="1"/>
        <pt x="125" y="442" on="1"/>
        <pt x="131" y="442" on="1"/>
        <pt x="151" y="518" on="0"/>
        <pt x="236" y="518" on="1"/>
      </contour>
    </TTGlyph>
    <TTGlyph name="eogonek" xMin="36" yMin="-196" xMax="332" yMax="518">
      <contour>
        <pt x="332" y="230" on="1"/>
        <pt x="116" y="230" on="1"/>
        <pt x="116" y="153" on="0"/>
        <pt x="127" y="86" on="0"/>
        <pt x="166" y="61" on="0"/>
        <pt x="211" y="61" on="1"/>
        <pt x="258" y="61" on="0"/>
        <pt x="322" y="71" on="1"/>
        <pt x="322" y="5" on="1"/>
        <pt x="299" y="-13" on="0"/>
        <pt x="259" y="-76" on="0"/>
        <pt x="259" y="-105" on="1"/>
        <pt x="259" y="-123" on="0"/>
        <pt x="278" y="-145" on="0"/>
        <pt x="300" y="-145" on="1"/>
        <pt x="315" y="-144" on="1"/>
        <pt x="315" y="-193" on="1"/>
        <pt x="299" y="-196" on="0"/>
        <pt x="280" y="-196" on="1"/>
        <pt x="236" y="-196" on="0"/>
        <pt x="195" y="-152" on="0"/>
        <pt x="195" y="-119" on="1"/>
        <pt x="195" y="-89" on="0"/>
        <pt x="225" y="-29" on="0"/>
        <pt x="250" y="-4" on="1"/>
        <pt x="223" y="-8" on="0"/>
        <pt x="194" y="-8" on="1"/>
        <pt x="122" y="-8" on="0"/>
        <pt x="56" y="41" on="0"/>
        <pt x="36" y="146" on="0"/>
        <pt x="36" y="254" on="1"/>
        <pt x="36" y="363" on="0"/>
        <pt x="53" y="467" on="0"/>
        <pt x="118" y="518" on="0"/>
        <pt x="191" y="518" on="1"/>
        <pt x="258" y="518" on="0"/>
        <pt x="317" y="470" on="0"/>
        <pt x="332" y="368" on="0"/>
        <pt x="332" y="255" on="1"/>
      </contour>
      <contour>
        <pt x="155" y="449" on="0"/>
        <pt x="126" y="428" on="0"/>
        <pt x="116" y="364" on="0"/>
        <pt x="116" y="289" on="1"/>
        <pt x="257" y="289" on="1"/>
        <pt x="257" y="301" on="1"/>
        <pt x="257" y="369" on="0"/>
        <pt x="246" y="430" on="0"/>
        <pt x="219" y="449" on="0"/>
        <pt x="189" y="449" on="1"/>
      </contour>
    </TTGlyph>
    <TTGlyph name="equal" xMin="56" yMin="132" xMax="397" yMax="374">
      <contour>
        <pt x="56" y="374" on="1"/>
        <pt x="397" y="374" on="1"/>
        <pt x="397" y="303" on="1"/>
        <pt x="56" y="303" on="1"/>
      </contour>
      <contour>
        <pt x="56" y="203" on="1"/>
        <pt x="397" y="203" on="1"/>
        <pt x="397" y="132" on="1"/>
        <pt x="56" y="132" on="1"/>
      </contour>
    </TTGlyph>
    <TTGlyph name="estimated" xMin="39" yMin="-8" xMax="385" yMax="696">
      <contour>
        <pt x="125" y="174" on="0"/>
        <pt x="138" y="57" on="0"/>
        <pt x="176" y="26" on="0"/>
        <pt x="224" y="26" on="1"/>
        <pt x="268" y="26" on="0"/>
        <pt x="313" y="45" on="0"/>
        <pt x="340" y="119" on="0"/>
        <pt x="344" y="200" on="1"/>
        <pt x="380" y="200" on="1"/>
        <pt x="376" y="114" on="0"/>
        <pt x="347" y="27" on="0"/>
        <pt x="278" y="-8" on="0"/>
        <pt x="212" y="-8" on="1"/>
        <pt x="130" y="-8" on="0"/>
        <pt x="59" y="48" on="0"/>
        <pt x="39" y="186" on="0"/>
        <pt x="39" y="344" on="1"/>
        <pt x="39" y="502" on="0"/>
        <pt x="59" y="640" on="0"/>
        <pt x="130" y="696" on="0"/>
        <pt x="212" y="696" on="1"/>
        <pt x="295" y="696" on="0"/>
        <pt x="365" y="640" on="0"/>
        <pt x="385" y="503" on="0"/>
        <pt x="385" y="344" on="1"/>
        <pt x="385" y="323" on="1"/>
        <pt x="124" y="323" on="1"/>
      </contour>
      <contour>
        <pt x="170" y="662" on="0"/>
        <pt x="136" y="630" on="0"/>
        <pt x="124" y="509" on="0"/>
        <pt x="124" y="357" on="1"/>
        <pt x="300" y="357" on="1"/>
        <pt x="300" y="509" on="0"/>
        <pt x="288" y="630" on="0"/>
        <pt x="254" y="662" on="0"/>
        <pt x="212" y="662" on="1"/>
      </contour>
    </TTGlyph>
    <TTGlyph name="eth" xMin="36" yMin="-8" xMax="343" yMax="743">
      <contour>
        <pt x="118" y="-8" on="0"/>
        <pt x="54" y="36" on="0"/>
        <pt x="36" y="139" on="0"/>
        <pt x="36" y="254" on="1"/>
        <pt x="36" y="363" on="0"/>
        <pt x="52" y="469" on="0"/>
        <pt x="108" y="518" on="0"/>
        <pt x="169" y="518" on="1"/>
        <pt x="215" y="518" on="0"/>
        <pt x="241" y="495" on="1"/>
        <pt x="245" y="497" on="1"/>
        <pt x="228" y="575" on="0"/>
        <pt x="205" y="626" on="1"/>
        <pt x="119" y="613" on="1"/>
        <pt x="119" y="666" on="1"/>
        <pt x="183" y="675" on="1"/>
        <pt x="163" y="711" on="0"/>
        <pt x="143" y="739" on="1"/>
        <pt x="143" y="743" on="1"/>
        <pt x="226" y="743" on="1"/>
        <pt x="248" y="712" on="0"/>
        <pt x="261" y="687" on="1"/>
        <pt x="334" y="698" on="1"/>
        <pt x="334" y="646" on="1"/>
        <pt x="284" y="638" on="1"/>
        <pt x="321" y="550" on="0"/>
        <pt x="335" y="428" on="1"/>
        <pt x="343" y="353" on="0"/>
        <pt x="343" y="267" on="1"/>
        <pt x="343" y="145" on="0"/>
        <pt x="326" y="39" on="0"/>
        <pt x="263" y="-8" on="0"/>
        <pt x="190" y="-8" on="1"/>
      </contour>
      <contour>
        <pt x="227" y="61" on="0"/>
        <pt x="256" y="89" on="0"/>
        <pt x="263" y="160" on="0"/>
        <pt x="263" y="254" on="1"/>
        <pt x="263" y="341" on="0"/>
        <pt x="256" y="414" on="0"/>
        <pt x="226" y="449" on="0"/>
        <pt x="189" y="449" on="1"/>
        <pt x="151" y="449" on="0"/>
        <pt x="123" y="423" on="0"/>
        <pt x="116" y="352" on="0"/>
        <pt x="116" y="254" on="1"/>
        <pt x="116" y="160" on="0"/>
        <pt x="123" y="89" on="0"/>
        <pt x="152" y="61" on="0"/>
        <pt x="189" y="61" on="1"/>
      </contour>
    </TTGlyph>
    <TTGlyph name="exclam" xMin="51" yMin="0" xMax="147" yMax="688">
      <contour>
        <pt x="51" y="500" on="0"/>
        <pt x="51" y="585" on="1"/>
        <pt x="51" y="688" on="1"/>
        <pt x="147" y="688" on="1"/>
        <pt x="147" y="585" on="1"/>
        <pt x="147" y="486" on="0"/>
        <pt x="126" y="194" on="1"/>
        <pt x="73" y="194" on="1"/>
      </contour>
      <contour>
        <pt x="54" y="97" on="1"/>
        <pt x="144" y="97" on="1"/>
        <pt x="144" y="0" on="1"/>
        <pt x="54" y="0" on="1"/>
      </contour>
    </TTGlyph>
    <TTGlyph name="exclam.case" xMin="51" yMin="0" xMax="147" yMax="688">
      <component glyphName="exclam" x="0" y="0" flags="0x0"/>
    </TTGlyph>
    <TTGlyph name="exclam.ss02" xMin="45" yMin="-8" xMax="749" yMax="696">
      <contour>
        <pt x="302" y="-8" on="0"/>
        <pt x="140" y="87" on="0"/>
        <pt x="45" y="249" on="0"/>
        <pt x="45" y="344" on="1"/>
        <pt x="45" y="439" on="0"/>
        <pt x="140" y="601" on="0"/>
        <pt x="302" y="696" on="0"/>
        <pt x="397" y="696" on="1"/>
        <pt x="492" y="696" on="0"/>
        <pt x="654" y="601" on="0"/>
        <pt x="749" y="439" on="0"/>
        <pt x="749" y="344" on="1"/>
        <pt x="749" y="249" on="0"/>
        <pt x="654" y="87" on="0"/>
        <pt x="492" y="-8" on="0"/>
        <pt x="397" y="-8" on="1"/>
      </contour>
      <contour>
        <pt x="480" y="37" on="0"/>
        <pt x="621" y="120" on="0"/>
        <pt x="704" y="261" on="0"/>
        <pt x="704" y="344" on="1"/>
        <pt x="704" y="427" on="0"/>
        <pt x="621" y="568" on="0"/>
        <pt x="480" y="651" on="0"/>
        <pt x="397" y="651" on="1"/>
        <pt x="314" y="651" on="0"/>
        <pt x="173" y="568" on="0"/>
        <pt x="90" y="427" on="0"/>
        <pt x="90" y="344" on="1"/>
        <pt x="90" y="261" on="0"/>
        <pt x="173" y="120" on="0"/>
        <pt x="314" y="37" on="0"/>
        <pt x="397" y="37" on="1"/>
      </contour>
      <contour>
        <pt x="371" y="310" on="0"/>
        <pt x="363" y="429" on="0"/>
        <pt x="363" y="480" on="1"/>
        <pt x="363" y="579" on="1"/>
        <pt x="431" y="579" on="1"/>
        <pt x="431" y="480" on="1"/>
        <pt x="431" y="429" on="0"/>
        <pt x="423" y="310" on="0"/>
        <pt x="417" y="268" on="1"/>
        <pt x="377" y="268" on="1"/>
      </contour>
      <contour>
        <pt x="363" y="191" on="1"/>
        <pt x="431" y="191" on="1"/>
        <pt x="431" y="109" on="1"/>
        <pt x="363" y="109" on="1"/>
      </contour>
    </TTGlyph>
    <TTGlyph name="exclamdbl" xMin="51" yMin="0" xMax="319" yMax="688">
      <component glyphName="exclam" x="172" y="0" flags="0x0"/>
      <component glyphName="exclam" x="0" y="0" flags="0x0"/>
    </TTGlyph>
    <TTGlyph name="exclamdown" xMin="51" yMin="-178" xMax="147" yMax="510">
      <contour>
        <pt x="54" y="510" on="1"/>
        <pt x="144" y="510" on="1"/>
        <pt x="144" y="413" on="1"/>
        <pt x="54" y="413" on="1"/>
      </contour>
      <contour>
        <pt x="51" y="-75" on="1"/>
        <pt x="51" y="10" on="0"/>
        <pt x="73" y="316" on="1"/>
        <pt x="126" y="316" on="1"/>
        <pt x="147" y="24" on="0"/>
        <pt x="147" y="-75" on="1"/>
        <pt x="147" y="-178" on="1"/>
        <pt x="51" y="-178" on="1"/>
      </contour>
    </TTGlyph>
    <TTGlyph name="exclamdown.case" xMin="51" yMin="0" xMax="147" yMax="688">
      <component glyphName="exclamdown" x="0" y="178" flags="0x4"/>
    </TTGlyph>
    <TTGlyph name="f" xMin="16" yMin="0" xMax="228" yMax="743">
      <contour>
        <pt x="73" y="441" on="1"/>
        <pt x="16" y="441" on="1"/>
        <pt x="16" y="510" on="1"/>
        <pt x="73" y="510" on="1"/>
        <pt x="73" y="580" on="1"/>
        <pt x="73" y="655" on="0"/>
        <pt x="100" y="723" on="0"/>
        <pt x="161" y="743" on="0"/>
        <pt x="228" y="743" on="1"/>
        <pt x="228" y="682" on="1"/>
        <pt x="195" y="682" on="0"/>
        <pt x="165" y="671" on="0"/>
        <pt x="153" y="637" on="0"/>
        <pt x="153" y="600" on="1"/>
        <pt x="153" y="510" on="1"/>
        <pt x="228" y="510" on="1"/>
        <pt x="228" y="441" on="1"/>
        <pt x="153" y="441" on="1"/>
        <pt x="153" y="0" on="1"/>
        <pt x="73" y="0" on="1"/>
      </contour>
    </TTGlyph>
    <TTGlyph name="f_f" xMin="16" yMin="0" xMax="474" yMax="743">
      <component glyphName="f" x="0" y="0" flags="0x0"/>
      <component glyphName="f" x="246" y="0" flags="0x0"/>
    </TTGlyph>
    <TTGlyph name="fi" xMin="16" yMin="0" xMax="375" yMax="743">
      <component glyphName="f" x="0" y="0" flags="0x0"/>
      <component glyphName="i" x="246" y="0" flags="0x0"/>
    </TTGlyph>
    <TTGlyph name="five" xMin="41" yMin="-8" xMax="337" yMax="688">
      <contour>
        <pt x="113" y="69" on="0"/>
        <pt x="152" y="69" on="1"/>
        <pt x="196" y="69" on="0"/>
        <pt x="238" y="92" on="0"/>
        <pt x="253" y="148" on="0"/>
        <pt x="253" y="206" on="1"/>
        <pt x="253" y="268" on="0"/>
        <pt x="238" y="321" on="0"/>
        <pt x="195" y="338" on="0"/>
        <pt x="145" y="338" on="1"/>
        <pt x="98" y="338" on="0"/>
        <pt x="45" y="328" on="1"/>
        <pt x="45" y="688" on="1"/>
        <pt x="311" y="688" on="1"/>
        <pt x="311" y="611" on="1"/>
        <pt x="125" y="611" on="1"/>
        <pt x="125" y="408" on="1"/>
        <pt x="151" y="416" on="0"/>
        <pt x="196" y="416" on="1"/>
        <pt x="255" y="416" on="0"/>
        <pt x="316" y="372" on="0"/>
        <pt x="337" y="287" on="0"/>
        <pt x="337" y="216" on="1"/>
        <pt x="337" y="129" on="0"/>
        <pt x="310" y="34" on="0"/>
        <pt x="241" y="-8" on="0"/>
        <pt x="174" y="-8" on="1"/>
        <pt x="145" y="-8" on="0"/>
        <pt x="70" y="1" on="0"/>
        <pt x="41" y="8" on="1"/>
        <pt x="41" y="78" on="1"/>
      </contour>
    </TTGlyph>
    <TTGlyph name="five.dnom" xMin="32" yMin="-4" xMax="208" yMax="379">
      <contour>
        <pt x="72" y="44" on="0"/>
        <pt x="98" y="44" on="1"/>
        <pt x="122" y="44" on="0"/>
        <pt x="144" y="55" on="0"/>
        <pt x="152" y="83" on="0"/>
        <pt x="152" y="114" on="1"/>
        <pt x="152" y="147" on="0"/>
        <pt x="145" y="174" on="0"/>
        <pt x="122" y="183" on="0"/>
        <pt x="95" y="183" on="1"/>
        <pt x="63" y="183" on="0"/>
        <pt x="35" y="177" on="1"/>
        <pt x="35" y="379" on="1"/>
        <pt x="193" y="379" on="1"/>
        <pt x="193" y="330" on="1"/>
        <pt x="87" y="330" on="1"/>
        <pt x="87" y="227" on="1"/>
        <pt x="105" y="231" on="0"/>
        <pt x="127" y="231" on="1"/>
        <pt x="176" y="231" on="0"/>
        <pt x="208" y="180" on="0"/>
        <pt x="208" y="120" on="1"/>
        <pt x="208" y="72" on="0"/>
        <pt x="192" y="19" on="0"/>
        <pt x="151" y="-4" on="0"/>
        <pt x="112" y="-4" on="1"/>
        <pt x="67" y="-4" on="0"/>
        <pt x="32" y="5" on="1"/>
        <pt x="32" y="49" on="1"/>
      </contour>
    </TTGlyph>
    <TTGlyph name="five.numr" xMin="32" yMin="304" xMax="208" yMax="687">
      <contour>
        <pt x="72" y="352" on="0"/>
        <pt x="98" y="352" on="1"/>
        <pt x="122" y="352" on="0"/>
        <pt x="144" y="363" on="0"/>
        <pt x="152" y="391" on="0"/>
        <pt x="152" y="422" on="1"/>
        <pt x="152" y="455" on="0"/>
        <pt x="145" y="482" on="0"/>
        <pt x="122" y="491" on="0"/>
        <pt x="95" y="491" on="1"/>
        <pt x="63" y="491" on="0"/>
        <pt x="35" y="485" on="1"/>
        <pt x="35" y="687" on="1"/>
        <pt x="193" y="687" on="1"/>
        <pt x="193" y="638" on="1"/>
        <pt x="87" y="638" on="1"/>
        <pt x="87" y="535" on="1"/>
        <pt x="105" y="539" on="0"/>
        <pt x="127" y="539" on="1"/>
        <pt x="176" y="539" on="0"/>
        <pt x="208" y="488" on="0"/>
        <pt x="208" y="428" on="1"/>
        <pt x="208" y="380" on="0"/>
        <pt x="192" y="327" on="0"/>
        <pt x="151" y="304" on="0"/>
        <pt x="112" y="304" on="1"/>
        <pt x="66" y="304" on="0"/>
        <pt x="32" y="313" on="1"/>
        <pt x="32" y="357" on="1"/>
      </contour>
    </TTGlyph>
    <TTGlyph name="five.tnum" xMin="55" yMin="-8" xMax="352" yMax="688">
      <contour>
        <pt x="127" y="69" on="0"/>
        <pt x="166" y="69" on="1"/>
        <pt x="210" y="69" on="0"/>
        <pt x="252" y="92" on="0"/>
        <pt x="267" y="148" on="0"/>
        <pt x="267" y="206" on="1"/>
        <pt x="267" y="268" on="0"/>
        <pt x="252" y="321" on="0"/>
        <pt x="209" y="338" on="0"/>
        <pt x="160" y="338" on="1"/>
        <pt x="113" y="338" on="0"/>
        <pt x="59" y="328" on="1"/>
        <pt x="59" y="688" on="1"/>
        <pt x="326" y="688" on="1"/>
        <pt x="326" y="611" on="1"/>
        <pt x="139" y="611" on="1"/>
        <pt x="139" y="408" on="1"/>
        <pt x="165" y="416" on="0"/>
        <pt x="210" y="416" on="1"/>
        <pt x="269" y="416" on="0"/>
        <pt x="331" y="372" on="0"/>
        <pt x="352" y="287" on="0"/>
        <pt x="352" y="216" on="1"/>
        <pt x="352" y="129" on="0"/>
        <pt x="325" y="35" on="0"/>
        <pt x="255" y="-8" on="0"/>
        <pt x="189" y="-8" on="1"/>
        <pt x="159" y="-8" on="0"/>
        <pt x="84" y="1" on="0"/>
        <pt x="55" y="8" on="1"/>
        <pt x="55" y="78" on="1"/>
      </contour>
    </TTGlyph>
    <TTGlyph name="fiveeighths" xMin="32" yMin="-4" xMax="569" yMax="688">
      <component glyphName="five.numr" x="0" y="0" flags="0x0"/>
      <component glyphName="fraction" x="228" y="0" flags="0x0"/>
      <component glyphName="eight.dnom" x="345" y="0" flags="0x0"/>
    </TTGlyph>
    <TTGlyph name="fl" xMin="16" yMin="0" xMax="374" yMax="743">
      <component glyphName="f" x="0" y="0" flags="0x0"/>
      <component glyphName="l" x="246" y="0" flags="0x0"/>
    </TTGlyph>
    <TTGlyph name="florin" xMin="-91" yMin="-193" xMax="337" yMax="743">
      <contour>
        <pt x="290" y="682" on="0"/>
        <pt x="257" y="664" on="0"/>
        <pt x="232" y="601" on="0"/>
        <pt x="216" y="527" on="1"/>
        <pt x="213" y="510" on="1"/>
        <pt x="287" y="510" on="1"/>
        <pt x="273" y="441" on="1"/>
        <pt x="198" y="441" on="1"/>
        <pt x="105" y="2" on="1"/>
        <pt x="85" y="-89" on="0"/>
        <pt x="42" y="-170" on="0"/>
        <pt x="-24" y="-193" on="0"/>
        <pt x="-91" y="-193" on="1"/>
        <pt x="-77" y="-132" on="1"/>
        <pt x="-45" y="-132" on="0"/>
        <pt x="-12" y="-120" on="0"/>
        <pt x="7" y="-85" on="0"/>
        <pt x="15" y="-47" on="1"/>
        <pt x="118" y="441" on="1"/>
        <pt x="61" y="441" on="1"/>
        <pt x="76" y="510" on="1"/>
        <pt x="133" y="510" on="1"/>
        <pt x="135" y="521" on="1"/>
        <pt x="157" y="625" on="0"/>
        <pt x="203" y="717" on="0"/>
        <pt x="270" y="743" on="0"/>
        <pt x="337" y="743" on="1"/>
        <pt x="324" y="682" on="1"/>
      </contour>
    </TTGlyph>
    <TTGlyph name="four" xMin="22" yMin="0" xMax="366" yMax="688">
      <contour>
        <pt x="226" y="155" on="1"/>
        <pt x="22" y="155" on="1"/>
        <pt x="22" y="223" on="1"/>
        <pt x="147" y="688" on="1"/>
        <pt x="233" y="688" on="1"/>
        <pt x="103" y="232" on="1"/>
        <pt x="227" y="232" on="1"/>
        <pt x="245" y="469" on="1"/>
        <pt x="311" y="469" on="1"/>
        <pt x="311" y="232" on="1"/>
        <pt x="366" y="232" on="1"/>
        <pt x="366" y="155" on="1"/>
        <pt x="311" y="155" on="1"/>
        <pt x="311" y="0" on="1"/>
        <pt x="226" y="0" on="1"/>
      </contour>
    </TTGlyph>
    <TTGlyph name="four.dnom" xMin="11" yMin="0" xMax="223" yMax="379">
      <contour>
        <pt x="135" y="83" on="1"/>
        <pt x="11" y="83" on="1"/>
        <pt x="11" y="126" on="1"/>
        <pt x="87" y="379" on="1"/>
        <pt x="143" y="379" on="1"/>
        <pt x="65" y="131" on="1"/>
        <pt x="135" y="131" on="1"/>
        <pt x="147" y="254" on="1"/>
        <pt x="190" y="254" on="1"/>
        <pt x="190" y="131" on="1"/>
        <pt x="223" y="131" on="1"/>
        <pt x="223" y="83" on="1"/>
        <pt x="190" y="83" on="1"/>
        <pt x="190" y="0" on="1"/>
        <pt x="135" y="0" on="1"/>
      </contour>
    </TTGlyph>
    <TTGlyph name="four.numr" xMin="11" yMin="308" xMax="223" yMax="687">
      <component glyphName="four.dnom" x="0" y="308" flags="0x4"/>
    </TTGlyph>
    <TTGlyph name="four.ss01" xMin="22" yMin="0" xMax="365" yMax="688">
      <contour>
        <pt x="226" y="155" on="1"/>
        <pt x="22" y="155" on="1"/>
        <pt x="22" y="220" on="1"/>
        <pt x="186" y="688" on="1"/>
        <pt x="311" y="688" on="1"/>
        <pt x="311" y="232" on="1"/>
        <pt x="365" y="232" on="1"/>
        <pt x="365" y="155" on="1"/>
        <pt x="311" y="155" on="1"/>
        <pt x="311" y="0" on="1"/>
        <pt x="226" y="0" on="1"/>
      </contour>
      <contour>
        <pt x="227" y="232" on="1"/>
        <pt x="227" y="589" on="1"/>
        <pt x="225" y="589" on="1"/>
        <pt x="96" y="232" on="1"/>
      </contour>
    </TTGlyph>
    <TTGlyph name="four.tnum" xMin="24" yMin="0" xMax="379" yMax="688">
      <contour>
        <pt x="240" y="155" on="1"/>
        <pt x="24" y="155" on="1"/>
        <pt x="24" y="223" on="1"/>
        <pt x="161" y="688" on="1"/>
        <pt x="247" y="688" on="1"/>
        <pt x="106" y="232" on="1"/>
        <pt x="240" y="232" on="1"/>
        <pt x="258" y="469" on="1"/>
        <pt x="324" y="469" on="1"/>
        <pt x="324" y="232" on="1"/>
        <pt x="379" y="232" on="1"/>
        <pt x="379" y="155" on="1"/>
        <pt x="324" y="155" on="1"/>
        <pt x="324" y="0" on="1"/>
        <pt x="240" y="0" on="1"/>
      </contour>
    </TTGlyph>
    <TTGlyph name="fraction" xMin="-111" yMin="0" xMax="229" yMax="688">
      <contour>
        <pt x="175" y="688" on="1"/>
        <pt x="229" y="688" on="1"/>
        <pt x="-57" y="0" on="1"/>
        <pt x="-111" y="0" on="1"/>
      </contour>
    </TTGlyph>
    <TTGlyph name="g" xMin="36" yMin="-200" xMax="340" yMax="518">
      <contour>
        <pt x="107" y="-200" on="0"/>
        <pt x="53" y="-194" on="1"/>
        <pt x="53" y="-129" on="1"/>
        <pt x="111" y="-131" on="0"/>
        <pt x="157" y="-131" on="1"/>
        <pt x="205" y="-131" on="0"/>
        <pt x="247" y="-104" on="0"/>
        <pt x="260" y="-35" on="0"/>
        <pt x="260" y="42" on="1"/>
        <pt x="260" y="66" on="1"/>
        <pt x="254" y="66" on="1"/>
        <pt x="245" y="30" on="0"/>
        <pt x="198" y="-2" on="0"/>
        <pt x="158" y="-2" on="1"/>
        <pt x="107" y="-2" on="0"/>
        <pt x="55" y="43" on="0"/>
        <pt x="36" y="151" on="0"/>
        <pt x="36" y="258" on="1"/>
        <pt x="36" y="366" on="0"/>
        <pt x="56" y="475" on="0"/>
        <pt x="108" y="518" on="0"/>
        <pt x="159" y="518" on="1"/>
        <pt x="196" y="518" on="0"/>
        <pt x="247" y="486" on="0"/>
        <pt x="257" y="443" on="1"/>
        <pt x="263" y="443" on="1"/>
        <pt x="267" y="510" on="1"/>
        <pt x="340" y="510" on="1"/>
        <pt x="340" y="71" on="1"/>
        <pt x="340" y="-37" on="0"/>
        <pt x="319" y="-147" on="0"/>
        <pt x="249" y="-200" on="0"/>
        <pt x="174" y="-200" on="1"/>
      </contour>
      <contour>
        <pt x="216" y="70" on="0"/>
        <pt x="247" y="96" on="0"/>
        <pt x="253" y="127" on="1"/>
        <pt x="260" y="163" on="0"/>
        <pt x="260" y="258" on="1"/>
        <pt x="260" y="296" on="0"/>
        <pt x="258" y="362" on="0"/>
        <pt x="255" y="381" on="1"/>
        <pt x="248" y="417" on="0"/>
        <pt x="217" y="445" on="0"/>
        <pt x="188" y="445" on="1"/>
        <pt x="154" y="445" on="0"/>
        <pt x="126" y="422" on="0"/>
        <pt x="116" y="347" on="0"/>
        <pt x="116" y="258" on="1"/>
        <pt x="116" y="168" on="0"/>
        <pt x="126" y="93" on="0"/>
        <pt x="154" y="70" on="0"/>
        <pt x="188" y="70" on="1"/>
      </contour>
    </TTGlyph>
    <TTGlyph name="g_tilde.loclGUA" xMin="36" yMin="-200" xMax="340" yMax="743">
      <component glyphName="g" x="0" y="0" flags="0x0"/>
      <component glyphName="tildecomb" x="320" y="0" flags="0x0"/>
    </TTGlyph>
    <TTGlyph name="gbreve" xMin="36" yMin="-200" xMax="340" yMax="743">
      <component glyphName="g" x="0" y="0" flags="0x0"/>
      <component glyphName="uni0306" x="300" y="0" flags="0x0"/>
    </TTGlyph>
    <TTGlyph name="gcaron" xMin="36" yMin="-200" xMax="340" yMax="743">
      <component glyphName="g" x="0" y="0" flags="0x0"/>
      <component glyphName="uni030C" x="304" y="0" flags="0x0"/>
    </TTGlyph>
    <TTGlyph name="gcircumflex" xMin="36" yMin="-200" xMax="340" yMax="743">
      <component glyphName="g" x="0" y="0" flags="0x0"/>
      <component glyphName="uni0302" x="304" y="0" flags="0x0"/>
    </TTGlyph>
    <TTGlyph name="gcommaaccent" xMin="36" yMin="-200" xMax="340" yMax="793">
      <component glyphName="g" x="0" y="0" flags="0x0"/>
      <component glyphName="uni0312" x="547" y="0" flags="0x0"/>
    </TTGlyph>
    <TTGlyph name="gdotaccent" xMin="36" yMin="-200" xMax="340" yMax="730">
      <component glyphName="g" x="0" y="0" flags="0x0"/>
      <component glyphName="uni0307" x="241" y="0" flags="0x0"/>
    </TTGlyph>
    <TTGlyph name="germandbls" xMin="48" yMin="0" xMax="359" yMax="750">
      <contour>
        <pt x="182" y="0" on="1"/>
        <pt x="182" y="69" on="1"/>
        <pt x="203" y="69" on="1"/>
        <pt x="239" y="69" on="0"/>
        <pt x="269" y="91" on="0"/>
        <pt x="279" y="162" on="0"/>
        <pt x="279" y="248" on="1"/>
        <pt x="279" y="317" on="0"/>
        <pt x="267" y="385" on="0"/>
        <pt x="239" y="410" on="0"/>
        <pt x="210" y="410" on="1"/>
        <pt x="195" y="410" on="1"/>
        <pt x="195" y="479" on="1"/>
        <pt x="210" y="479" on="1"/>
        <pt x="247" y="479" on="0"/>
        <pt x="275" y="522" on="0"/>
        <pt x="275" y="580" on="1"/>
        <pt x="275" y="638" on="0"/>
        <pt x="242" y="681" on="0"/>
        <pt x="201" y="681" on="1"/>
        <pt x="172" y="681" on="0"/>
        <pt x="141" y="660" on="0"/>
        <pt x="127" y="607" on="0"/>
        <pt x="127" y="557" on="1"/>
        <pt x="127" y="0" on="1"/>
        <pt x="48" y="0" on="1"/>
        <pt x="48" y="553" on="1"/>
        <pt x="48" y="627" on="0"/>
        <pt x="78" y="712" on="0"/>
        <pt x="145" y="750" on="0"/>
        <pt x="201" y="750" on="1"/>
        <pt x="282" y="750" on="0"/>
        <pt x="355" y="678" on="0"/>
        <pt x="355" y="589" on="1"/>
        <pt x="355" y="525" on="0"/>
        <pt x="316" y="460" on="0"/>
        <pt x="273" y="450" on="1"/>
        <pt x="273" y="446" on="1"/>
        <pt x="318" y="435" on="0"/>
        <pt x="359" y="345" on="0"/>
        <pt x="359" y="247" on="1"/>
        <pt x="359" y="152" on="0"/>
        <pt x="338" y="49" on="0"/>
        <pt x="276" y="0" on="0"/>
        <pt x="213" y="0" on="1"/>
      </contour>
    </TTGlyph>
    <TTGlyph name="grave" xMin="0" yMin="601" xMax="116" yMax="743">
      <contour>
        <pt x="0" y="738" on="1"/>
        <pt x="0" y="743" on="1"/>
        <pt x="81" y="743" on="1"/>
        <pt x="116" y="606" on="1"/>
        <pt x="116" y="601" on="1"/>
        <pt x="53" y="601" on="1"/>
      </contour>
    </TTGlyph>
    <TTGlyph name="gravecomb" xMin="-116" yMin="601" xMax="0" yMax="743">
      <contour>
        <pt x="-116" y="738" on="1"/>
        <pt x="-116" y="743" on="1"/>
        <pt x="-35" y="743" on="1"/>
        <pt x="0" y="606" on="1"/>
        <pt x="0" y="601" on="1"/>
        <pt x="-63" y="601" on="1"/>
      </contour>
    </TTGlyph>
    <TTGlyph name="gravecomb.case" xMin="-116" yMin="746" xMax="0" yMax="888">
      <contour>
        <pt x="-116" y="883" on="1"/>
        <pt x="-116" y="888" on="1"/>
        <pt x="-35" y="888" on="1"/>
        <pt x="0" y="751" on="1"/>
        <pt x="0" y="746" on="1"/>
        <pt x="-63" y="746" on="1"/>
      </contour>
    </TTGlyph>
    <TTGlyph name="greater" xMin="56" yMin="75" xMax="397" yMax="431">
      <contour>
        <pt x="56" y="150" on="1"/>
        <pt x="312" y="253" on="1"/>
        <pt x="56" y="357" on="1"/>
        <pt x="56" y="431" on="1"/>
        <pt x="397" y="292" on="1"/>
        <pt x="397" y="214" on="1"/>
        <pt x="56" y="75" on="1"/>
      </contour>
    </TTGlyph>
    <TTGlyph name="greaterequal" xMin="60" yMin="44" xMax="402" yMax="548">
      <contour>
        <pt x="60" y="267" on="1"/>
        <pt x="316" y="370" on="1"/>
        <pt x="60" y="474" on="1"/>
        <pt x="60" y="548" on="1"/>
        <pt x="401" y="409" on="1"/>
        <pt x="401" y="332" on="1"/>
        <pt x="60" y="193" on="1"/>
      </contour>
      <contour>
        <pt x="60" y="115" on="1"/>
        <pt x="402" y="115" on="1"/>
        <pt x="402" y="44" on="1"/>
        <pt x="60" y="44" on="1"/>
      </contour>
    </TTGlyph>
    <TTGlyph name="guillemotleft" xMin="30" yMin="114" xMax="291" yMax="510">
      <contour>
        <pt x="30" y="312" on="1"/>
        <pt x="105" y="510" on="1"/>
        <pt x="165" y="510" on="1"/>
        <pt x="104" y="312" on="1"/>
        <pt x="165" y="114" on="1"/>
        <pt x="105" y="114" on="1"/>
      </contour>
      <contour>
        <pt x="156" y="312" on="1"/>
        <pt x="231" y="510" on="1"/>
        <pt x="291" y="510" on="1"/>
        <pt x="230" y="312" on="1"/>
        <pt x="291" y="114" on="1"/>
        <pt x="231" y="114" on="1"/>
      </contour>
    </TTGlyph>
    <TTGlyph name="guillemotright" xMin="43" yMin="114" xMax="305" yMax="510">
      <contour>
        <pt x="104" y="312" on="1"/>
        <pt x="43" y="510" on="1"/>
        <pt x="103" y="510" on="1"/>
        <pt x="179" y="312" on="1"/>
        <pt x="103" y="114" on="1"/>
        <pt x="43" y="114" on="1"/>
      </contour>
      <contour>
        <pt x="231" y="312" on="1"/>
        <pt x="169" y="510" on="1"/>
        <pt x="229" y="510" on="1"/>
        <pt x="305" y="312" on="1"/>
        <pt x="229" y="114" on="1"/>
        <pt x="169" y="114" on="1"/>
      </contour>
    </TTGlyph>
    <TTGlyph name="guilsinglleft" xMin="30" yMin="114" xMax="165" yMax="510">
      <contour>
        <pt x="30" y="312" on="1"/>
        <pt x="105" y="510" on="1"/>
        <pt x="165" y="510" on="1"/>
        <pt x="104" y="312" on="1"/>
        <pt x="165" y="114" on="1"/>
        <pt x="105" y="114" on="1"/>
      </contour>
    </TTGlyph>
    <TTGlyph name="guilsinglright" xMin="43" yMin="114" xMax="179" yMax="510">
      <contour>
        <pt x="104" y="312" on="1"/>
        <pt x="43" y="510" on="1"/>
        <pt x="103" y="510" on="1"/>
        <pt x="179" y="312" on="1"/>
        <pt x="103" y="114" on="1"/>
        <pt x="43" y="114" on="1"/>
      </contour>
    </TTGlyph>
    <TTGlyph name="h" xMin="48" yMin="0" xMax="345" yMax="743">
      <contour>
        <pt x="265" y="298" on="1"/>
        <pt x="265" y="367" on="0"/>
        <pt x="256" y="426" on="0"/>
        <pt x="229" y="445" on="0"/>
        <pt x="199" y="445" on="1"/>
        <pt x="165" y="445" on="0"/>
        <pt x="135" y="407" on="0"/>
        <pt x="128" y="336" on="0"/>
        <pt x="128" y="259" on="1"/>
        <pt x="128" y="0" on="1"/>
        <pt x="48" y="0" on="1"/>
        <pt x="48" y="743" on="1"/>
        <pt x="128" y="743" on="1"/>
        <pt x="128" y="451" on="1"/>
        <pt x="134" y="451" on="1"/>
        <pt x="155" y="518" on="0"/>
        <pt x="236" y="518" on="1"/>
        <pt x="283" y="518" on="0"/>
        <pt x="329" y="481" on="0"/>
        <pt x="345" y="404" on="0"/>
        <pt x="345" y="331" on="1"/>
        <pt x="345" y="0" on="1"/>
        <pt x="265" y="0" on="1"/>
      </contour>
    </TTGlyph>
    <TTGlyph name="hbar" xMin="3" yMin="0" xMax="345" yMax="743">
      <contour>
        <pt x="283" y="518" on="0"/>
        <pt x="329" y="481" on="0"/>
        <pt x="345" y="404" on="0"/>
        <pt x="345" y="331" on="1"/>
        <pt x="345" y="0" on="1"/>
        <pt x="265" y="0" on="1"/>
        <pt x="265" y="298" on="1"/>
        <pt x="265" y="367" on="0"/>
        <pt x="256" y="426" on="0"/>
        <pt x="229" y="445" on="0"/>
        <pt x="199" y="445" on="1"/>
        <pt x="165" y="445" on="0"/>
        <pt x="135" y="407" on="0"/>
        <pt x="128" y="336" on="0"/>
        <pt x="128" y="259" on="1"/>
        <pt x="128" y="0" on="1"/>
        <pt x="48" y="0" on="1"/>
        <pt x="48" y="619" on="1"/>
        <pt x="3" y="619" on="1"/>
        <pt x="3" y="688" on="1"/>
        <pt x="48" y="688" on="1"/>
        <pt x="48" y="743" on="1"/>
        <pt x="128" y="743" on="1"/>
        <pt x="128" y="688" on="1"/>
        <pt x="227" y="688" on="1"/>
        <pt x="227" y="619" on="1"/>
        <pt x="128" y="619" on="1"/>
        <pt x="128" y="451" on="1"/>
        <pt x="134" y="451" on="1"/>
        <pt x="155" y="518" on="0"/>
        <pt x="236" y="518" on="1"/>
      </contour>
    </TTGlyph>
    <TTGlyph name="hcircumflex" xMin="-22" yMin="0" xMax="345" yMax="921">
      <component glyphName="h" x="0" y="0" flags="0x0"/>
      <component glyphName="uni0302" x="198" y="178" flags="0x4"/>
    </TTGlyph>
    <TTGlyph name="hookabovecomb" xMin="-209" yMin="613" xMax="-14" yMax="798">
      <contour>
        <pt x="-162" y="629" on="1"/>
        <pt x="-162" y="649" on="0"/>
        <pt x="-147" y="669" on="0"/>
        <pt x="-128" y="674" on="1"/>
        <pt x="-118" y="677" on="1"/>
        <pt x="-92" y="685" on="0"/>
        <pt x="-74" y="699" on="0"/>
        <pt x="-74" y="716" on="1"/>
        <pt x="-74" y="733" on="0"/>
        <pt x="-92" y="743" on="0"/>
        <pt x="-125" y="743" on="1"/>
        <pt x="-137" y="743" on="0"/>
        <pt x="-173" y="741" on="1"/>
        <pt x="-209" y="740" on="1"/>
        <pt x="-209" y="788" on="1"/>
        <pt x="-147" y="798" on="0"/>
        <pt x="-115" y="798" on="1"/>
        <pt x="-61" y="798" on="0"/>
        <pt x="-14" y="767" on="0"/>
        <pt x="-14" y="728" on="1"/>
        <pt x="-14" y="695" on="0"/>
        <pt x="-28" y="665" on="0"/>
        <pt x="-56" y="654" on="1"/>
        <pt x="-66" y="650" on="1"/>
        <pt x="-88" y="642" on="0"/>
        <pt x="-103" y="634" on="0"/>
        <pt x="-108" y="624" on="0"/>
        <pt x="-108" y="613" on="1"/>
        <pt x="-162" y="613" on="1"/>
      </contour>
    </TTGlyph>
    <TTGlyph name="hookabovecomb.case" xMin="-209" yMin="737" xMax="-14" yMax="922">
      <contour>
        <pt x="-162" y="754" on="1"/>
        <pt x="-162" y="774" on="0"/>
        <pt x="-147" y="793" on="0"/>
        <pt x="-128" y="799" on="1"/>
        <pt x="-118" y="802" on="1"/>
        <pt x="-92" y="810" on="0"/>
        <pt x="-74" y="824" on="0"/>
        <pt x="-74" y="840" on="1"/>
        <pt x="-74" y="857" on="0"/>
        <pt x="-92" y="867" on="0"/>
        <pt x="-125" y="867" on="1"/>
        <pt x="-145" y="867" on="0"/>
        <pt x="-209" y="865" on="1"/>
        <pt x="-209" y="913" on="1"/>
        <pt x="-153" y="922" on="0"/>
        <pt x="-115" y="922" on="1"/>
        <pt x="-61" y="922" on="0"/>
        <pt x="-14" y="892" on="0"/>
        <pt x="-14" y="853" on="1"/>
        <pt x="-14" y="820" on="0"/>
        <pt x="-28" y="790" on="0"/>
        <pt x="-56" y="778" on="1"/>
        <pt x="-66" y="774" on="1"/>
        <pt x="-88" y="766" on="0"/>
        <pt x="-103" y="758" on="0"/>
        <pt x="-108" y="748" on="0"/>
        <pt x="-108" y="737" on="1"/>
        <pt x="-162" y="737" on="1"/>
      </contour>
    </TTGlyph>
    <TTGlyph name="house" xMin="23" yMin="0" xMax="421" yMax="699">
      <contour>
        <pt x="23" y="359" on="1"/>
        <pt x="184" y="699" on="1"/>
        <pt x="260" y="699" on="1"/>
        <pt x="421" y="359" on="1"/>
        <pt x="421" y="0" on="1"/>
        <pt x="23" y="0" on="1"/>
      </contour>
      <contour>
        <pt x="339" y="69" on="1"/>
        <pt x="339" y="352" on="1"/>
        <pt x="222" y="609" on="1"/>
        <pt x="105" y="352" on="1"/>
        <pt x="105" y="69" on="1"/>
      </contour>
    </TTGlyph>
    <TTGlyph name="hungarumlaut" xMin="12" yMin="611" xMax="226" yMax="729">
      <contour>
        <pt x="12" y="616" on="1"/>
        <pt x="42" y="729" on="1"/>
        <pt x="112" y="729" on="1"/>
        <pt x="112" y="725" on="1"/>
        <pt x="66" y="611" on="1"/>
        <pt x="12" y="611" on="1"/>
      </contour>
      <contour>
        <pt x="126" y="616" on="1"/>
        <pt x="156" y="729" on="1"/>
        <pt x="226" y="729" on="1"/>
        <pt x="226" y="725" on="1"/>
        <pt x="180" y="611" on="1"/>
        <pt x="126" y="611" on="1"/>
      </contour>
    </TTGlyph>
    <TTGlyph name="hyphen" xMin="53" yMin="248" xMax="223" yMax="323">
      <contour>
        <pt x="53" y="323" on="1"/>
        <pt x="223" y="323" on="1"/>
        <pt x="223" y="248" on="1"/>
        <pt x="53" y="248" on="1"/>
      </contour>
    </TTGlyph>
    <TTGlyph name="i" xMin="47" yMin="0" xMax="129" yMax="743">
      <contour>
        <pt x="47" y="743" on="1"/>
        <pt x="129" y="743" on="1"/>
        <pt x="129" y="652" on="1"/>
        <pt x="47" y="652" on="1"/>
      </contour>
      <contour>
        <pt x="48" y="510" on="1"/>
        <pt x="128" y="510" on="1"/>
        <pt x="128" y="0" on="1"/>
        <pt x="48" y="0" on="1"/>
      </contour>
    </TTGlyph>
    <TTGlyph name="i.loclTRK" xMin="48" yMin="0" xMax="128" yMax="730">
      <component glyphName="dotlessi" x="0" y="0" flags="0x0"/>
      <component glyphName="uni0307" x="135" y="0" flags="0x0"/>
    </TTGlyph>
    <TTGlyph name="iacute" xMin="48" yMin="0" xMax="164" yMax="743">
      <component glyphName="dotlessi" x="0" y="0" flags="0x0"/>
      <component glyphName="acute" x="48" y="0" flags="0x0"/>
    </TTGlyph>
    <TTGlyph name="iacute_j.loclNLD" xMin="48" yMin="-193" xMax="345" yMax="743">
      <component glyphName="dotlessi" x="0" y="0" flags="0x0"/>
      <component glyphName="acutecomb" x="169" y="0" flags="0x0"/>
      <component glyphName="uni0237" x="176" y="0" flags="0x0"/>
      <component glyphName="acutecomb" x="345" y="0" flags="0x0"/>
    </TTGlyph>
    <TTGlyph name="ibreve" xMin="-20" yMin="0" xMax="194" yMax="743">
      <component glyphName="dotlessi" x="0" y="0" flags="0x0"/>
      <component glyphName="uni0306" x="194" y="0" flags="0x0"/>
    </TTGlyph>
    <TTGlyph name="icircumflex" xMin="-22" yMin="0" xMax="198" yMax="743">
      <component glyphName="dotlessi" x="0" y="0" flags="0x0"/>
      <component glyphName="circumflex" x="-22" y="0" flags="0x0"/>
    </TTGlyph>
    <TTGlyph name="idieresis" xMin="-33" yMin="0" xMax="209" yMax="730">
      <component glyphName="dotlessi" x="0" y="0" flags="0x0"/>
      <component glyphName="dieresis" x="-48" y="0" flags="0x0"/>
    </TTGlyph>
    <TTGlyph name="igrave" xMin="12" yMin="0" xMax="128" yMax="743">
      <component glyphName="dotlessi" x="0" y="0" flags="0x0"/>
      <component glyphName="grave" x="12" y="0" flags="0x0"/>
    </TTGlyph>
    <TTGlyph name="ij" xMin="47" yMin="-193" xMax="305" yMax="743">
      <component glyphName="i" x="0" y="0" flags="0x0"/>
      <component glyphName="j" x="176" y="0" flags="0x0"/>
    </TTGlyph>
    <TTGlyph name="imacron" xMin="3" yMin="0" xMax="173" yMax="743">
      <component glyphName="dotlessi" x="0" y="0" flags="0x0"/>
      <component glyphName="uni0304" x="226" y="0" flags="0x0"/>
    </TTGlyph>
    <TTGlyph name="infinity" xMin="46" yMin="46" xMax="630" yMax="467">
      <contour>
        <pt x="111" y="46" on="0"/>
        <pt x="46" y="151" on="0"/>
        <pt x="46" y="256" on="1"/>
        <pt x="46" y="362" on="0"/>
        <pt x="111" y="467" on="0"/>
        <pt x="188" y="467" on="1"/>
        <pt x="248" y="467" on="0"/>
        <pt x="317" y="402" on="0"/>
        <pt x="338" y="344" on="1"/>
        <pt x="358" y="402" on="0"/>
        <pt x="427" y="467" on="0"/>
        <pt x="487" y="467" on="1"/>
        <pt x="565" y="467" on="0"/>
        <pt x="630" y="362" on="0"/>
        <pt x="630" y="256" on="1"/>
        <pt x="630" y="151" on="0"/>
        <pt x="565" y="46" on="0"/>
        <pt x="487" y="46" on="1"/>
        <pt x="427" y="46" on="0"/>
        <pt x="358" y="111" on="0"/>
        <pt x="338" y="170" on="1"/>
        <pt x="317" y="111" on="0"/>
        <pt x="248" y="46" on="0"/>
        <pt x="188" y="46" on="1"/>
      </contour>
      <contour>
        <pt x="276" y="110" on="0"/>
        <pt x="302" y="256" on="1"/>
        <pt x="290" y="324" on="0"/>
        <pt x="240" y="402" on="0"/>
        <pt x="194" y="402" on="1"/>
        <pt x="151" y="402" on="0"/>
        <pt x="118" y="328" on="0"/>
        <pt x="118" y="256" on="1"/>
        <pt x="118" y="184" on="0"/>
        <pt x="151" y="110" on="0"/>
        <pt x="194" y="110" on="1"/>
      </contour>
      <contour>
        <pt x="525" y="110" on="0"/>
        <pt x="557" y="183" on="0"/>
        <pt x="557" y="256" on="1"/>
        <pt x="557" y="329" on="0"/>
        <pt x="525" y="402" on="0"/>
        <pt x="481" y="402" on="1"/>
        <pt x="398" y="402" on="0"/>
        <pt x="373" y="256" on="1"/>
        <pt x="399" y="110" on="0"/>
        <pt x="481" y="110" on="1"/>
      </contour>
    </TTGlyph>
    <TTGlyph name="integral" xMin="41" yMin="-190" xMax="249" yMax="696">
      <contour>
        <pt x="41" y="-127" on="1"/>
        <pt x="73" y="-127" on="0"/>
        <pt x="105" y="-119" on="0"/>
        <pt x="118" y="-98" on="0"/>
        <pt x="118" y="-77" on="1"/>
        <pt x="115" y="3" on="1"/>
        <pt x="88" y="544" on="1"/>
        <pt x="87" y="580" on="1"/>
        <pt x="87" y="634" on="0"/>
        <pt x="121" y="683" on="0"/>
        <pt x="185" y="696" on="0"/>
        <pt x="249" y="696" on="1"/>
        <pt x="249" y="633" on="1"/>
        <pt x="215" y="633" on="0"/>
        <pt x="183" y="625" on="0"/>
        <pt x="171" y="602" on="0"/>
        <pt x="171" y="576" on="1"/>
        <pt x="172" y="540" on="1"/>
        <pt x="198" y="8" on="1"/>
        <pt x="201" y="-67" on="1"/>
        <pt x="201" y="-125" on="0"/>
        <pt x="167" y="-177" on="0"/>
        <pt x="105" y="-190" on="0"/>
        <pt x="41" y="-190" on="1"/>
      </contour>
    </TTGlyph>
    <TTGlyph name="iogonek" xMin="8" yMin="-196" xMax="128" yMax="730">
      <contour>
        <pt x="125" y="648" on="1"/>
        <pt x="51" y="648" on="1"/>
        <pt x="51" y="730" on="1"/>
        <pt x="125" y="730" on="1"/>
      </contour>
      <contour>
        <pt x="108" y="-17" on="0"/>
        <pt x="73" y="-78" on="0"/>
        <pt x="73" y="-104" on="1"/>
        <pt x="73" y="-145" on="0"/>
        <pt x="114" y="-145" on="1"/>
        <pt x="128" y="-144" on="1"/>
        <pt x="128" y="-193" on="1"/>
        <pt x="113" y="-196" on="0"/>
        <pt x="94" y="-196" on="1"/>
        <pt x="50" y="-196" on="0"/>
        <pt x="8" y="-152" on="0"/>
        <pt x="8" y="-118" on="1"/>
        <pt x="8" y="-88" on="0"/>
        <pt x="40" y="-26" on="0"/>
        <pt x="67" y="0" on="1"/>
        <pt x="48" y="0" on="1"/>
        <pt x="48" y="510" on="1"/>
        <pt x="128" y="510" on="1"/>
        <pt x="128" y="0" on="1"/>
      </contour>
    </TTGlyph>
    <TTGlyph name="itilde" xMin="-39" yMin="0" xMax="214" yMax="743">
      <component glyphName="dotlessi" x="0" y="0" flags="0x0"/>
      <component glyphName="tildecomb" x="214" y="0" flags="0x0"/>
    </TTGlyph>
</ttFont>
